<?xml version="1.0" standalone="no"?>
<!DOCTYPE svg PUBLIC "-//W3C//DTD SVG 1.1//EN" "http://www.w3.org/Graphics/SVG/1.1/DTD/svg11.dtd" >
<svg xmlns="http://www.w3.org/2000/svg" xmlns:xlink="http://www.w3.org/1999/xlink" version="1.1">
<metadata></metadata>
<defs>
<font id="montserrat_alternatesLtIt" horiz-adv-x="1165" >
<font-face units-per-em="2048" ascent="1638" descent="-410" />
<missing-glyph horiz-adv-x="526" />
<glyph unicode="&#xfb01;" horiz-adv-x="1347" d="M109 0l245 1231q29 145 116 221t226 76q63 0 118.5 -18.5t88.5 -53.5l-49 -74q-61 57 -160 58q-100 0 -159.5 -53.5t-81.5 -169.5l-31 -148h342l-16 -88h-342l-195 -981h-102zM922 0l213 1069h102l-213 -1069h-102zM1172 1405q0 37 25.5 63.5t64.5 26.5q33 0 56.5 -22.5 t23.5 -53.5q0 -39 -27 -64.5t-65 -25.5q-33 0 -55.5 22.5t-22.5 53.5z" />
<glyph unicode="&#xfb02;" horiz-adv-x="1228" d="M129 981l16 88h199l14 72q39 195 144.5 291t271.5 96q143 0 219 -75t76 -208q0 -53 -12 -115l-209 -1038q-8 -35 -8 -72q0 -145 149 -145q62 1 107 21l-9 -89q-57 -20 -124 -20q-109 0 -168.5 57.5t-59.5 157.5q0 41 8 80l211 1053q10 49 11 104q0 201 -197 201 q-125 0 -200.5 -71t-106.5 -224l-15 -76h338l-16 -88h-340l-195 -981h-102l195 981h-197z" />
<glyph horiz-adv-x="0" />
<glyph unicode="&#xd;" horiz-adv-x="526" />
<glyph horiz-adv-x="0" />
<glyph horiz-adv-x="0" />
<glyph unicode=" "  horiz-adv-x="526" />
<glyph unicode="&#x09;" horiz-adv-x="526" />
<glyph unicode="&#xa0;" horiz-adv-x="526" />
<glyph unicode="!" horiz-adv-x="516" d="M82 72q0 37 25.5 62.5t60.5 25.5t59.5 -23.5t24.5 -56.5q0 -37 -25.5 -62.5t-62.5 -25.5q-33 0 -57.5 23.5t-24.5 56.5zM195 412l184 1022h119l-226 -1022h-77z" />
<glyph unicode="&#x22;" horiz-adv-x="731" d="M233 905l99 529h94l-113 -529h-80zM565 905l99 529h94l-113 -529h-80z" />
<glyph unicode="#" horiz-adv-x="1413" d="M41 406l16 81h303l148 459h-295l16 82h306l129 406h86l-132 -406h447l131 406h86l-131 -406h297l-16 -82h-306l-147 -459h297l-16 -81h-308l-131 -406h-86l131 406h-446l-131 -406h-84l129 406h-293zM446 487h447l147 459h-446z" />
<glyph unicode="$" horiz-adv-x="1247" d="M37 180l55 80q59 -70 172 -118t238 -58l119 594q-117 35 -194 71.5t-128 102.5t-51 168q0 193 145.5 304.5t380.5 119.5l47 235h74l-47 -237q111 -4 213 -37t174 -86l-49 -86q-148 109 -357 119l-118 -598q129 -39 208.5 -74t135 -99.5t55.5 -168.5q0 -197 -153.5 -307.5 t-399.5 -114.5l-47 -236h-74l47 238q-141 10 -264 62t-182 126zM352 1030q0 -102 74 -157.5t215 -98.5l115 576q-184 -10 -294 -94.5t-110 -225.5zM575 82q197 4 314 88t117 229q0 74 -42 122t-106.5 77t-167.5 59z" />
<glyph unicode="%" horiz-adv-x="1673" d="M188 971q0 123 46.5 230.5t132.5 173t198 65.5q125 0 198 -80t73 -221q0 -123 -46.5 -230.5t-132.5 -173t-198 -65.5q-125 0 -198 79.5t-73 221.5zM195 0l1259 1434h96l-1259 -1434h-96zM266 977q0 -113 52.5 -176.5t144.5 -63.5q90 0 157.5 58.5t102.5 149.5t35 188 q0 113 -52.5 176t-144.5 63q-90 0 -157.5 -58.5t-102.5 -149.5t-35 -187zM909 293q0 123 47.5 230.5t133.5 173t198 65.5q125 0 196.5 -80t71.5 -221q0 -123 -46 -230.5t-132 -173t-198 -65.5q-125 0 -198 80t-73 221zM987 299q0 -113 52.5 -176.5t146.5 -63.5 q90 0 157.5 58.5t102.5 149.5t35 188q0 113 -52.5 176t-146.5 63q-90 0 -157.5 -58t-102.5 -149.5t-35 -187.5z" />
<glyph unicode="&#x26;" horiz-adv-x="1341" d="M63 309q0 139 106.5 253t356.5 239l-2 2q-61 82 -92 153.5t-31 143.5q0 158 104.5 250t274.5 92q133 0 213 -65.5t80 -174.5q0 -86 -41 -154.5t-128 -131t-240 -138.5l335 -444q96 123 164 295l82 -27q-79 -205 -192 -338l168 -221l-72 -63l-162 213q-209 -203 -506 -203 q-190 0 -304 87t-114 232zM166 322q0 -111 86 -178.5t235 -67.5q261 0 449 186l-361 473q-156 -78 -244.5 -142.5t-126.5 -129t-38 -141.5zM498 1110q0 -59 27.5 -122.5t86.5 -141.5l2 -2q145 70 223 123t112 106t34 123q0 72 -55.5 119t-151.5 47q-127 0 -202.5 -68.5 t-75.5 -183.5z" />
<glyph unicode="'" horiz-adv-x="397" d="M233 905l99 529h94l-113 -529h-80z" />
<glyph unicode="(" horiz-adv-x="657" d="M193 131q0 377 124.5 755t335.5 634h103q-211 -262 -339 -644t-128 -749q0 -258 84 -524h-92q-41 114 -64.5 254.5t-23.5 273.5z" />
<glyph unicode=")" horiz-adv-x="657" d="M27 -397q211 262 339 644t128 748q0 258 -84 525h92q41 -115 64.5 -255.5t23.5 -273.5q0 -377 -125 -754.5t-336 -633.5h-102z" />
<glyph unicode="*" horiz-adv-x="768" d="M143 1008l297 151l-233 150l43 63l235 -155l58 303h71l-59 -301l293 153l29 -67l-293 -150l227 -145l-43 -64l-238 156l-59 -305h-72l62 297l-289 -150z" />
<glyph unicode="+" d="M174 672l19 88h389l75 381h93l-76 -381h389l-16 -88h-392l-75 -379h-93l76 379h-389z" />
<glyph unicode="," horiz-adv-x="409" d="M-47 -293l125 291q-23 10 -37 31.5t-14 46.5q0 39 26.5 64.5t63.5 25.5q35 0 59.5 -24.5t24.5 -59.5q0 -18 -7.5 -36.5t-14.5 -32t-9 -19.5l-143 -287h-74z" />
<glyph unicode="-" horiz-adv-x="780" d="M121 504l18 92h527l-19 -92h-526z" />
<glyph unicode="." horiz-adv-x="409" d="M27 76q0 39 26.5 64.5t63.5 25.5q35 0 59.5 -24.5t24.5 -59.5q0 -37 -27 -63.5t-63 -26.5q-35 0 -59.5 24.5t-24.5 59.5z" />
<glyph unicode="/" horiz-adv-x="655" d="M-197 -205l1057 1929h101l-1055 -1929h-103z" />
<glyph unicode="0" horiz-adv-x="1347" d="M127 502q0 244 88 460t250 349t375 133t331.5 -135t118.5 -377q0 -244 -87 -460t-248.5 -349t-374.5 -133t-333 135t-120 377zM231 504q0 -201 93.5 -309.5t265.5 -108.5q180 0 316 125t209 319.5t73 399.5q0 201 -94.5 309.5t-264.5 108.5q-182 0 -317 -125t-208 -319.5 t-73 -399.5z" />
<glyph unicode="1" horiz-adv-x="722" d="M180 1339l19 95h454l-286 -1434h-105l268 1339h-350z" />
<glyph unicode="2" horiz-adv-x="1153" d="M-25 0l17 74l733 600q160 131 220.5 225t60.5 201q0 117 -83 183.5t-251 66.5q-121 0 -231.5 -44t-184.5 -124l-74 63q88 94 220.5 146.5t281.5 52.5q207 0 316.5 -90t109.5 -242q0 -127 -69.5 -242.5t-243.5 -257.5l-637 -518h821l-18 -94h-988z" />
<glyph unicode="3" horiz-adv-x="1142" d="M-39 184l64 78q53 -80 164.5 -128t261.5 -48q211 0 333.5 97.5t122.5 262.5q0 274 -372 275h-78l16 76l528 542h-759l18 95h897l-12 -74l-539 -553q199 -8 303.5 -101.5t104.5 -254.5q0 -135 -71 -240t-201 -163t-298 -58q-164 0 -291.5 52t-191.5 142z" />
<glyph unicode="4" horiz-adv-x="1339" d="M61 397l15 76l960 961h125l-942 -945h678l72 351h100l-70 -351h301l-18 -92h-301l-80 -397h-104l80 397h-816z" />
<glyph unicode="5" horiz-adv-x="1142" d="M-10 184l63 78q53 -80 166 -128t262 -48q215 0 336 97.5t121 269.5q0 139 -102.5 212.5t-327.5 73.5h-318l213 695h760l-18 -95h-666l-157 -505h204q262 0 389 -97.5t127 -273.5q0 -143 -69.5 -250t-198.5 -165t-301 -58q-164 0 -292 52t-191 142z" />
<glyph unicode="6" horiz-adv-x="1232" d="M127 545q0 223 79 428t253 338t442 133q207 0 332 -76l-53 -86q-102 70 -285 70q-221 0 -367.5 -111t-216 -283t-75.5 -364q63 129 186 191.5t268 62.5q131 0 234.5 -47t163 -137.5t59.5 -214.5q0 -139 -64.5 -244t-179.5 -160t-262 -55q-233 0 -373.5 142t-140.5 413z M254 401q0 -82 44 -155.5t131 -119.5t210 -46q182 0 292.5 97t110.5 263q0 150 -102 234t-268 84q-123 0 -218.5 -47t-147.5 -129t-52 -181z" />
<glyph unicode="7" horiz-adv-x="1189" d="M174 1065l74 369h1030l-14 -74l-885 -1360h-119l873 1339h-801l-56 -274h-102z" />
<glyph unicode="8" horiz-adv-x="1294" d="M76 362q0 158 100 262.5t285 139.5q-96 41 -146.5 112.5t-50.5 167.5q0 121 63.5 212.5t180.5 139.5t272 48q213 0 341 -92t128 -250q0 -139 -86 -234.5t-241 -130.5q116 -43 177.5 -124t61.5 -193q0 -131 -70.5 -228.5t-199.5 -149.5t-301 -52q-242 0 -378 99t-136 273z M180 369q0 -135 109.5 -212t304.5 -77q215 0 339 91t124 247q0 133 -110.5 210t-307.5 77q-213 0 -336 -91.5t-123 -244.5zM371 1051q0 -121 96 -190.5t270 -69.5q188 0 298 80.5t110 218.5q0 123 -100.5 193.5t-270.5 70.5q-184 0 -293.5 -82t-109.5 -221z" />
<glyph unicode="9" horiz-adv-x="1232" d="M74 66l51 86q106 -70 287 -70q221 0 366.5 110.5t215 282.5t75.5 365q-63 -129 -185 -191.5t-270 -62.5q-131 0 -234.5 47t-162.5 137t-59 215q0 139 64.5 243.5t180 160t263.5 55.5q233 0 372.5 -142.5t139.5 -412.5q0 -223 -79 -428t-253 -338t-443 -133 q-207 0 -329 76zM264 993q0 -150 101.5 -233.5t267.5 -83.5q123 0 218 47t147.5 129t52.5 180q0 82 -44 156t-131.5 120t-209.5 46q-182 0 -292 -97.5t-110 -263.5z" />
<glyph unicode=":" horiz-adv-x="409" d="M27 76q0 39 26.5 64.5t63.5 25.5q35 0 59.5 -24.5t24.5 -59.5q0 -37 -27 -63.5t-63 -26.5q-35 0 -59.5 24.5t-24.5 59.5zM209 987q0 39 26.5 64.5t63.5 25.5q35 0 59.5 -24.5t24.5 -59.5q0 -37 -27 -63.5t-63 -26.5q-35 0 -59.5 24.5t-24.5 59.5z" />
<glyph unicode=";" horiz-adv-x="409" d="M-47 -293l125 291q-23 10 -37 31.5t-14 46.5q0 39 26.5 64.5t63.5 25.5q35 0 59.5 -24.5t24.5 -59.5q0 -18 -7.5 -36.5t-14.5 -32t-9 -19.5l-143 -287h-74zM209 987q0 39 26.5 64.5t63.5 25.5q35 0 59.5 -24.5t24.5 -59.5q0 -37 -27 -63.5t-63 -26.5q-35 0 -59.5 24.5 t-24.5 59.5z" />
<glyph unicode="&#x3c;" d="M172 668l21 98l940 354l-21 -98l-831 -311l708 -310l-16 -88z" />
<glyph unicode="=" d="M129 442l18 86h871l-19 -86h-870zM223 903l17 88h870l-18 -88h-869z" />
<glyph unicode="&#x3e;" d="M106 313l21 99l829 309l-708 311l18 88l799 -354l-21 -98z" />
<glyph unicode="?" horiz-adv-x="1150" d="M170 1247q186 197 520 197q190 0 298 -82t108 -227q0 -100 -36 -173t-87 -120t-139 -111q-113 -82 -174.5 -148.5t-84.5 -170.5h-106q16 88 58 154.5t94.5 111.5t132.5 102q82 57 128 99.5t77.5 101.5t31.5 139q0 111 -82 171.5t-231 60.5q-143 0 -251 -42t-189 -128z M371 72q0 37 25.5 62.5t60.5 25.5t59.5 -23.5t24.5 -56.5q0 -37 -26 -62.5t-62 -25.5q-33 0 -57.5 23.5t-24.5 56.5z" />
<glyph unicode="@" horiz-adv-x="2115" d="M90 346q0 297 136 549t387 400.5t581 148.5q262 0 448.5 -92t282.5 -259t96 -391q0 -184 -58 -348t-157.5 -263t-216.5 -99q-86 0 -137 45t-51 123q0 10 4 39q-78 -98 -190.5 -152.5t-251.5 -54.5q-203 0 -325 117.5t-122 314.5q0 176 76 320.5t210 227.5t304 83 q164 0 269.5 -72t144.5 -203l53 267h94l-162 -811q-6 -31 -6 -54q0 -106 113 -106q88 0 163.5 90t121 235.5t45.5 300.5q0 201 -86.5 350.5t-255 231.5t-414.5 82q-299 0 -529.5 -136t-356.5 -368.5t-126 -511.5q0 -203 85 -355.5t249 -237.5t395 -85q113 0 216.5 22.5 t183.5 67.5l18 -77q-86 -43 -198.5 -68t-229.5 -25q-248 0 -429 94.5t-277.5 265.5t-96.5 394zM612 430q0 -168 97.5 -260t273.5 -92q141 0 254 69.5t177.5 192.5t64.5 276q0 168 -99.5 260.5t-275.5 92.5q-141 0 -253 -70t-175.5 -192.5t-63.5 -276.5z" />
<glyph unicode="A" horiz-adv-x="1642" d="M131 0l166 831q61 309 229 461t447 152q241 0 373.5 -121t132.5 -340q0 -88 -17 -164l-164 -819h-104l88 442h-958l-88 -442h-105zM344 537h956l58 284q16 88 16 154q0 182 -105.5 277.5t-303.5 95.5q-233 0 -372.5 -127t-191.5 -394z" />
<glyph unicode="B" horiz-adv-x="1540" d="M143 0l287 1434h594q203 0 316.5 -77t113.5 -222q0 -154 -86 -255.5t-229 -142.5q123 -26 188.5 -101t65.5 -194q0 -213 -160 -327.5t-445 -114.5h-645zM266 90h533q235 0 362 90t127 258q0 129 -90 186.5t-272 57.5h-541zM401 772h490q205 0 330 89t125 257 q0 113 -88.5 169t-251.5 56h-490z" />
<glyph unicode="C" horiz-adv-x="1466" d="M137 580q0 233 106.5 431.5t303 315.5t459.5 117q166 0 296 -51.5t201 -145.5l-73 -67q-143 168 -433 168q-225 0 -397 -103.5t-265 -277.5t-93 -383q0 -229 145 -363.5t418 -134.5q295 0 473 172l63 -72q-94 -94 -236 -145t-308 -51q-209 0 -357.5 73.5t-225.5 206.5 t-77 310z" />
<glyph unicode="D" horiz-adv-x="1691" d="M143 0l287 1434h533q211 0 361.5 -72t228 -203t77.5 -305q0 -248 -110.5 -442.5t-313 -303t-469.5 -108.5h-594zM266 94h477q236 0 413 96.5t272.5 268.5t95.5 391q0 227 -145.5 358t-428.5 131h-434z" />
<glyph unicode="E" horiz-adv-x="1282" d="M84 338q0 154 101.5 260.5t273.5 138.5q-84 35 -130 104.5t-46 164.5q0 131 72.5 230t205.5 153.5t307 54.5q133 0 250 -30t203 -87l-43 -86q-172 111 -418 111q-141 0 -248.5 -43t-166 -120t-58.5 -179q0 -113 78 -174.5t219 -61.5h350l-20 -94h-357q-215 0 -341 -89 t-126 -241q0 -129 106.5 -198.5t309.5 -69.5q160 0 298 45t222 125l43 -82q-92 -84 -245.5 -132t-331.5 -48q-238 0 -373 92t-135 256z" />
<glyph unicode="F" horiz-adv-x="1228" d="M131 0l193 963q94 481 624 481q121 0 226.5 -31t177.5 -90l-54 -82q-127 106 -354 107q-438 0 -514 -387l-47 -234h709l-21 -94h-706l-127 -633h-107z" />
<glyph unicode="G" horiz-adv-x="1583" d="M137 578q0 236 106.5 433t304 315t460.5 118q172 0 304 -51.5t210 -147.5l-74 -65q-143 168 -449 168q-225 0 -397 -102.5t-266 -277.5t-94 -384q0 -227 143 -362.5t410 -135.5q240 0 417 141l99 484h100l-143 -711h-94l20 109q-164 -119 -412 -119q-201 0 -346 72.5 t-222 205.5t-77 310z" />
<glyph unicode="H" horiz-adv-x="1667" d="M143 0l287 1434h105l-132 -658h959l131 658h104l-286 -1434h-105l135 680h-958l-135 -680h-105z" />
<glyph unicode="I" horiz-adv-x="890" d="M-14 0l16 92h303l248 1249h-299l18 93h707l-18 -93h-302l-249 -1249h301l-19 -92h-706z" />
<glyph unicode="J" horiz-adv-x="1005" d="M-111 -10l78 65q39 -82 117 -129t182 -47q135 0 216 77t118 257l225 1126h-528l18 95h633l-246 -1227q-45 -227 -151.5 -324.5t-290.5 -97.5q-131 0 -228.5 55.5t-142.5 149.5z" />
<glyph unicode="K" horiz-adv-x="1439" d="M143 0l287 1434h105l-183 -912l1067 912h142l-777 -664l531 -770h-121l-485 707l-385 -330l-76 -377h-105z" />
<glyph unicode="L" horiz-adv-x="1198" d="M143 0l287 1434h105l-269 -1340h826l-21 -94h-928z" />
<glyph unicode="M" horiz-adv-x="2463" d="M143 0l303 1434h101l-47 -226q82 117 203.5 176.5t271.5 59.5q176 0 282.5 -77t126.5 -220q170 297 512 297q201 0 311.5 -98.5t110.5 -284.5q0 -72 -18 -162l-189 -899h-104l188 895q16 72 17 147q0 154 -87 230t-251 76q-195 0 -328 -121t-186 -367l-178 -860h-107 l189 895q16 74 16 147q0 154 -85 230t-249 76q-190 0 -325.5 -113t-184.5 -342l-188 -893h-105z" />
<glyph unicode="N" horiz-adv-x="1636" d="M143 0l287 1434h102l-53 -263q88 135 224.5 204t306.5 69q219 0 343 -113.5t124 -326.5q0 -80 -19 -173l-166 -831h-104l166 834q16 76 16 157q0 176 -98 266.5t-287 90.5q-219 0 -367.5 -124t-197.5 -370l-172 -854h-105z" />
<glyph unicode="O" horiz-adv-x="1716" d="M137 580q0 233 105.5 430.5t301 315.5t451.5 118q207 0 355.5 -74t225.5 -207t77 -309q0 -233 -106.5 -431t-302 -315.5t-451.5 -117.5q-207 0 -354.5 73.5t-224.5 206.5t-77 310zM242 584q0 -227 145 -362.5t416 -135.5q219 0 389 103.5t262 278.5t92 382 q0 229 -144.5 363.5t-414.5 134.5q-219 0 -389 -103.5t-263 -278.5t-93 -382z" />
<glyph unicode="P" horiz-adv-x="1464" d="M143 0l287 1434h500q237 0 368.5 -103.5t131.5 -292.5q0 -272 -176.5 -420.5t-483.5 -148.5h-428l-94 -469h-105zM360 563h410q266 0 409.5 119t143.5 348q0 150 -103.5 229.5t-295.5 79.5h-408z" />
<glyph unicode="Q" horiz-adv-x="1716" d="M137 580q0 233 105.5 430.5t301 315.5t451.5 118q207 0 355.5 -74t225.5 -207t77 -309q0 -233 -105.5 -430t-299 -314.5t-447.5 -119.5l-53 -266h-105l53 270q-266 27 -412.5 183.5t-146.5 402.5zM242 584q0 -209 122.5 -341t352.5 -153l74 367h100l-74 -371 q217 4 383 107.5t256 277.5t90 379q0 229 -144.5 363.5t-414.5 134.5q-219 0 -389 -103.5t-263 -278.5t-93 -382z" />
<glyph unicode="R" horiz-adv-x="1474" d="M143 0l287 1434h502q238 0 368 -103.5t130 -292.5q0 -221 -118 -361t-333 -185l276 -492h-114l-269 475q-66 -4 -100 -4h-430l-94 -471h-105zM360 563h412q266 0 409.5 119t143.5 348q0 150 -103.5 229.5t-295.5 79.5h-410z" />
<glyph unicode="S" horiz-adv-x="1247" d="M37 180l55 80q66 -78 194 -128t265 -50q207 0 331 84t124 233q0 78 -46.5 127t-115 78t-185.5 62q-135 41 -217 75.5t-138 102t-56 176.5q0 131 71.5 227t196.5 146.5t287 50.5q125 0 238.5 -33t193.5 -92l-49 -86q-76 57 -176.5 88t-210.5 31q-201 0 -324 -86t-123 -236 q0 -80 47 -131t116 -79.5t190 -63.5q135 -41 214.5 -75t135 -99.5t55.5 -169.5q0 -201 -157.5 -311.5t-409.5 -110.5q-156 0 -297.5 54t-208.5 136z" />
<glyph unicode="T" horiz-adv-x="1163" d="M154 1292q123 74 275.5 113t311.5 39q340 0 574 -154l-51 -84q-195 129 -469 142l-269 -1348h-104l270 1350q-139 -4 -270 -41t-234 -101z" />
<glyph unicode="U" horiz-adv-x="1634" d="M233 430q0 80 19 172l166 832h104l-166 -834q-18 -88 -18 -162q0 -174 99.5 -263t285.5 -89q217 0 365.5 124t199.5 370l170 854h107l-287 -1434h-102l51 264q-88 -137 -223.5 -205.5t-305.5 -68.5q-217 0 -341 113.5t-124 326.5z" />
<glyph unicode="V" horiz-adv-x="1406" d="M190 1434h111l317 -1299l842 1299h115l-928 -1434h-102z" />
<glyph unicode="W" horiz-adv-x="2451" d="M221 383q0 76 19 162l190 889h107l-193 -895q-16 -74 -16 -148q0 -152 87 -228.5t251 -76.5q195 0 324.5 120t183.5 369l184 859h104l-192 -895q-16 -72 -17 -148q0 -152 87 -228.5t253 -76.5q207 0 332 114.5t176 356.5l187 877h106l-190 -879q-61 -291 -214 -428 t-411 -137q-174 0 -279.5 72.5t-132.5 213.5q-84 -145 -214 -215.5t-289 -70.5q-209 0 -326 101.5t-117 291.5z" />
<glyph unicode="X" horiz-adv-x="1314" d="M-66 0l705 745l-379 689h111l340 -615l579 615h123l-659 -697l409 -737h-110l-367 664l-625 -664h-127z" />
<glyph unicode="Y" horiz-adv-x="1613" d="M158 14l63 80q72 -106 182.5 -158.5t268.5 -52.5q227 0 374.5 130t198.5 393l45 225q-88 -133 -221 -199.5t-303 -66.5q-221 0 -345 114.5t-124 327.5q0 78 18 170l93 457h104l-92 -459q-16 -92 -17 -158q0 -176 99.5 -267t288.5 -91q217 0 365.5 124t199.5 371l96 480 h104l-206 -1035q-59 -303 -235.5 -457.5t-448.5 -154.5q-176 0 -305.5 58.5t-202.5 168.5z" />
<glyph unicode="Z" horiz-adv-x="1343" d="M-2 0l16 74l596 610h-344l19 90h411l553 565h-968l18 95h1120l-14 -74l-576 -588h314l-19 -90h-383l-573 -588h1006l-21 -94h-1155z" />
<glyph unicode="[" horiz-adv-x="626" d="M61 -397l383 1917h330l-16 -88h-228l-348 -1741h228l-17 -88h-332z" />
<glyph unicode="\" horiz-adv-x="655" d="M170 1724h90l295 -1929h-90z" />
<glyph unicode="]" horiz-adv-x="626" d="M-137 -397l18 88h228l346 1741h-228l19 88h329l-382 -1917h-330z" />
<glyph unicode="^" horiz-adv-x="1167" d="M135 295l524 844h91l186 -844h-84l-162 752l-461 -752h-94z" />
<glyph unicode="_" horiz-adv-x="1024" d="M-121 -74l15 74h1024l-15 -74h-1024z" />
<glyph unicode="`" horiz-adv-x="1228" d="M488 1485h147l238 -242h-111z" />
<glyph unicode="a" horiz-adv-x="1458" d="M92 436q0 182 78 328.5t216 229.5t310 83q166 0 274.5 -71.5t147.5 -202.5l53 266h103l-156 -774q-6 -37 -6 -68q0 -72 38 -109.5t112 -37.5q61 0 106 20l-8 -86q-53 -22 -119 -22h-6q-111 0 -170 60q-55 57 -55 152v13q-78 -109 -195 -167t-262 -58q-209 0 -335 119.5 t-126 324.5zM195 442q0 -170 99 -264t279 -94q144 0 257.5 69.5t179 193.5t65.5 280q0 170 -99 264t-280 94q-143 0 -256.5 -70.5t-179 -194.5t-65.5 -278z" />
<glyph unicode="b" horiz-adv-x="1382" d="M109 0l303 1520h102l-129 -652q78 100 191.5 154.5t252.5 54.5q209 0 336 -119.5t127 -324.5q0 -182 -78.5 -328.5t-217 -229.5t-310.5 -83q-168 0 -276.5 72.5t-147.5 207.5l-53 -272h-100zM307 442q0 -170 100.5 -264t280.5 -94q143 0 257 70.5t178.5 193.5t64.5 279 q0 170 -99.5 264t-279.5 94q-143 0 -257 -69.5t-179.5 -193.5t-65.5 -280z" />
<glyph unicode="c" horiz-adv-x="1136" d="M92 436q0 182 79 328.5t219 229.5t317 83q143 0 245.5 -50t159.5 -150l-84 -52q-96 160 -328 160q-145 0 -259.5 -70.5t-180 -193.5t-65.5 -279q0 -170 100 -264t287 -94q106 0 199 41t155 115l72 -58q-70 -90 -185.5 -140t-249.5 -50q-221 0 -351 120.5t-130 323.5z" />
<glyph unicode="d" horiz-adv-x="1458" d="M92 436q0 182 78 328.5t216 229.5t310 83q166 0 273.5 -70.5t146.5 -199.5l144 713h102l-244 -1225q-8 -33 -8 -70q0 -72 38 -108.5t112 -36.5q61 0 106 20l-8 -86q-53 -22 -119 -22h-6q-109 0 -169 58q-58 57 -58 154v7q-78 -104 -195 -161.5t-258 -57.5 q-209 0 -335 119.5t-126 324.5zM195 442q0 -170 99 -264t279 -94q144 0 257.5 69.5t179 193.5t65.5 280q0 170 -99 264t-280 94q-143 0 -256.5 -70.5t-179 -194.5t-65.5 -278z" />
<glyph unicode="e" horiz-adv-x="1216" d="M92 440q0 180 76 325.5t209 228.5t299 83q211 0 332.5 -119.5t121.5 -334.5l-2 -43l-933 -177q10 -154 110.5 -236.5t282.5 -82.5q113 0 208 38t158 105l47 -71q-72 -78 -182 -121t-239 -43q-227 0 -357.5 118.5t-130.5 329.5zM193 483l841 160v7q0 157 -95 247 q-97 92 -265 92q-133 0 -239.5 -64.5t-170 -179t-71.5 -262.5z" />
<glyph unicode="f" horiz-adv-x="649" d="M109 0l245 1231q29 145 116 221t226 76q63 0 118.5 -18.5t88.5 -53.5l-49 -74q-61 57 -160 58q-100 0 -159.5 -53.5t-81.5 -169.5l-31 -148h342l-16 -88h-342l-195 -981h-102z" />
<glyph unicode="g" horiz-adv-x="1396" d="M27 -238l65 76q66 -72 170.5 -111.5t235.5 -39.5q213 0 333.5 100t161.5 311l33 160q-80 -104 -198.5 -161.5t-264.5 -57.5q-215 0 -341 114.5t-126 311.5q0 172 78 312.5t217 220t314 79.5q168 0 280.5 -71.5t151.5 -208.5l53 272h98l-190 -954q-53 -272 -200.5 -396.5 t-408.5 -124.5q-147 0 -266 44.5t-196 123.5zM199 469q0 -160 101 -249t282 -89q145 0 259.5 66.5t180 184.5t65.5 265q0 160 -101 249t-281 89q-145 0 -260 -66.5t-180.5 -184.5t-65.5 -265z" />
<glyph unicode="h" horiz-adv-x="1378" d="M109 0l303 1520h102l-129 -650q152 207 438 207q183 0 281 -91t98 -251q0 -55 -12 -117l-123 -618h-102l122 618q10 47 11 103q0 127 -77 195.5t-224 68.5q-184 0 -307 -103.5t-162 -299.5l-117 -582h-102z" />
<glyph unicode="i" horiz-adv-x="534" d="M109 0l213 1069h102l-213 -1069h-102zM359 1405q0 37 25.5 63.5t64.5 26.5q33 0 56.5 -22.5t23.5 -53.5q0 -39 -27 -64.5t-65 -25.5q-33 0 -55.5 22.5t-22.5 53.5z" />
<glyph unicode="j" horiz-adv-x="544" d="M-352 -336l53 78q66 -59 168 -59q94 0 150.5 53t78.5 166l234 1167h102l-235 -1175q-29 -152 -112 -226t-222 -74q-66 0 -122 18.5t-95 51.5zM367 1405q0 37 25.5 63.5t64.5 26.5q33 0 56.5 -22.5t23.5 -53.5q0 -39 -27 -64.5t-65 -25.5q-33 0 -55.5 22.5t-22.5 53.5z " />
<glyph unicode="k" horiz-adv-x="1179" d="M109 0l303 1520h102l-213 -1071l797 620h149l-561 -436l385 -633h-119l-346 571l-332 -256l-63 -315h-102z" />
<glyph unicode="l" horiz-adv-x="610" d="M158 209q0 39 8 78l246 1233h102l-244 -1225q-8 -33 -8 -70q0 -72 38 -108.5t112 -36.5q61 0 106 20l-8 -86q-53 -22 -119 -22h-6q-109 0 -168 58.5t-59 158.5z" />
<glyph unicode="m" horiz-adv-x="2179" d="M109 0l213 1069h100l-41 -201q76 106 184.5 157.5t243.5 51.5q147 0 237.5 -62.5t118.5 -176.5q80 119 199 179t266 60q180 0 276.5 -89t96.5 -249q0 -55 -12 -121l-125 -618h-103l125 618q10 47 10 105q0 125 -73.5 193.5t-214.5 68.5q-176 0 -294 -97t-155 -282 l-123 -606h-102l125 618q10 47 10 105q0 125 -73.5 193.5t-215.5 68.5q-178 0 -296.5 -103.5t-157.5 -299.5l-117 -582h-102z" />
<glyph unicode="n" horiz-adv-x="1378" d="M109 0l213 1069h100l-41 -203q76 106 189.5 158.5t252.5 52.5q183 0 281 -91t98 -251q0 -55 -12 -117l-123 -618h-102l122 618q10 47 11 103q0 127 -77 195.5t-224 68.5q-184 0 -307 -103.5t-162 -299.5l-117 -582h-102z" />
<glyph unicode="o" horiz-adv-x="1269" d="M92 436q0 182 79 327.5t218 229.5t316 84q217 0 345 -119.5t128 -324.5q0 -182 -79 -328.5t-218.5 -229.5t-315.5 -83q-217 0 -345 120.5t-128 323.5zM195 442q0 -170 99 -264t279 -94q144 0 257.5 69.5t179 193.5t65.5 280q0 170 -99 264t-280 94q-143 0 -256.5 -70.5 t-179 -194.5t-65.5 -278z" />
<glyph unicode="p" horiz-adv-x="1382" d="M29 -397l293 1466h100l-41 -207q78 102 192.5 158.5t255.5 56.5q209 0 336 -119.5t127 -324.5q0 -182 -78.5 -328.5t-217 -229.5t-310.5 -83q-166 0 -273.5 70.5t-148.5 203.5l-133 -663h-102zM307 442q0 -170 100.5 -264t280.5 -94q143 0 257 70.5t178.5 193.5t64.5 279 q0 170 -99.5 264t-279.5 94q-143 0 -257 -69.5t-179.5 -193.5t-65.5 -280z" />
<glyph unicode="q" horiz-adv-x="1382" d="M92 436q0 182 78 328.5t216 229.5t310 83q168 0 277.5 -72.5t146.5 -207.5l56 272h98l-293 -1466h-102l120 600q-78 -100 -192.5 -155.5t-253.5 -55.5q-209 0 -335 119.5t-126 324.5zM195 442q0 -170 99 -264t279 -94q144 0 257.5 69.5t179 193.5t65.5 280q0 170 -99 264 t-280 94q-143 0 -256.5 -70.5t-179 -194.5t-65.5 -278z" />
<glyph unicode="r" horiz-adv-x="806" d="M109 0l213 1069h100l-45 -225q72 117 183.5 175t270.5 58l-18 -100l-33 2q-182 0 -298.5 -108.5t-159.5 -321.5l-111 -549h-102z" />
<glyph unicode="s" horiz-adv-x="978" d="M-14 127l55 80q59 -57 158.5 -91t210.5 -34q166 0 257 58.5t91 162.5q0 59 -37 94t-90 52.5t-148 37.5q-111 23 -179 47.5t-115.5 77t-47.5 142.5q0 147 122 235t325 88q102 0 198.5 -27.5t153.5 -76.5l-47 -80q-59 47 -142 70.5t-171 23.5q-156 0 -247 -61.5t-91 -161.5 q0 -61 36.5 -97t93 -54.5t150.5 -39.5q111 -23 177.5 -46t113.5 -74.5t47 -139.5q0 -150 -125 -235.5t-334 -85.5q-125 0 -238.5 38t-176.5 97z" />
<glyph unicode="t" horiz-adv-x="782" d="M150 221q0 41 8 80l200 1002h103l-47 -234h340l-17 -88h-340l-135 -672q-8 -39 -8 -76q0 -153 162 -153h2q98 0 174 59l31 -76q-87 -71 -226 -71h-4q-115 0 -179 60.5t-64 168.5z" />
<glyph unicode="u" horiz-adv-x="1445" d="M176 334q0 55 12 117l123 618h103l-123 -618q-10 -45 -10 -103q0 -127 74.5 -195.5t222.5 -68.5q184 0 305 103.5t159 299.5l117 582h103l-156 -774q-8 -33 -8 -70q0 -72 38 -108.5t113 -36.5q62 0 107 20l-10 -86q-49 -22 -117 -22h-6q-109 0 -169 60q-56 57 -55 149v12 q-154 -221 -448 -221q-180 0 -277.5 91t-97.5 251z" />
<glyph unicode="v" horiz-adv-x="1081" d="M113 1069h104l238 -956l618 956h109l-695 -1069h-104z" />
<glyph unicode="w" horiz-adv-x="2054" d="M156 334q0 57 12 119l119 616h98l-119 -614q-10 -49 -10 -109q0 -127 70.5 -194.5t212.5 -67.5q162 0 274.5 95t149.5 274l118 616h99l-119 -614q-12 -61 -12 -113q0 -125 71.5 -191.5t212.5 -66.5q168 0 278.5 101.5t149.5 295.5l115 588h96l-114 -600 q-45 -231 -186.5 -354t-346.5 -123q-150 0 -240 63.5t-114 175.5q-74 -121 -189.5 -180t-253.5 -59q-182 0 -277 92t-95 250z" />
<glyph unicode="x" horiz-adv-x="1062" d="M-61 0l538 553l-299 516h109l258 -446l432 446h121l-508 -524l317 -545h-110l-275 477l-461 -477h-122z" />
<glyph unicode="y" horiz-adv-x="1370" d="M76 -236l63 78q61 -76 157.5 -115.5t215.5 -39.5q199 0 304.5 100t150.5 328l24 129q-147 -205 -432 -205q-180 0 -277.5 91t-97.5 251q0 55 13 117l114 571h103l-115 -571q-10 -45 -10 -103q0 -127 74.5 -195.5t222.5 -68.5q184 0 305 103.5t160 300.5l106 534h103 l-193 -960q-53 -272 -188.5 -393.5t-374.5 -121.5q-133 0 -246 44.5t-182 125.5z" />
<glyph unicode="z" horiz-adv-x="1050" d="M-8 0l14 70l412 428h-230l17 86h297l383 397h-684l16 88h827l-14 -70l-403 -417h254l-19 -84h-317l-395 -410h710l-18 -88h-850z" />
<glyph unicode="{" horiz-adv-x="655" d="M123 518l18 88h72q47 0 73.5 24.5t37.5 80.5l116 579q23 117 95.5 173.5t203.5 56.5h66l-19 -88h-57q-156 0 -186 -150l-115 -569q-14 -70 -41 -105t-74 -49q59 -27 60 -98q0 -23 -6 -51l-107 -535q-6 -35 -6 -61q0 -61 34 -92t91 -31h61l-18 -88h-66q-96 0 -152.5 49 t-56.5 141q0 39 9 74l108 545q4 29 4 37q0 70 -73 69h-72z" />
<glyph unicode="|" horiz-adv-x="595" d="M63 -397l383 1917h97l-383 -1917h-97z" />
<glyph unicode="}" horiz-adv-x="655" d="M-139 -397l18 88h60q156 0 186 149l115 570q14 72 39.5 105.5t72.5 47.5q-59 27 -59 101q0 23 6 49l109 534q6 35 6 60q0 63 -34 94t-93 31h-60l17 88h67q96 0 151.5 -48.5t55.5 -142.5q0 -39 -8 -74l-109 -544q-4 -25 -4 -35q0 -72 74 -72h72l-19 -88h-69 q-49 0 -76 -24.5t-37 -79.5l-117 -580q-23 -117 -94.5 -173t-202.5 -56h-67z" />
<glyph unicode="~" d="M141 578q27 137 104 212.5t181 75.5q72 0 120 -30.5t101 -87.5q47 -49 82 -73t82 -24q78 0 133 55.5t78 149.5h74q-27 -137 -102.5 -212t-180.5 -75q-72 0 -120 31t-103 88q-47 49 -82 72.5t-82 23.5q-78 0 -133 -56t-76 -150h-76z" />
<glyph unicode="&#xa1;" horiz-adv-x="516" d="M29 -315l215 972h78l-175 -972h-118zM264 989q0 37 25.5 62.5t62.5 25.5q35 0 58.5 -23.5t23.5 -58.5t-25.5 -60.5t-60.5 -25.5t-59.5 23.5t-24.5 56.5z" />
<glyph unicode="&#xa2;" horiz-adv-x="1136" d="M92 436q0 182 78 327.5t216 228.5t312 85l47 238h76l-47 -240q236 -23 338 -198l-84 -52q-84 140 -272 158l-181 -899h7q106 0 199 41t155 115l72 -58q-70 -90 -185.5 -140t-249.5 -50h-16l-47 -238h-76l49 244q-182 25 -286.5 141.5t-104.5 296.5zM195 442 q0 -151 78.5 -242t228.5 -112l178 897q-139 -4 -250 -75.5t-173 -193.5t-62 -274z" />
<glyph unicode="&#xa3;" horiz-adv-x="1288" d="M-45 0l18 94h238l117 586h-240l16 74h238l41 207q47 242 210 362.5t408 120.5q129 0 232.5 -30t171.5 -89l-53 -84q-123 106 -357 107q-213 0 -340 -97.5t-168 -302.5l-38 -194h583l-14 -74h-584l-119 -586h826l-19 -94h-1167z" />
<glyph unicode="&#xa4;" horiz-adv-x="1433" d="M96 72l217 217q-68 74 -104.5 167t-36.5 193q0 102 37 195.5t104 167.5l-217 217l62 65l221 -219q76 61 168 94t192 33t192.5 -32.5t168.5 -92.5l219 217l63 -65l-217 -215q68 -74 106 -168t38 -197q0 -102 -38 -195.5t-106 -166.5l217 -215l-63 -66l-221 219 q-76 -57 -168 -90t-191 -33q-100 0 -191 33t-167 92l-223 -221zM260 649q0 -125 64.5 -229.5t175 -167t239.5 -62.5t241 62.5t177.5 168t65.5 228.5q0 125 -65.5 232.5t-177.5 170t-241 62.5t-239.5 -62.5t-175 -170t-64.5 -232.5z" />
<glyph unicode="&#xa5;" horiz-adv-x="1402" d="M131 289l14 69h467l43 213h-467l15 70h432l-447 793h111l428 -768l731 768h115l-752 -793h422l-14 -70h-467l-43 -213h467l-15 -69h-466l-58 -289h-106l57 289h-467z" />
<glyph unicode="&#xa6;" horiz-adv-x="595" d="M63 -397l144 716h96l-143 -716h-97zM303 803l143 717h97l-144 -717h-96z" />
<glyph unicode="&#xa7;" horiz-adv-x="987" d="M-59 -76l51 78q135 -129 338 -129q164 0 259 68.5t95 177.5q0 61 -36 100t-89 61.5t-141 47.5q-102 31 -167 58.5t-109 81.5t-44 142q0 100 66.5 182t181.5 119q-98 68 -98 195q0 96 58.5 173t163.5 120t241 43q106 0 206.5 -29t157.5 -78l-49 -75q-57 47 -142 71.5 t-179 24.5q-111 0 -194 -33t-126 -88t-43 -123q0 -63 35 -102t86 -59.5t143 -47.5q102 -27 167 -54.5t109 -82.5t44 -145q0 -106 -66.5 -186.5t-179.5 -117.5q98 -68 98 -192q0 -98 -57 -175t-161.5 -120t-242.5 -43q-117 0 -215 37t-161 100zM193 618q0 -61 35.5 -101 t88 -62.5t142.5 -48.5q94 -27 129 -41q117 25 181.5 90t64.5 157q0 66 -36 106t-89.5 61.5t-143.5 47.5q-74 18 -127 39q-115 -27 -180 -94t-65 -154z" />
<glyph unicode="&#xa8;" horiz-adv-x="1228" d="M531 1366q0 33 22.5 56.5t54.5 23.5q29 0 49.5 -19.5t20.5 -48.5q0 -33 -22.5 -56.5t-55.5 -23.5q-28 0 -48.5 19.5t-20.5 48.5zM885 1366q0 33 22.5 56.5t53.5 23.5q29 0 50 -19.5t21 -48.5q0 -33 -23.5 -56.5t-53.5 -23.5q-29 0 -49.5 19.5t-20.5 48.5z" />
<glyph unicode="&#xa9;" horiz-adv-x="1669" d="M147 717q0 199 95.5 364.5t261.5 262t368 96.5q203 0 368 -94.5t259 -259t94 -365.5t-96 -368t-262 -263t-367 -96q-200 0 -365 96t-260.5 262t-95.5 365zM209 717q0 -182 87 -335t238.5 -241t333.5 -88q185 0 336.5 89t239.5 242t88 337t-86 334.5t-236.5 237.5 t-337.5 87q-184 0 -336.5 -88t-239.5 -240.5t-87 -334.5zM463 717q0 125 55 222t151.5 151.5t217.5 54.5q100 0 183 -39t136 -111l-65 -51q-43 61 -109.5 92t-146.5 31q-96 0 -172 -44t-120 -124t-44 -182t44 -182t119.5 -124t172.5 -44q80 0 146.5 30.5t109.5 91.5l65 -49 q-53 -74 -136 -112.5t-183 -38.5q-121 0 -217.5 54t-151.5 151.5t-55 222.5z" />
<glyph unicode="&#xaa;" horiz-adv-x="815" d="M195 1036q0 96 74.5 149.5t203.5 53.5h248l8 41q6 29 6 49q0 66 -46 98.5t-130 32.5q-66 0 -131.5 -20.5t-112.5 -57.5l-28 58q53 39 129 62.5t155 23.5q117 0 180.5 -48t63.5 -143q0 -27 -6 -61l-78 -389h-78l21 102q-92 -109 -256 -108q-104 0 -163.5 43t-59.5 114z M272 1044q0 -106 162 -106q158 0 250 123l27 125h-240q-94 0 -146.5 -37t-52.5 -105z" />
<glyph unicode="&#xab;" horiz-adv-x="931" d="M109 535l374 385h105l-375 -388l215 -380h-98zM451 535l374 385h105l-375 -388l215 -380h-98z" />
<glyph unicode="&#xac;" d="M174 674l19 86h870l-90 -455h-92l73 369h-780z" />
<glyph unicode="&#xad;" horiz-adv-x="780" d="M121 504l18 92h527l-19 -92h-526z" />
<glyph unicode="&#xae;" horiz-adv-x="1669" d="M147 717q0 199 95.5 364.5t261.5 262t368 96.5q203 0 368 -94.5t259 -259t94 -365.5t-96 -368t-262 -263t-367 -96t-365.5 96t-260 262t-95.5 365zM209 717q0 -182 87 -335t238.5 -241t333.5 -88q185 0 336.5 89t239.5 242t88 337t-86 334.5t-236.5 237.5t-337.5 87 q-184 0 -336.5 -88t-239.5 -240.5t-87 -334.5zM596 297v840h315q147 0 234.5 -75t87.5 -200q0 -96 -51.5 -163.5t-143.5 -96.5l199 -305h-84l-188 291q-16 -2 -54 -2h-235v-289h-80zM674 655h231q119 0 184.5 54.5t65.5 152.5q0 96 -65.5 150.5t-184.5 54.5h-231v-412z" />
<glyph unicode="&#xaf;" horiz-adv-x="1228" d="M471 1327l15 74h602l-15 -74h-602z" />
<glyph unicode="&#xb0;" horiz-adv-x="858" d="M229 1124q0 88 43 161t116 115t161 42q86 0 159.5 -42t115.5 -115t42 -161q0 -86 -43 -158.5t-115.5 -115.5t-158.5 -43q-88 0 -161 43t-116 115.5t-43 158.5zM299 1124q0 -106 71.5 -179t178.5 -73q104 0 177 74t73 178q0 106 -72 179t-178 73t-178 -72.5t-72 -179.5z " />
<glyph unicode="&#xb1;" d="M41 0l16 88h871l-19 -88h-868zM182 711l17 88h389l76 377h92l-76 -377h391l-18 -88h-389l-76 -375h-92l75 375h-389z" />
<glyph unicode="&#xb2;" horiz-adv-x="880" d="M127 670l10 53l461 338q115 84 154.5 137.5t39.5 112.5q0 70 -56 107.5t-161 37.5q-174 0 -282 -98l-49 49q59 57 146 88t194 31q137 0 212.5 -56.5t75.5 -152.5q0 -74 -45 -139.5t-174 -159.5l-381 -278h531l-15 -70h-661z" />
<glyph unicode="&#xb3;" horiz-adv-x="880" d="M123 776l43 60q45 -47 120.5 -75t174.5 -28q137 0 215 53.5t78 149.5q0 74 -55.5 114t-162.5 40h-88l11 55l327 305h-516l15 70h628l-10 -53l-338 -314q129 -2 198.5 -59t69.5 -154q0 -129 -102 -202.5t-276 -73.5q-109 0 -198 31.5t-134 80.5z" />
<glyph unicode="&#xb4;" horiz-adv-x="1228" d="M635 1243l311 242h154l-348 -242h-117z" />
<glyph unicode="&#xb5;" horiz-adv-x="1382" d="M31 -397l293 1466h102l-123 -618q-10 -45 -10 -103q0 -127 74.5 -195.5t220.5 -68.5q184 0 306 103.5t161 299.5l114 582h103l-213 -1069h-98l40 203q-76 -106 -184 -158.5t-237 -52.5q-256 0 -334 174l-113 -563h-102z" />
<glyph unicode="&#xb6;" horiz-adv-x="1267" d="M170 1124q0 193 137 294.5t365 101.5h542l-344 -1725h-90l328 1641h-379l-326 -1641h-90l207 1034q-156 2 -253 80t-97 215z" />
<glyph unicode="&#xb7;" horiz-adv-x="491" d="M162 545q0 39 25.5 65.5t62.5 26.5q35 0 59.5 -24.5t24.5 -59.5q0 -39 -25.5 -65.5t-62.5 -26.5q-35 0 -59.5 24.5t-24.5 59.5z" />
<glyph unicode="&#xb8;" horiz-adv-x="1228" d="M228 -393l38 57q55 -43 136 -43q68 0 107.5 34t39.5 89q0 43 -30.5 66.5t-88.5 23.5h-39l84 178h68l-55 -121q68 -8 105.5 -46t37.5 -97q0 -84 -65.5 -138t-170.5 -54q-104 0 -167 51z" />
<glyph unicode="&#xb9;" horiz-adv-x="880" d="M203 670l12 68h260l143 714h-243l12 68h326l-156 -782h231l-14 -68h-571z" />
<glyph unicode="&#xba;" horiz-adv-x="843" d="M205 1157q0 102 51 187.5t141 133.5t203 48q137 0 220 -76t83 -201q0 -104 -50 -189t-140 -133t-203 -48q-137 0 -221 76.5t-84 201.5zM283 1159q0 -96 64.5 -153.5t170.5 -57.5q88 0 159 40t109.5 107.5t38.5 151.5q0 94 -64.5 152.5t-166.5 58.5q-90 0 -161 -40 t-110.5 -108.5t-39.5 -150.5z" />
<glyph unicode="&#xbb;" horiz-adv-x="931" d="M4 152l373 389l-213 379h96l221 -385l-375 -383h-102zM346 152l373 389l-213 379h96l221 -385l-375 -383h-102z" />
<glyph unicode="&#xbc;" horiz-adv-x="2099" d="M186 584l13 67h260l143 715h-244l13 68h325l-155 -783h231l-14 -67h-572zM410 0l1257 1434h97l-1258 -1434h-96zM1219 229l12 56l539 565h96l-528 -553h383l39 199h73l-39 -199h193l-14 -68h-193l-45 -229h-80l47 229h-483z" />
<glyph unicode="&#xbd;" horiz-adv-x="2099" d="M186 584l13 67h260l143 715h-244l13 68h325l-155 -783h231l-14 -67h-572zM410 0l1257 1434h97l-1258 -1434h-96zM1213 0l10 53l461 338q115 84 154.5 137.5t39.5 112.5q0 70 -56 107.5t-161 37.5q-174 0 -282 -98l-49 49q59 57 146 88t194 31q137 0 212.5 -56.5 t75.5 -152.5q0 -74 -45 -139.5t-174 -159.5l-381 -278h531l-15 -70h-661z" />
<glyph unicode="&#xbe;" horiz-adv-x="2099" d="M106 690l44 60q45 -47 120.5 -75t173.5 -28q137 0 215 53.5t78 149.5q0 74 -55 114t-162 40h-88l10 55l328 305h-516l14 70h629l-10 -54l-338 -313q129 -2 198.5 -59.5t69.5 -153.5q0 -129 -102.5 -202.5t-276.5 -73.5q-109 0 -197.5 31.5t-134.5 80.5zM410 0l1257 1434 h97l-1258 -1434h-96zM1219 229l12 56l539 565h96l-528 -553h383l39 199h73l-39 -199h193l-14 -68h-193l-45 -229h-80l47 229h-483z" />
<glyph unicode="&#xbf;" horiz-adv-x="1150" d="M63 -18q0 94 37 163.5t90.5 116.5t141.5 111q106 74 165.5 135t77.5 149h107q-20 -111 -87 -181t-185 -152q-82 -55 -130.5 -97.5t-80 -100.5t-31.5 -134q0 -104 82 -164.5t231 -60.5q143 0 251 41.5t190 128.5l67 -66q-186 -197 -520 -197q-190 0 -298 82t-108 226z M612 989q0 37 26 62.5t60 25.5q35 0 58.5 -23.5t23.5 -56.5q0 -37 -25.5 -62.5t-60.5 -25.5t-58.5 23.5t-23.5 56.5z" />
<glyph unicode="&#xc0;" horiz-adv-x="1642" d="M131 0l166 831q61 309 229 461t447 152q241 0 373.5 -121t132.5 -340q0 -88 -17 -164l-164 -819h-104l88 442h-958l-88 -442h-105zM344 537h956l58 284q16 88 16 154q0 182 -105.5 277.5t-303.5 95.5q-233 0 -372.5 -127t-191.5 -394zM756 1792h148l237 -242h-111z" />
<glyph unicode="&#xc1;" horiz-adv-x="1642" d="M131 0l166 831q61 309 229 461t447 152q241 0 373.5 -121t132.5 -340q0 -88 -17 -164l-164 -819h-104l88 442h-958l-88 -442h-105zM344 537h956l58 284q16 88 16 154q0 182 -105.5 277.5t-303.5 95.5q-233 0 -372.5 -127t-191.5 -394zM904 1550l311 242h153l-348 -242 h-116z" />
<glyph unicode="&#xc2;" horiz-adv-x="1642" d="M131 0l166 831q61 309 229 461t447 152q241 0 373.5 -121t132.5 -340q0 -88 -17 -164l-164 -819h-104l88 442h-958l-88 -442h-105zM344 537h956l58 284q16 88 16 154q0 182 -105.5 277.5t-303.5 95.5q-233 0 -372.5 -127t-191.5 -394zM709 1550l287 242h112l232 -242h-99 l-194 179l-232 -179h-106z" />
<glyph unicode="&#xc3;" horiz-adv-x="1642" d="M131 0l166 831q61 309 229 461t447 152q241 0 373.5 -121t132.5 -340q0 -88 -17 -164l-164 -819h-104l88 442h-958l-88 -442h-105zM344 537h956l58 284q16 88 16 154q0 182 -105.5 277.5t-303.5 95.5q-233 0 -372.5 -127t-191.5 -394zM729 1575q14 94 64.5 149.5 t124.5 55.5q43 0 74.5 -19.5t74.5 -58.5q33 -31 58.5 -47.5t54.5 -16.5q45 0 78 36t43 93h67q-16 -92 -65 -146t-123 -54q-45 0 -77 19.5t-75 58.5q-33 31 -58.5 47t-53.5 16q-45 0 -77 -36t-42 -97h-68z" />
<glyph unicode="&#xc4;" horiz-adv-x="1642" d="M131 0l166 831q61 309 229 461t447 152q241 0 373.5 -121t132.5 -340q0 -88 -17 -164l-164 -819h-104l88 442h-958l-88 -442h-105zM344 537h956l58 284q16 88 16 154q0 182 -105.5 277.5t-303.5 95.5q-233 0 -372.5 -127t-191.5 -394zM799 1673q0 33 22.5 56.5t55.5 23.5 q29 0 49.5 -19.5t20.5 -47.5q0 -33 -23 -56.5t-55 -23.5q-29 0 -49.5 19.5t-20.5 47.5zM1153 1673q0 33 22.5 56.5t53.5 23.5q29 0 50.5 -19.5t21.5 -47.5q0 -33 -23.5 -56.5t-54.5 -23.5q-29 0 -49.5 19.5t-20.5 47.5z" />
<glyph unicode="&#xc5;" horiz-adv-x="1642" d="M131 0l166 831q61 309 229 461t447 152q241 0 373.5 -121t132.5 -340q0 -88 -17 -164l-164 -819h-104l88 442h-958l-88 -442h-105zM344 537h956l58 284q16 88 16 154q0 182 -105.5 277.5t-303.5 95.5q-233 0 -372.5 -127t-191.5 -394zM868 1784q0 84 58.5 144.5 t144.5 60.5t145.5 -60.5t59.5 -144.5q0 -82 -58.5 -140t-146.5 -58q-86 0 -144.5 58t-58.5 140zM929 1784q0 -61 40 -101t102 -40q63 0 104 41t41 100q0 61 -42 103.5t-103 42.5t-101.5 -42t-40.5 -104z" />
<glyph unicode="&#xc6;" horiz-adv-x="2187" d="M109 0l163 823q57 293 235.5 452t448.5 159h1291l-19 -93h-856l-112 -569h763l-18 -88h-764l-117 -592h885l-18 -92h-990l93 463h-787l-94 -463h-104zM326 555h786l158 782h-320q-225 0 -374.5 -136t-198.5 -388z" />
<glyph unicode="&#xc7;" horiz-adv-x="1466" d="M137 580q0 233 106.5 431.5t303 315.5t459.5 117q166 0 296 -51.5t201 -145.5l-73 -67q-143 168 -433 168q-225 0 -397 -103.5t-265 -277.5t-93 -383q0 -229 145 -363.5t418 -134.5q295 0 473 172l63 -72q-94 -94 -236 -145t-308 -51q-209 0 -357.5 73.5t-225.5 206.5 t-77 310zM463 -393l38 57q55 -43 136 -43q68 0 107.5 34t39.5 89q0 43 -30.5 66.5t-88.5 23.5h-39l84 178h68l-55 -121q68 -8 105.5 -46t37.5 -97q0 -84 -65.5 -138t-170.5 -54q-104 0 -167 51z" />
<glyph unicode="&#xc8;" horiz-adv-x="1282" d="M84 338q0 154 101.5 260.5t273.5 138.5q-84 35 -130 104.5t-46 164.5q0 131 72.5 230t205.5 153.5t307 54.5q133 0 250 -30t203 -87l-43 -86q-172 111 -418 111q-141 0 -248.5 -43t-166 -120t-58.5 -179q0 -113 78 -174.5t219 -61.5h350l-20 -94h-357q-215 0 -341 -89 t-126 -241q0 -129 106.5 -198.5t309.5 -69.5q160 0 298 45t222 125l43 -82q-92 -84 -245.5 -132t-331.5 -48q-238 0 -373 92t-135 256zM631 1792h148l237 -242h-111z" />
<glyph unicode="&#xc9;" horiz-adv-x="1282" d="M84 338q0 154 101.5 260.5t273.5 138.5q-84 35 -130 104.5t-46 164.5q0 131 72.5 230t205.5 153.5t307 54.5q133 0 250 -30t203 -87l-43 -86q-172 111 -418 111q-141 0 -248.5 -43t-166 -120t-58.5 -179q0 -113 78 -174.5t219 -61.5h350l-20 -94h-357q-215 0 -341 -89 t-126 -241q0 -129 106.5 -198.5t309.5 -69.5q160 0 298 45t222 125l43 -82q-92 -84 -245.5 -132t-331.5 -48q-238 0 -373 92t-135 256zM779 1550l311 242h153l-348 -242h-116z" />
<glyph unicode="&#xca;" horiz-adv-x="1282" d="M84 338q0 154 101.5 260.5t273.5 138.5q-84 35 -130 104.5t-46 164.5q0 131 72.5 230t205.5 153.5t307 54.5q133 0 250 -30t203 -87l-43 -86q-172 111 -418 111q-141 0 -248.5 -43t-166 -120t-58.5 -179q0 -113 78 -174.5t219 -61.5h350l-20 -94h-357q-215 0 -341 -89 t-126 -241q0 -129 106.5 -198.5t309.5 -69.5q160 0 298 45t222 125l43 -82q-92 -84 -245.5 -132t-331.5 -48q-238 0 -373 92t-135 256zM584 1550l287 242h112l232 -242h-99l-194 179l-232 -179h-106z" />
<glyph unicode="&#xcb;" horiz-adv-x="1282" d="M84 338q0 154 101.5 260.5t273.5 138.5q-84 35 -130 104.5t-46 164.5q0 131 72.5 230t205.5 153.5t307 54.5q133 0 250 -30t203 -87l-43 -86q-172 111 -418 111q-141 0 -248.5 -43t-166 -120t-58.5 -179q0 -113 78 -174.5t219 -61.5h350l-20 -94h-357q-215 0 -341 -89 t-126 -241q0 -129 106.5 -198.5t309.5 -69.5q160 0 298 45t222 125l43 -82q-92 -84 -245.5 -132t-331.5 -48q-238 0 -373 92t-135 256zM674 1673q0 33 22.5 56.5t55.5 23.5q29 0 49.5 -19.5t20.5 -47.5q0 -33 -23 -56.5t-55 -23.5q-29 0 -49.5 19.5t-20.5 47.5zM1028 1673 q0 33 22.5 56.5t53.5 23.5q29 0 50.5 -19.5t21.5 -47.5q0 -33 -23.5 -56.5t-54.5 -23.5q-29 0 -49.5 19.5t-20.5 47.5z" />
<glyph unicode="&#xcc;" horiz-adv-x="890" d="M-14 0l16 92h303l248 1249h-299l18 93h707l-18 -93h-302l-249 -1249h301l-19 -92h-706zM379 1792h148l237 -242h-111z" />
<glyph unicode="&#xcd;" horiz-adv-x="890" d="M-14 0l16 92h303l248 1249h-299l18 93h707l-18 -93h-302l-249 -1249h301l-19 -92h-706zM527 1550l311 242h153l-348 -242h-116z" />
<glyph unicode="&#xce;" horiz-adv-x="890" d="M-14 0l16 92h303l248 1249h-299l18 93h707l-18 -93h-302l-249 -1249h301l-19 -92h-706zM332 1550l287 242h112l232 -242h-99l-194 179l-232 -179h-106z" />
<glyph unicode="&#xcf;" horiz-adv-x="890" d="M-14 0l16 92h303l248 1249h-299l18 93h707l-18 -93h-302l-249 -1249h301l-19 -92h-706zM422 1673q0 33 22.5 56.5t55.5 23.5q29 0 49.5 -19.5t20.5 -47.5q0 -33 -23 -56.5t-55 -23.5q-29 0 -49.5 19.5t-20.5 47.5zM776 1673q0 33 22.5 56.5t53.5 23.5q29 0 50.5 -19.5 t21.5 -47.5q0 -33 -23.5 -56.5t-54.5 -23.5q-29 0 -49.5 19.5t-20.5 47.5z" />
<glyph unicode="&#xd0;" horiz-adv-x="1697" d="M61 684l19 88h770l-19 -88h-770zM149 0l287 1434h533q211 0 361.5 -72t228 -203t77.5 -305q0 -248 -110.5 -442.5t-313 -303t-469.5 -108.5h-594zM272 94h477q236 0 413 96.5t272.5 268.5t95.5 391q0 227 -145.5 358t-428.5 131h-434z" />
<glyph unicode="&#xd1;" horiz-adv-x="1636" d="M143 0l287 1434h102l-53 -263q88 135 224.5 204t306.5 69q219 0 343 -113.5t124 -326.5q0 -80 -19 -173l-166 -831h-104l166 834q16 76 16 157q0 176 -98 266.5t-287 90.5q-219 0 -367.5 -124t-197.5 -370l-172 -854h-105zM731 1575q14 94 64.5 149.5t124.5 55.5 q43 0 74.5 -19.5t74.5 -58.5q33 -31 58.5 -47.5t54.5 -16.5q45 0 78 36t43 93h67q-16 -92 -65 -146t-123 -54q-45 0 -77 19.5t-75 58.5q-33 31 -58.5 47t-53.5 16q-45 0 -77 -36t-42 -97h-68z" />
<glyph unicode="&#xd2;" horiz-adv-x="1716" d="M137 580q0 233 105.5 430.5t301 315.5t451.5 118q207 0 355.5 -74t225.5 -207t77 -309q0 -233 -106.5 -431t-302 -315.5t-451.5 -117.5q-207 0 -354.5 73.5t-224.5 206.5t-77 310zM242 584q0 -227 145 -362.5t416 -135.5q219 0 389 103.5t262 278.5t92 382 q0 229 -144.5 363.5t-414.5 134.5q-219 0 -389 -103.5t-263 -278.5t-93 -382zM790 1792h148l237 -242h-111z" />
<glyph unicode="&#xd3;" horiz-adv-x="1716" d="M137 580q0 233 105.5 430.5t301 315.5t451.5 118q207 0 355.5 -74t225.5 -207t77 -309q0 -233 -106.5 -431t-302 -315.5t-451.5 -117.5q-207 0 -354.5 73.5t-224.5 206.5t-77 310zM242 584q0 -227 145 -362.5t416 -135.5q219 0 389 103.5t262 278.5t92 382 q0 229 -144.5 363.5t-414.5 134.5q-219 0 -389 -103.5t-263 -278.5t-93 -382zM938 1550l311 242h153l-348 -242h-116z" />
<glyph unicode="&#xd4;" horiz-adv-x="1716" d="M137 580q0 233 105.5 430.5t301 315.5t451.5 118q207 0 355.5 -74t225.5 -207t77 -309q0 -233 -106.5 -431t-302 -315.5t-451.5 -117.5q-207 0 -354.5 73.5t-224.5 206.5t-77 310zM242 584q0 -227 145 -362.5t416 -135.5q219 0 389 103.5t262 278.5t92 382 q0 229 -144.5 363.5t-414.5 134.5q-219 0 -389 -103.5t-263 -278.5t-93 -382zM743 1550l287 242h112l232 -242h-99l-194 179l-232 -179h-106z" />
<glyph unicode="&#xd5;" horiz-adv-x="1716" d="M137 580q0 233 105.5 430.5t301 315.5t451.5 118q207 0 355.5 -74t225.5 -207t77 -309q0 -233 -106.5 -431t-302 -315.5t-451.5 -117.5q-207 0 -354.5 73.5t-224.5 206.5t-77 310zM242 584q0 -227 145 -362.5t416 -135.5q219 0 389 103.5t262 278.5t92 382 q0 229 -144.5 363.5t-414.5 134.5q-219 0 -389 -103.5t-263 -278.5t-93 -382zM763 1575q14 94 64.5 149.5t124.5 55.5q43 0 74.5 -19.5t74.5 -58.5q33 -31 58.5 -47.5t54.5 -16.5q45 0 78 36t43 93h67q-16 -92 -65 -146t-123 -54q-45 0 -77 19.5t-75 58.5q-33 31 -58.5 47 t-53.5 16q-45 0 -77 -36t-42 -97h-68z" />
<glyph unicode="&#xd6;" horiz-adv-x="1716" d="M137 580q0 233 105.5 430.5t301 315.5t451.5 118q207 0 355.5 -74t225.5 -207t77 -309q0 -233 -106.5 -431t-302 -315.5t-451.5 -117.5q-207 0 -354.5 73.5t-224.5 206.5t-77 310zM242 584q0 -227 145 -362.5t416 -135.5q219 0 389 103.5t262 278.5t92 382 q0 229 -144.5 363.5t-414.5 134.5q-219 0 -389 -103.5t-263 -278.5t-93 -382zM833 1673q0 33 22.5 56.5t55.5 23.5q29 0 49.5 -19.5t20.5 -47.5q0 -33 -23 -56.5t-55 -23.5q-29 0 -49.5 19.5t-20.5 47.5zM1187 1673q0 33 22.5 56.5t53.5 23.5q29 0 50.5 -19.5t21.5 -47.5 q0 -33 -23.5 -56.5t-54.5 -23.5q-29 0 -49.5 19.5t-20.5 47.5z" />
<glyph unicode="&#xd7;" d="M254 442l305 279l-240 276l64 60l240 -279l305 279l55 -66l-305 -278l240 -277l-64 -59l-240 278l-305 -278z" />
<glyph unicode="&#xd8;" horiz-adv-x="1716" d="M52 -143l1589 1720h96l-1589 -1720h-96zM137 580q0 233 105.5 430.5t301 315.5t451.5 118q207 0 355.5 -74t225.5 -207t77 -309q0 -233 -106.5 -431t-302 -315.5t-451.5 -117.5q-207 0 -354.5 73.5t-224.5 206.5t-77 310zM242 584q0 -227 145 -362.5t416 -135.5 q219 0 389 103.5t262 278.5t92 382q0 229 -144.5 363.5t-414.5 134.5q-219 0 -389 -103.5t-263 -278.5t-93 -382z" />
<glyph unicode="&#xd9;" horiz-adv-x="1634" d="M233 430q0 80 19 172l166 832h104l-166 -834q-18 -88 -18 -162q0 -174 99.5 -263t285.5 -89q217 0 365.5 124t199.5 370l170 854h107l-287 -1434h-102l51 264q-88 -137 -223.5 -205.5t-305.5 -68.5q-217 0 -341 113.5t-124 326.5zM745 1792h148l237 -242h-111z" />
<glyph unicode="&#xda;" horiz-adv-x="1634" d="M233 430q0 80 19 172l166 832h104l-166 -834q-18 -88 -18 -162q0 -174 99.5 -263t285.5 -89q217 0 365.5 124t199.5 370l170 854h107l-287 -1434h-102l51 264q-88 -137 -223.5 -205.5t-305.5 -68.5q-217 0 -341 113.5t-124 326.5zM893 1550l311 242h153l-348 -242h-116z " />
<glyph unicode="&#xdb;" horiz-adv-x="1634" d="M233 430q0 80 19 172l166 832h104l-166 -834q-18 -88 -18 -162q0 -174 99.5 -263t285.5 -89q217 0 365.5 124t199.5 370l170 854h107l-287 -1434h-102l51 264q-88 -137 -223.5 -205.5t-305.5 -68.5q-217 0 -341 113.5t-124 326.5zM698 1550l287 242h112l232 -242h-99 l-194 179l-232 -179h-106z" />
<glyph unicode="&#xdc;" horiz-adv-x="1634" d="M233 430q0 80 19 172l166 832h104l-166 -834q-18 -88 -18 -162q0 -174 99.5 -263t285.5 -89q217 0 365.5 124t199.5 370l170 854h107l-287 -1434h-102l51 264q-88 -137 -223.5 -205.5t-305.5 -68.5q-217 0 -341 113.5t-124 326.5zM788 1673q0 33 22.5 56.5t55.5 23.5 q29 0 49.5 -19.5t20.5 -47.5q0 -33 -23 -56.5t-55 -23.5q-29 0 -49.5 19.5t-20.5 47.5zM1142 1673q0 33 22.5 56.5t53.5 23.5q29 0 50.5 -19.5t21.5 -47.5q0 -33 -23.5 -56.5t-54.5 -23.5q-29 0 -49.5 19.5t-20.5 47.5z" />
<glyph unicode="&#xdd;" horiz-adv-x="1613" d="M158 14l63 80q72 -106 182.5 -158.5t268.5 -52.5q227 0 374.5 130t198.5 393l45 225q-88 -133 -221 -199.5t-303 -66.5q-221 0 -345 114.5t-124 327.5q0 78 18 170l93 457h104l-92 -459q-16 -92 -17 -158q0 -176 99.5 -267t288.5 -91q217 0 365.5 124t199.5 371l96 480 h104l-206 -1035q-59 -303 -235.5 -457.5t-448.5 -154.5q-176 0 -305.5 58.5t-202.5 168.5zM885 1550l311 242h153l-348 -242h-116z" />
<glyph unicode="&#xde;" horiz-adv-x="1464" d="M143 0l287 1434h105l-39 -195h399q235 0 365.5 -103.5t130.5 -293.5q0 -272 -176.5 -420t-483.5 -148h-428l-55 -274h-105zM322 367h411q264 0 407.5 119.5t143.5 349.5q0 150 -102.5 229.5t-294.5 79.5h-410z" />
<glyph unicode="&#xdf;" horiz-adv-x="1353" d="M106 0l207 1030q51 254 197.5 376t366.5 122q176 0 278 -86t102 -236q0 -143 -81.5 -255.5t-214.5 -162.5q126 -26 198 -106t72 -207q0 -145 -69.5 -254.5t-194.5 -169t-285 -59.5q-59 0 -124.5 10t-104.5 27l30 88q84 -35 199 -35q203 0 324.5 105.5t121.5 285.5 q0 125 -89 189.5t-240 64.5h-119l18 88q205 2 332 104.5t127 278.5q0 113 -73.5 176.5t-213.5 63.5q-176 0 -293.5 -97.5t-160.5 -306.5l-207 -1034h-103z" />
<glyph unicode="&#xe0;" horiz-adv-x="1458" d="M92 436q0 182 78 328.5t216 229.5t310 83q166 0 274.5 -71.5t147.5 -202.5l53 266h103l-156 -774q-6 -37 -6 -68q0 -72 38 -109.5t112 -37.5q61 0 106 20l-8 -86q-55 -23 -125 -22q-111 0 -170 60.5t-55 164.5q-78 -109 -195 -167t-262 -58q-209 0 -335 119.5t-126 324.5 zM195 442q0 -170 99 -264t279 -94q144 0 257.5 69.5t179 193.5t65.5 280q0 170 -99 264t-280 94q-143 0 -256.5 -70.5t-179 -194.5t-65.5 -278zM537 1485h147l238 -242h-111z" />
<glyph unicode="&#xe1;" horiz-adv-x="1458" d="M92 436q0 182 78 328.5t216 229.5t310 83q166 0 274.5 -71.5t147.5 -202.5l53 266h103l-156 -774q-6 -37 -6 -68q0 -72 38 -109.5t112 -37.5q61 0 106 20l-8 -86q-55 -23 -125 -22q-111 0 -170 60.5t-55 164.5q-78 -109 -195 -167t-262 -58q-209 0 -335 119.5t-126 324.5 zM195 442q0 -170 99 -264t279 -94q144 0 257.5 69.5t179 193.5t65.5 280q0 170 -99 264t-280 94q-143 0 -256.5 -70.5t-179 -194.5t-65.5 -278zM684 1243l311 242h154l-348 -242h-117z" />
<glyph unicode="&#xe2;" horiz-adv-x="1458" d="M92 436q0 182 78 328.5t216 229.5t310 83q166 0 274.5 -71.5t147.5 -202.5l53 266h103l-156 -774q-6 -37 -6 -68q0 -72 38 -109.5t112 -37.5q61 0 106 20l-8 -86q-55 -23 -125 -22q-111 0 -170 60.5t-55 164.5q-78 -109 -195 -167t-262 -58q-209 0 -335 119.5t-126 324.5 zM195 442q0 -170 99 -264t279 -94q144 0 257.5 69.5t179 193.5t65.5 280q0 170 -99 264t-280 94q-143 0 -256.5 -70.5t-179 -194.5t-65.5 -278zM490 1243l286 242h113l231 -242h-98l-195 178l-231 -178h-106z" />
<glyph unicode="&#xe3;" horiz-adv-x="1458" d="M92 436q0 182 78 328.5t216 229.5t310 83q166 0 274.5 -71.5t147.5 -202.5l53 266h103l-156 -774q-6 -37 -6 -68q0 -72 38 -109.5t112 -37.5q61 0 106 20l-8 -86q-55 -23 -125 -22q-111 0 -170 60.5t-55 164.5q-78 -109 -195 -167t-262 -58q-209 0 -335 119.5t-126 324.5 zM195 442q0 -170 99 -264t279 -94q144 0 257.5 69.5t179 193.5t65.5 280q0 170 -99 264t-280 94q-143 0 -256.5 -70.5t-179 -194.5t-65.5 -278zM510 1268q14 94 64.5 149.5t123.5 55.5q43 0 75 -19.5t75 -58.5q33 -31 58.5 -47.5t54.5 -16.5q45 0 77.5 36t42.5 93h68 q-16 -92 -65.5 -146t-122.5 -54q-45 0 -77 19t-75 58q-33 31 -58.5 47.5t-54.5 16.5q-45 0 -76.5 -36t-41.5 -97h-68z" />
<glyph unicode="&#xe4;" horiz-adv-x="1458" d="M92 436q0 182 78 328.5t216 229.5t310 83q166 0 274.5 -71.5t147.5 -202.5l53 266h103l-156 -774q-6 -37 -6 -68q0 -72 38 -109.5t112 -37.5q61 0 106 20l-8 -86q-55 -23 -125 -22q-111 0 -170 60.5t-55 164.5q-78 -109 -195 -167t-262 -58q-209 0 -335 119.5t-126 324.5 zM195 442q0 -170 99 -264t279 -94q144 0 257.5 69.5t179 193.5t65.5 280q0 170 -99 264t-280 94q-143 0 -256.5 -70.5t-179 -194.5t-65.5 -278zM580 1366q0 33 22.5 56.5t54.5 23.5q29 0 49.5 -19.5t20.5 -48.5q0 -33 -22.5 -56.5t-55.5 -23.5q-28 0 -48.5 19.5t-20.5 48.5z M934 1366q0 33 22.5 56.5t53.5 23.5q29 0 50 -19.5t21 -48.5q0 -33 -23.5 -56.5t-53.5 -23.5q-29 0 -49.5 19.5t-20.5 48.5z" />
<glyph unicode="&#xe5;" horiz-adv-x="1458" d="M92 436q0 182 78 328.5t216 229.5t310 83q166 0 274.5 -71.5t147.5 -202.5l53 266h103l-156 -774q-6 -37 -6 -68q0 -72 38 -109.5t112 -37.5q61 0 106 20l-8 -86q-55 -23 -125 -22q-111 0 -170 60.5t-55 164.5q-78 -109 -195 -167t-262 -58q-209 0 -335 119.5t-126 324.5 zM195 442q0 -170 99 -264t279 -94q144 0 257.5 69.5t179 193.5t65.5 280q0 170 -99 264t-280 94q-143 0 -256.5 -70.5t-179 -194.5t-65.5 -278zM637 1419q0 84 58.5 144.5t144.5 60.5t145.5 -60.5t59.5 -144.5q0 -82 -58.5 -140t-146.5 -58q-86 0 -144.5 58t-58.5 140z M698 1419q0 -61 40 -101t102 -40q63 0 104 41t41 100q0 61 -42 103.5t-103 42.5t-101.5 -42t-40.5 -104z" />
<glyph unicode="&#xe6;" horiz-adv-x="2011" d="M72 264q0 154 117.5 242t330.5 88h377l16 76q10 55 11 90q0 111 -71 168t-208 57q-104 0 -205.5 -36t-175.5 -95l-39 78q84 68 200 106.5t234 38.5q156 0 245 -61.5t106 -173.5q80 111 199.5 173t258.5 62q207 0 330 -118.5t123 -331.5q0 -31 -2 -47l-938 -177 q10 -156 113.5 -237.5t287.5 -81.5q111 0 203 37t158 106l51 -71q-74 -78 -183.5 -121t-236.5 -43q-180 0 -299 75.5t-164 215.5q-68 -150 -193.5 -220.5t-279.5 -70.5q-172 0 -269 72.5t-97 199.5zM174 270q0 -94 68.5 -144t203.5 -50q154 0 267.5 88t146.5 250l21 100 h-367q-162 0 -251 -64.5t-89 -179.5zM981 483l842 160q2 160 -95.5 253t-265.5 93q-131 0 -238.5 -64.5t-172 -179t-70.5 -262.5z" />
<glyph unicode="&#xe7;" horiz-adv-x="1136" d="M92 436q0 182 79 328.5t219 229.5t317 83q143 0 245.5 -50t159.5 -150l-84 -52q-96 160 -328 160q-145 0 -259.5 -70.5t-180 -193.5t-65.5 -279q0 -170 100 -264t287 -94q106 0 199 41t155 115l72 -58q-70 -90 -185.5 -140t-249.5 -50q-221 0 -351 120.5t-130 323.5z M295 -397l38 57q55 -43 136 -43q68 0 107.5 34t39.5 89q0 43 -30.5 66.5t-88.5 23.5h-39l84 178h68l-55 -121q68 -8 105.5 -46t37.5 -97q0 -84 -65.5 -138t-170.5 -54q-104 0 -167 51z" />
<glyph unicode="&#xe8;" horiz-adv-x="1216" d="M92 440q0 180 76 325.5t209 228.5t299 83q211 0 332.5 -119.5t121.5 -334.5l-2 -43l-933 -177q10 -154 110.5 -236.5t282.5 -82.5q113 0 208 38t158 105l47 -71q-72 -78 -182 -121t-239 -43q-227 0 -357.5 118.5t-130.5 329.5zM193 483l841 160q2 162 -95 254t-265 92 q-133 0 -239.5 -64.5t-170 -179t-71.5 -262.5zM469 1485h147l238 -242h-111z" />
<glyph unicode="&#xe9;" horiz-adv-x="1216" d="M92 440q0 180 76 325.5t209 228.5t299 83q211 0 332.5 -119.5t121.5 -334.5l-2 -43l-933 -177q10 -154 110.5 -236.5t282.5 -82.5q113 0 208 38t158 105l47 -71q-72 -78 -182 -121t-239 -43q-227 0 -357.5 118.5t-130.5 329.5zM193 483l841 160q2 162 -95 254t-265 92 q-133 0 -239.5 -64.5t-170 -179t-71.5 -262.5zM616 1243l311 242h154l-348 -242h-117z" />
<glyph unicode="&#xea;" horiz-adv-x="1216" d="M92 440q0 180 76 325.5t209 228.5t299 83q211 0 332.5 -119.5t121.5 -334.5l-2 -43l-933 -177q10 -154 110.5 -236.5t282.5 -82.5q113 0 208 38t158 105l47 -71q-72 -78 -182 -121t-239 -43q-227 0 -357.5 118.5t-130.5 329.5zM193 483l841 160q2 162 -95 254t-265 92 q-133 0 -239.5 -64.5t-170 -179t-71.5 -262.5zM422 1243l286 242h113l231 -242h-98l-195 178l-231 -178h-106z" />
<glyph unicode="&#xeb;" horiz-adv-x="1216" d="M92 440q0 180 76 325.5t209 228.5t299 83q211 0 332.5 -119.5t121.5 -334.5l-2 -43l-933 -177q10 -154 110.5 -236.5t282.5 -82.5q113 0 208 38t158 105l47 -71q-72 -78 -182 -121t-239 -43q-227 0 -357.5 118.5t-130.5 329.5zM193 483l841 160q2 162 -95 254t-265 92 q-133 0 -239.5 -64.5t-170 -179t-71.5 -262.5zM512 1366q0 33 22.5 56.5t54.5 23.5q29 0 49.5 -19.5t20.5 -48.5q0 -33 -22.5 -56.5t-55.5 -23.5q-28 0 -48.5 19.5t-20.5 48.5zM866 1366q0 33 22.5 56.5t53.5 23.5q29 0 50 -19.5t21 -48.5q0 -33 -23.5 -56.5t-53.5 -23.5 q-29 0 -49.5 19.5t-20.5 48.5z" />
<glyph unicode="&#xec;" horiz-adv-x="534" d="M109 0l213 1069h102l-213 -1069h-102zM140 1485h147l238 -242h-111z" />
<glyph unicode="&#xed;" horiz-adv-x="534" d="M109 0l213 1069h102l-213 -1069h-102zM287 1243l311 242h154l-348 -242h-117z" />
<glyph unicode="&#xee;" horiz-adv-x="534" d="M109 0l213 1069h102l-213 -1069h-102zM144 1243l237 242h109l182 -242h-96l-146 176l-184 -176h-102z" />
<glyph unicode="&#xef;" horiz-adv-x="534" d="M109 0l213 1069h102l-213 -1069h-102zM234 1366q0 33 22.5 56.5t55.5 23.5q29 0 47 -19.5t18 -48.5q0 -33 -22.5 -56.5t-53.5 -23.5q-28 0 -47.5 19.5t-19.5 48.5zM490 1366q0 35 21.5 57.5t54.5 22.5q29 0 47 -19.5t18 -48.5q0 -33 -21.5 -56.5t-54.5 -23.5 q-26 0 -45.5 19.5t-19.5 48.5z" />
<glyph unicode="&#xf0;" horiz-adv-x="1284" d="M78 377q0 152 73.5 268.5t203.5 180t294 63.5q180 0 295 -92t127 -248q61 170 62 366q0 233 -134 351l-579 -232l-29 74l527 211q-104 49 -250 49q-76 0 -153 -12.5t-134 -32.5l-6 88q59 23 140 35t159 12q213 0 354 -94l209 84l29 -76l-166 -65q137 -143 137 -389 q0 -227 -84 -441.5t-246 -350.5t-385 -136q-133 0 -233.5 48t-155.5 136t-55 203zM180 385q0 -143 93.5 -224t258.5 -81q119 0 227.5 55t176.5 150.5t68 208.5q0 141 -94.5 223t-256.5 82q-139 0 -246.5 -52.5t-167 -145.5t-59.5 -216z" />
<glyph unicode="&#xf1;" horiz-adv-x="1378" d="M109 0l213 1069h100l-41 -203q76 106 189.5 158.5t252.5 52.5q183 0 281 -91t98 -251q0 -55 -12 -117l-123 -618h-102l122 618q10 47 11 103q0 127 -77 195.5t-224 68.5q-184 0 -307 -103.5t-162 -299.5l-117 -582h-102zM539 1268q14 94 64.5 149.5t123.5 55.5 q43 0 75 -19.5t75 -58.5q33 -31 58.5 -47.5t54.5 -16.5q45 0 77.5 36t42.5 93h68q-16 -92 -65.5 -146t-122.5 -54q-45 0 -77 19t-75 58q-33 31 -58.5 47.5t-54.5 16.5q-45 0 -76.5 -36t-41.5 -97h-68z" />
<glyph unicode="&#xf2;" horiz-adv-x="1269" d="M92 436q0 182 79 327.5t218 229.5t316 84q217 0 345 -119.5t128 -324.5q0 -182 -79 -328.5t-218.5 -229.5t-315.5 -83q-217 0 -345 120.5t-128 323.5zM195 442q0 -170 99 -264t279 -94q144 0 257.5 69.5t179 193.5t65.5 280q0 170 -99 264t-280 94q-143 0 -256.5 -70.5 t-179 -194.5t-65.5 -278zM506 1485h147l238 -242h-111z" />
<glyph unicode="&#xf3;" horiz-adv-x="1269" d="M92 436q0 182 79 327.5t218 229.5t316 84q217 0 345 -119.5t128 -324.5q0 -182 -79 -328.5t-218.5 -229.5t-315.5 -83q-217 0 -345 120.5t-128 323.5zM195 442q0 -170 99 -264t279 -94q144 0 257.5 69.5t179 193.5t65.5 280q0 170 -99 264t-280 94q-143 0 -256.5 -70.5 t-179 -194.5t-65.5 -278zM653 1243l311 242h154l-348 -242h-117z" />
<glyph unicode="&#xf4;" horiz-adv-x="1269" d="M92 436q0 182 79 327.5t218 229.5t316 84q217 0 345 -119.5t128 -324.5q0 -182 -79 -328.5t-218.5 -229.5t-315.5 -83q-217 0 -345 120.5t-128 323.5zM195 442q0 -170 99 -264t279 -94q144 0 257.5 69.5t179 193.5t65.5 280q0 170 -99 264t-280 94q-143 0 -256.5 -70.5 t-179 -194.5t-65.5 -278zM459 1243l286 242h113l231 -242h-98l-195 178l-231 -178h-106z" />
<glyph unicode="&#xf5;" horiz-adv-x="1269" d="M92 436q0 182 79 327.5t218 229.5t316 84q217 0 345 -119.5t128 -324.5q0 -182 -79 -328.5t-218.5 -229.5t-315.5 -83q-217 0 -345 120.5t-128 323.5zM195 442q0 -170 99 -264t279 -94q144 0 257.5 69.5t179 193.5t65.5 280q0 170 -99 264t-280 94q-143 0 -256.5 -70.5 t-179 -194.5t-65.5 -278zM479 1268q14 94 64.5 149.5t123.5 55.5q43 0 75 -19.5t75 -58.5q33 -31 58.5 -47.5t54.5 -16.5q45 0 77.5 36t42.5 93h68q-16 -92 -65.5 -146t-122.5 -54q-45 0 -77 19t-75 58q-33 31 -58.5 47.5t-54.5 16.5q-45 0 -76.5 -36t-41.5 -97h-68z" />
<glyph unicode="&#xf6;" horiz-adv-x="1269" d="M92 436q0 182 79 327.5t218 229.5t316 84q217 0 345 -119.5t128 -324.5q0 -182 -79 -328.5t-218.5 -229.5t-315.5 -83q-217 0 -345 120.5t-128 323.5zM195 442q0 -170 99 -264t279 -94q144 0 257.5 69.5t179 193.5t65.5 280q0 170 -99 264t-280 94q-143 0 -256.5 -70.5 t-179 -194.5t-65.5 -278zM549 1366q0 33 22.5 56.5t54.5 23.5q29 0 49.5 -19.5t20.5 -48.5q0 -33 -22.5 -56.5t-55.5 -23.5q-28 0 -48.5 19.5t-20.5 48.5zM903 1366q0 33 22.5 56.5t53.5 23.5q29 0 50 -19.5t21 -48.5q0 -33 -23.5 -56.5t-53.5 -23.5q-29 0 -49.5 19.5 t-20.5 48.5z" />
<glyph unicode="&#xf7;" d="M174 672l19 88h870l-16 -88h-873zM463 332q0 35 23.5 59.5t58.5 24.5q31 0 53.5 -22.5t22.5 -55.5q0 -35 -24 -59.5t-58 -24.5q-31 0 -53.5 22.5t-22.5 55.5zM614 1096q0 35 25 59.5t57 24.5q33 0 55.5 -21.5t22.5 -54.5q0 -35 -24.5 -60.5t-57.5 -25.5t-55.5 22.5 t-22.5 55.5z" />
<glyph unicode="&#xf8;" horiz-adv-x="1269" d="M5 -143l1173 1355h82l-1174 -1355h-81zM92 436q0 182 79 327.5t218 229.5t316 84q217 0 345 -119.5t128 -324.5q0 -182 -79 -328.5t-218.5 -229.5t-315.5 -83q-217 0 -345 120.5t-128 323.5zM195 442q0 -170 99 -264t279 -94q144 0 257.5 69.5t179 193.5t65.5 280 q0 170 -99 264t-280 94q-143 0 -256.5 -70.5t-179 -194.5t-65.5 -278z" />
<glyph unicode="&#xf9;" horiz-adv-x="1445" d="M176 334q0 55 12 117l123 618h103l-123 -618q-10 -45 -10 -103q0 -127 74.5 -195.5t222.5 -68.5q184 0 305 103.5t159 299.5l117 582h103l-156 -774q-8 -33 -8 -70q0 -72 38 -108.5t113 -36.5q62 0 107 20l-10 -86q-51 -23 -123 -22q-109 0 -168.5 60.5t-55.5 160.5 q-154 -221 -448 -221q-180 0 -277.5 91t-97.5 251zM553 1485h147l238 -242h-111z" />
<glyph unicode="&#xfa;" horiz-adv-x="1445" d="M176 334q0 55 12 117l123 618h103l-123 -618q-10 -45 -10 -103q0 -127 74.5 -195.5t222.5 -68.5q184 0 305 103.5t159 299.5l117 582h103l-156 -774q-8 -33 -8 -70q0 -72 38 -108.5t113 -36.5q62 0 107 20l-10 -86q-51 -23 -123 -22q-109 0 -168.5 60.5t-55.5 160.5 q-154 -221 -448 -221q-180 0 -277.5 91t-97.5 251zM700 1243l311 242h154l-348 -242h-117z" />
<glyph unicode="&#xfb;" horiz-adv-x="1445" d="M176 334q0 55 12 117l123 618h103l-123 -618q-10 -45 -10 -103q0 -127 74.5 -195.5t222.5 -68.5q184 0 305 103.5t159 299.5l117 582h103l-156 -774q-8 -33 -8 -70q0 -72 38 -108.5t113 -36.5q62 0 107 20l-10 -86q-51 -23 -123 -22q-109 0 -168.5 60.5t-55.5 160.5 q-154 -221 -448 -221q-180 0 -277.5 91t-97.5 251zM506 1243l286 242h113l231 -242h-98l-195 178l-231 -178h-106z" />
<glyph unicode="&#xfc;" horiz-adv-x="1445" d="M176 334q0 55 12 117l123 618h103l-123 -618q-10 -45 -10 -103q0 -127 74.5 -195.5t222.5 -68.5q184 0 305 103.5t159 299.5l117 582h103l-156 -774q-8 -33 -8 -70q0 -72 38 -108.5t113 -36.5q62 0 107 20l-10 -86q-51 -23 -123 -22q-109 0 -168.5 60.5t-55.5 160.5 q-154 -221 -448 -221q-180 0 -277.5 91t-97.5 251zM596 1366q0 33 22.5 56.5t54.5 23.5q29 0 49.5 -19.5t20.5 -48.5q0 -33 -22.5 -56.5t-55.5 -23.5q-28 0 -48.5 19.5t-20.5 48.5zM950 1366q0 33 22.5 56.5t53.5 23.5q29 0 50 -19.5t21 -48.5q0 -33 -23.5 -56.5 t-53.5 -23.5q-29 0 -49.5 19.5t-20.5 48.5z" />
<glyph unicode="&#xfd;" horiz-adv-x="1370" d="M76 -236l63 78q61 -76 157.5 -115.5t215.5 -39.5q199 0 304.5 100t150.5 328l24 129q-147 -205 -432 -205q-180 0 -277.5 91t-97.5 251q0 55 13 117l114 571h103l-115 -571q-10 -45 -10 -103q0 -127 74.5 -195.5t222.5 -68.5q184 0 305 103.5t160 300.5l106 534h103 l-193 -960q-53 -272 -188.5 -393.5t-374.5 -121.5q-133 0 -246 44.5t-182 125.5zM700 1243l311 242h154l-348 -242h-117z" />
<glyph unicode="&#xfe;" horiz-adv-x="1382" d="M29 -397l383 1917h102l-129 -652q78 100 191.5 154.5t252.5 54.5q209 0 336 -119.5t127 -324.5q0 -182 -78.5 -328.5t-217 -229.5t-310.5 -83q-166 0 -273.5 70.5t-148.5 203.5l-133 -663h-102zM307 442q0 -170 100.5 -264t280.5 -94q143 0 257 70.5t178.5 193.5 t64.5 279q0 170 -99.5 264t-279.5 94q-143 0 -257 -69.5t-179.5 -193.5t-65.5 -280z" />
<glyph unicode="&#xff;" horiz-adv-x="1370" d="M76 -236l63 78q61 -76 157.5 -115.5t215.5 -39.5q199 0 304.5 100t150.5 328l24 129q-147 -205 -432 -205q-180 0 -277.5 91t-97.5 251q0 55 13 117l114 571h103l-115 -571q-10 -45 -10 -103q0 -127 74.5 -195.5t222.5 -68.5q184 0 305 103.5t160 300.5l106 534h103 l-193 -960q-53 -272 -188.5 -393.5t-374.5 -121.5q-133 0 -246 44.5t-182 125.5zM596 1366q0 33 22.5 56.5t54.5 23.5q29 0 49.5 -19.5t20.5 -48.5q0 -33 -22.5 -56.5t-55.5 -23.5q-28 0 -48.5 19.5t-20.5 48.5zM950 1366q0 33 22.5 56.5t53.5 23.5q29 0 50 -19.5t21 -48.5 q0 -33 -23.5 -56.5t-53.5 -23.5q-29 0 -49.5 19.5t-20.5 48.5z" />
<glyph unicode="&#x131;" horiz-adv-x="534" d="M109 0l213 1069h102l-213 -1069h-102z" />
<glyph unicode="&#x152;" horiz-adv-x="2287" d="M137 580q0 248 109.5 442.5t312.5 303t469 108.5h1278l-18 -95h-854l-113 -565h764l-19 -92h-763l-117 -588h882l-18 -94h-1245q-211 0 -361.5 71.5t-228.5 203t-78 305.5zM242 584q0 -227 146.5 -358.5t426.5 -131.5h264l250 1245h-305q-236 0 -413 -97t-273 -268 t-96 -390z" />
<glyph unicode="&#x153;" horiz-adv-x="2189" d="M92 442q0 178 78 323.5t217 228.5t313 83t291 -81t156 -228q74 143 206 226t296 83q204 0 327 -118.5t123 -331.5q0 -31 -2 -47l-934 -177q12 -156 111.5 -237.5t281.5 -81.5q113 0 209.5 38t157.5 105l49 -71q-72 -78 -183.5 -121t-238.5 -43q-184 0 -304 82t-159 233 q-76 -147 -214 -231t-314 -84q-213 0 -340 122t-127 328zM195 444q0 -172 99 -266t277 -94q146 0 260.5 70.5t179 193.5t64.5 277q0 172 -98 266t-277 94q-145 0 -260.5 -70.5t-180 -193.5t-64.5 -277zM1161 483l842 160q2 160 -95.5 253t-262.5 93q-134 0 -241.5 -65.5 t-172 -180t-70.5 -260.5z" />
<glyph unicode="&#x178;" horiz-adv-x="1613" d="M158 14l63 80q72 -106 182.5 -158.5t268.5 -52.5q227 0 374.5 130t198.5 393l45 225q-88 -133 -221 -199.5t-303 -66.5q-221 0 -345 114.5t-124 327.5q0 78 18 170l93 457h104l-92 -459q-16 -92 -17 -158q0 -176 99.5 -267t288.5 -91q217 0 365.5 124t199.5 371l96 480 h104l-206 -1035q-59 -303 -235.5 -457.5t-448.5 -154.5q-176 0 -305.5 58.5t-202.5 168.5zM780 1673q0 33 22.5 56.5t55.5 23.5q29 0 49.5 -19.5t20.5 -47.5q0 -33 -23 -56.5t-55 -23.5q-29 0 -49.5 19.5t-20.5 47.5zM1134 1673q0 33 22.5 56.5t53.5 23.5q29 0 50.5 -19.5 t21.5 -47.5q0 -33 -23.5 -56.5t-54.5 -23.5q-29 0 -49.5 19.5t-20.5 47.5z" />
<glyph unicode="&#x192;" horiz-adv-x="878" d="M-350 -332l59 74q55 -59 156 -59q90 0 158.5 55t101.5 160l348 1073h-197l27 88h197l57 174q45 141 141.5 218t235.5 77q63 0 116.5 -18.5t84.5 -53.5l-62 -76q-23 29 -62.5 44.5t-88.5 15.5q-94 0 -162 -55.5t-105 -159.5l-53 -166h342l-26 -88h-340l-355 -1088 q-43 -137 -135 -213t-225 -76q-68 0 -124 19.5t-89 54.5z" />
<glyph unicode="&#x2c6;" horiz-adv-x="1228" d="M441 1243l286 242h113l231 -242h-98l-195 178l-231 -178h-106z" />
<glyph unicode="&#x2c7;" horiz-adv-x="1228" d="M486 1485h98l194 -178l230 178h108l-286 -242h-113z" />
<glyph unicode="&#x2d8;" horiz-adv-x="1228" d="M506 1485h76q-4 -84 51 -133t150 -49q90 0 156.5 50t78.5 132h78q-16 -115 -105.5 -182.5t-214.5 -67.5q-122 0 -200 68.5t-70 181.5z" />
<glyph unicode="&#x2d9;" horiz-adv-x="1228" d="M703 1372q0 37 24.5 62.5t59.5 25.5q33 0 54 -21.5t21 -52.5q0 -37 -24.5 -61.5t-59.5 -24.5q-32 0 -53.5 20.5t-21.5 51.5z" />
<glyph unicode="&#x2da;" horiz-adv-x="1228" d="M588 1419q0 84 58.5 144.5t144.5 60.5t145.5 -60.5t59.5 -144.5q0 -82 -58.5 -140t-146.5 -58q-86 0 -144.5 58t-58.5 140zM649 1419q0 -61 40 -101t102 -40q63 0 104 41t41 100q0 61 -42 103.5t-103 42.5t-101.5 -42t-40.5 -104z" />
<glyph unicode="&#x2db;" horiz-adv-x="1228" d="M119 -289q0 201 348 338l43 -49q-309 -119 -309 -276q0 -49 29.5 -75t83.5 -26q78 0 141 45l20 -61q-80 -51 -176 -51q-82 0 -131 42t-49 113z" />
<glyph unicode="&#x2dc;" horiz-adv-x="1228" d="M461 1268q14 94 64.5 149.5t123.5 55.5q43 0 75 -19.5t75 -58.5q33 -31 58.5 -47.5t54.5 -16.5q45 0 77.5 36t42.5 93h68q-16 -92 -65.5 -146t-122.5 -54q-45 0 -77 19t-75 58q-33 31 -58.5 47.5t-54.5 16.5q-45 0 -76.5 -36t-41.5 -97h-68z" />
<glyph unicode="&#x2dd;" horiz-adv-x="1228" d="M547 1243l236 242h129l-261 -242h-104zM860 1243l236 242h129l-262 -242h-103z" />
<glyph unicode="&#x3a9;" horiz-adv-x="1853" d="M-86 0l18 94h533q-137 109 -196.5 238t-59.5 313q0 238 107.5 419t299 280.5t435.5 99.5q203 0 354 -68.5t234 -201t83 -314.5q0 -279 -140 -473t-343 -293h506l-19 -94h-679l18 88q240 94 395.5 287.5t155.5 478.5q0 238 -152.5 366t-419.5 128q-217 0 -382.5 -88.5 t-258 -249t-92.5 -371.5q0 -190 71 -318t230 -233l-18 -88h-680z" />
<glyph unicode="&#x3c0;" horiz-adv-x="1474" d="M33 705q0 162 110.5 263t323.5 101h1098l-19 -88h-344l-194 -981h-103l195 981h-420l-309 -981h-103l310 981h-121q-162 0 -246 -76t-84 -196q0 -68 33 -134l-84 -30q-43 74 -43 160z" />
<glyph unicode="&#x400;" horiz-adv-x="1282" d="M84 338q0 154 101.5 260.5t273.5 138.5q-84 35 -130 104.5t-46 164.5q0 131 72.5 230t205.5 153.5t307 54.5q133 0 250 -30t203 -87l-43 -86q-172 111 -418 111q-141 0 -248.5 -43t-166 -120t-58.5 -179q0 -113 78 -174.5t219 -61.5h350l-20 -94h-357q-215 0 -341 -89 t-126 -241q0 -129 106.5 -198.5t309.5 -69.5q160 0 298 45t222 125l43 -82q-92 -84 -245.5 -132t-331.5 -48q-238 0 -373 92t-135 256zM631 1792h148l237 -242h-111z" />
<glyph unicode="&#x401;" horiz-adv-x="1282" d="M84 338q0 154 101.5 260.5t273.5 138.5q-84 35 -130 104.5t-46 164.5q0 131 72.5 230t205.5 153.5t307 54.5q133 0 250 -30t203 -87l-43 -86q-172 111 -418 111q-141 0 -248.5 -43t-166 -120t-58.5 -179q0 -113 78 -174.5t219 -61.5h350l-20 -94h-357q-215 0 -341 -89 t-126 -241q0 -129 106.5 -198.5t309.5 -69.5q160 0 298 45t222 125l43 -82q-92 -84 -245.5 -132t-331.5 -48q-238 0 -373 92t-135 256zM674 1673q0 33 22.5 56.5t55.5 23.5q29 0 49.5 -19.5t20.5 -47.5q0 -33 -23 -56.5t-55 -23.5q-29 0 -49.5 19.5t-20.5 47.5zM1028 1673 q0 33 22.5 56.5t53.5 23.5q29 0 50.5 -19.5t21.5 -47.5q0 -33 -23.5 -56.5t-54.5 -23.5q-29 0 -49.5 19.5t-20.5 47.5z" />
<glyph unicode="&#x402;" horiz-adv-x="1677" d="M182 1339l21 95h1173l-20 -95h-553l-117 -581q258 100 465 100q197 0 309.5 -90t112.5 -254q0 -150 -74 -269.5t-201 -186t-278 -66.5q-80 0 -170 22l27 88q72 -18 139 -18q123 0 226.5 55.5t163.5 151.5t60 217q0 127 -87 193.5t-242 66.5q-203 0 -469 -109l-131 -659 h-105l266 1339h-516z" />
<glyph unicode="&#x403;" d="M152 0l286 1434h887l-20 -95h-783l-266 -1339h-104zM768 1550l311 242h153l-348 -242h-116z" />
<glyph unicode="&#x404;" horiz-adv-x="1449" d="M156 586q0 233 121 431t320.5 312.5t426.5 114.5q162 0 288 -50t200 -148l-80 -70q-141 172 -424 172q-170 0 -324.5 -79t-262 -216t-142.5 -307h782l-16 -88h-778q-2 -18 -2 -53q0 -150 61 -267.5t173 -184.5t257 -67q281 0 492 172l53 -67q-113 -98 -259.5 -149.5 t-307.5 -51.5q-173 0 -304 77t-202.5 212t-71.5 307z" />
<glyph unicode="&#x405;" horiz-adv-x="1267" d="M49 180l55 80q66 -78 194 -128t265 -50q207 0 331 84t124 233q0 78 -46.5 127t-115 78t-185.5 62q-135 41 -217 75.5t-138 102t-56 176.5q0 131 71.5 227t196.5 146.5t287 50.5q125 0 238.5 -33t193.5 -92l-49 -86q-76 57 -176.5 88t-210.5 31q-201 0 -324 -86t-123 -236 q0 -80 47 -131t116 -79.5t190 -63.5q135 -41 214.5 -75t135 -99.5t55.5 -169.5q0 -201 -157.5 -311.5t-409.5 -110.5q-156 0 -297.5 54t-208.5 136z" />
<glyph unicode="&#x406;" horiz-adv-x="604" d="M143 0l287 1434h105l-287 -1434h-105z" />
<glyph unicode="&#x407;" horiz-adv-x="604" d="M143 0l287 1434h105l-287 -1434h-105zM278 1673q0 33 22.5 56.5t55.5 23.5q29 0 49.5 -19.5t20.5 -47.5q0 -33 -23 -56.5t-55 -23.5q-29 0 -49.5 19.5t-20.5 47.5zM632 1673q0 33 22.5 56.5t53.5 23.5q29 0 50.5 -19.5t21.5 -47.5q0 -33 -23.5 -56.5t-54.5 -23.5 q-29 0 -49.5 19.5t-20.5 47.5z" />
<glyph unicode="&#x408;" horiz-adv-x="1005" d="M-111 -10l78 65q39 -82 117 -129t182 -47q135 0 216 77t118 257l225 1126h-528l18 95h633l-246 -1227q-45 -227 -151.5 -324.5t-290.5 -97.5q-131 0 -228.5 55.5t-142.5 149.5z" />
<glyph unicode="&#x409;" horiz-adv-x="2433" d="M-86 0l23 94q25 -6 63 -6q96 0 171 74t138.5 232.5t124.5 420.5l146 619h901l-2 -2l-129 -646q225 178 503 179q226 0 348.5 -110t122.5 -308q0 -168 -83.5 -296t-235.5 -198.5t-350 -70.5q-231 0 -355 102t-124 289q0 59 12 127l168 839h-703l-125 -530 q-70 -295 -142.5 -473t-161.5 -263t-208 -85q-47 0 -102 12zM1280 389q0 -152 99.5 -233.5t285.5 -81.5q164 0 289 57t193.5 161.5t68.5 242.5q0 164 -100.5 251.5t-286.5 87.5q-274 0 -502 -192l-37 -188q-10 -61 -10 -105z" />
<glyph unicode="&#x40a;" horiz-adv-x="2406" d="M152 0l286 1434h105l-123 -603h885l120 603h105l-121 -600h465q197 0 311.5 -92.5t114.5 -249.5q0 -152 -75 -267.5t-211 -180t-314 -64.5q-223 0 -353 99t-130 267q0 47 8 86l61 307h-883l-147 -739h-104zM1321 352q0 -133 103.5 -209.5t283.5 -76.5q145 0 255 52 t170 147t60 218t-95 194t-265 71h-440l-66 -326q-6 -37 -6 -70z" />
<glyph unicode="&#x40b;" horiz-adv-x="1699" d="M180 1339l21 95h1169l-18 -95h-551l-117 -585q264 102 469 102q195 0 304.5 -86t109.5 -252q0 -61 -11 -110l-81 -408h-105l80 406q10 55 10 92q0 129 -85 196.5t-242 67.5q-201 0 -471 -113l-130 -649h-104l268 1339h-516z" />
<glyph unicode="&#x40c;" horiz-adv-x="1421" d="M152 0l286 1434h105l-131 -660h340l647 660h123l-695 -703l439 -731h-113l-410 680h-352l-135 -680h-104zM791 1550l311 242h153l-348 -242h-116z" />
<glyph unicode="&#x40d;" horiz-adv-x="1624" d="M217 430q0 80 19 172l166 832h104l-166 -834q-18 -88 -18 -162q0 -174 99.5 -263t285.5 -89q217 0 365.5 124t199.5 370l170 854h107l-287 -1434h-102l51 264q-88 -137 -223.5 -205.5t-305.5 -68.5q-217 0 -341 113.5t-124 326.5zM729 1792h148l237 -242h-111z" />
<glyph unicode="&#x40e;" horiz-adv-x="1613" d="M158 14l63 80q72 -106 182.5 -158.5t268.5 -52.5q227 0 374.5 130t198.5 393l45 225q-88 -133 -221 -199.5t-303 -66.5q-221 0 -345 114.5t-124 327.5q0 78 18 170l93 457h104l-92 -459q-16 -92 -17 -158q0 -176 99.5 -267t288.5 -91q217 0 365.5 124t199.5 371l96 480 h104l-206 -1035q-59 -303 -235.5 -457.5t-448.5 -154.5q-176 0 -305.5 58.5t-202.5 168.5zM713 1751q0 12 4 41h75q-2 -10 -2 -27q0 -72 54.5 -114.5t146.5 -42.5q98 0 171 50t93 134h78q-25 -117 -117 -183.5t-227 -66.5q-127 0 -201.5 56.5t-74.5 152.5z" />
<glyph unicode="&#x40f;" horiz-adv-x="1648" d="M152 0l286 1434h105l-269 -1340h924l266 1340h107l-287 -1434h-518l-68 -346h-100l70 346h-516z" />
<glyph unicode="&#x410;" horiz-adv-x="1642" d="M131 0l166 831q61 309 229 461t447 152q241 0 373.5 -121t132.5 -340q0 -88 -17 -164l-164 -819h-104l88 442h-958l-88 -442h-105zM344 537h956l58 284q16 88 16 154q0 182 -105.5 277.5t-303.5 95.5q-233 0 -372.5 -127t-191.5 -394z" />
<glyph unicode="&#x411;" horiz-adv-x="1484" d="M152 0l286 1434h1022l-18 -93h-920l-102 -516h485q444 0 445 -354q0 -221 -168 -346t-467 -125h-563zM272 88h461q240 0 374 99.5t134 279.5q0 141 -91 206.5t-288 65.5h-459z" />
<glyph unicode="&#x412;" horiz-adv-x="1540" d="M143 0l287 1434h594q203 0 316.5 -77t113.5 -222q0 -154 -86 -255.5t-229 -142.5q123 -26 188.5 -101t65.5 -194q0 -213 -160 -327.5t-445 -114.5h-645zM266 90h533q235 0 362 90t127 258q0 129 -90 186.5t-272 57.5h-541zM401 772h490q205 0 330 89t125 257 q0 113 -88.5 169t-251.5 56h-490z" />
<glyph unicode="&#x413;" d="M152 0l286 1434h887l-20 -95h-783l-266 -1339h-104z" />
<glyph unicode="&#x414;" horiz-adv-x="1689" d="M-92 -328l86 422h180l148 737q61 309 229 461t446 152q242 0 373 -120t131 -339q0 -86 -16 -166l-144 -725h183l-86 -422h-99l66 328h-1329l-68 -328h-100zM279 94h956l145 727q16 74 17 156q0 180 -105.5 275.5t-302.5 95.5q-233 0 -372.5 -127t-192.5 -394z" />
<glyph unicode="&#x415;" horiz-adv-x="1282" d="M84 338q0 154 101.5 260.5t273.5 138.5q-84 35 -130 104.5t-46 164.5q0 131 72.5 230t205.5 153.5t307 54.5q133 0 250 -30t203 -87l-43 -86q-172 111 -418 111q-141 0 -248.5 -43t-166 -120t-58.5 -179q0 -113 78 -174.5t219 -61.5h350l-20 -94h-357q-215 0 -341 -89 t-126 -241q0 -129 106.5 -198.5t309.5 -69.5q160 0 298 45t222 125l43 -82q-92 -84 -245.5 -132t-331.5 -48q-238 0 -373 92t-135 256z" />
<glyph unicode="&#x416;" horiz-adv-x="2039" d="M-53 0l659 739l-330 695h115l307 -660h320l131 660h102l-131 -660h316l569 660h121l-613 -699l363 -735h-121l-338 680h-317l-135 -680h-103l135 680h-313l-608 -680h-129z" />
<glyph unicode="&#x417;" horiz-adv-x="1292" d="M4 184l57 74q78 -88 193 -132t244 -44q133 0 252.5 46t192.5 131t73 198q0 119 -90 181t-262 62h-297l16 91h297q182 0 292.5 83.5t110.5 219.5q0 125 -98 193.5t-254 68.5q-102 0 -215 -31t-219 -92l-21 88q117 63 237 96t232 33q195 0 321 -91t126 -251 q0 -129 -86 -226.5t-234 -133.5q119 -31 183.5 -109t64.5 -193q0 -135 -89 -240.5t-233.5 -162.5t-301.5 -57q-145 0 -274.5 50t-217.5 148z" />
<glyph unicode="&#x418;" horiz-adv-x="1624" d="M217 430q0 80 19 172l166 832h104l-166 -834q-18 -88 -18 -162q0 -174 99.5 -263t285.5 -89q217 0 365.5 124t199.5 370l170 854h107l-287 -1434h-102l51 264q-88 -137 -223.5 -205.5t-305.5 -68.5q-217 0 -341 113.5t-124 326.5z" />
<glyph unicode="&#x419;" horiz-adv-x="1624" d="M217 430q0 80 19 172l166 832h104l-166 -834q-18 -88 -18 -162q0 -174 99.5 -263t285.5 -89q217 0 365.5 124t199.5 370l170 854h107l-287 -1434h-102l51 264q-88 -137 -223.5 -205.5t-305.5 -68.5q-217 0 -341 113.5t-124 326.5zM725 1751q0 12 4 41h75q-2 -10 -2 -27 q0 -72 54.5 -114.5t146.5 -42.5q98 0 171 50t93 134h78q-25 -117 -117 -183.5t-227 -66.5q-127 0 -201.5 56.5t-74.5 152.5z" />
<glyph unicode="&#x41a;" horiz-adv-x="1421" d="M152 0l286 1434h105l-131 -660h340l647 660h123l-695 -703l439 -731h-113l-410 680h-352l-135 -680h-104z" />
<glyph unicode="&#x41b;" horiz-adv-x="1605" d="M-18 0l18 94h172l145 737q63 309 227.5 461t432.5 152q233 0 362 -120t129 -337q0 -78 -18 -168l-164 -819h-104l164 821q16 92 16 158q0 180 -101.5 274.5t-289.5 94.5q-227 0 -362.5 -127t-188.5 -394l-164 -827h-274z" />
<glyph unicode="&#x41c;" horiz-adv-x="1974" d="M152 0l286 1434h86l428 -1108l850 1108h92l-286 -1434h-103l244 1219l-793 -1029h-51l-405 1043l-246 -1233h-102z" />
<glyph unicode="&#x41d;" horiz-adv-x="1683" d="M151 0l287 1434h105l-132 -658h959l131 658h104l-286 -1434h-105l135 680h-958l-135 -680h-105z" />
<glyph unicode="&#x41e;" horiz-adv-x="1767" d="M164 580q0 233 105.5 430.5t301 315.5t451.5 118q207 0 355.5 -74t225.5 -207t77 -309q0 -233 -106.5 -431t-302 -315.5t-451.5 -117.5q-207 0 -354.5 73.5t-224.5 206.5t-77 310zM269 584q0 -227 145 -362.5t416 -135.5q219 0 389 103.5t262 278.5t92 382 q0 229 -144.5 363.5t-414.5 134.5q-219 0 -389 -103.5t-263 -278.5t-93 -382z" />
<glyph unicode="&#x41f;" horiz-adv-x="1695" d="M152 0l286 1434h1180l-287 -1434h-104l266 1339h-971l-266 -1339h-104z" />
<glyph unicode="&#x420;" horiz-adv-x="1468" d="M121 0l184 930q51 252 211 383t418 131q246 0 378 -118t132 -337q0 -176 -84 -311t-234.5 -211t-343.5 -76q-276 0 -448 162l-111 -553h-102zM354 655q70 -86 179.5 -130t244.5 -44q164 0 291 63.5t197.5 177.5t70.5 261q0 176 -104.5 269.5t-302.5 93.5 q-213 0 -348.5 -110t-173.5 -314z" />
<glyph unicode="&#x421;" horiz-adv-x="1503" d="M164 580q0 233 106.5 431.5t303 315.5t459.5 117q166 0 296 -51.5t201 -145.5l-73 -67q-143 168 -433 168q-225 0 -397 -103.5t-265 -277.5t-93 -383q0 -229 145 -363.5t418 -134.5q295 0 473 172l63 -72q-94 -94 -236 -145t-308 -51q-209 0 -357.5 73.5t-225.5 206.5 t-77 310z" />
<glyph unicode="&#x422;" horiz-adv-x="1218" d="M177 1292q123 74 275.5 113t311.5 39q340 0 574 -154l-51 -84q-195 129 -469 142l-269 -1348h-104l270 1350q-139 -4 -270 -41t-234 -101z" />
<glyph unicode="&#x423;" horiz-adv-x="1613" d="M158 14l63 80q72 -106 182.5 -158.5t268.5 -52.5q227 0 374.5 130t198.5 393l45 225q-88 -133 -221 -199.5t-303 -66.5q-221 0 -345 114.5t-124 327.5q0 78 18 170l93 457h104l-92 -459q-16 -92 -17 -158q0 -176 99.5 -267t288.5 -91q217 0 365.5 124t199.5 371l96 480 h104l-206 -1035q-59 -303 -235.5 -457.5t-448.5 -154.5q-176 0 -305.5 58.5t-202.5 168.5z" />
<glyph unicode="&#x424;" horiz-adv-x="1867" d="M158 590q0 231 111.5 426.5t319.5 311.5t480 116q225 0 386 -75t245 -210t84 -315q0 -231 -112.5 -427t-319.5 -311.5t-480 -115.5q-225 0 -385.5 74.5t-244.5 210t-84 315.5zM264 592q0 -213 136.5 -347t394.5 -155l252 1258q-231 -2 -409.5 -104.5t-276 -274.5 t-97.5 -377zM893 86q233 2 411.5 104.5t275.5 274.5t97 377q0 213 -137 347t-393 154z" />
<glyph unicode="&#x425;" horiz-adv-x="1298" d="M-53 0l680 739l-355 693h121l312 -603l557 603h124l-630 -689l381 -743h-121l-340 653l-602 -653h-127z" />
<glyph unicode="&#x426;" horiz-adv-x="1687" d="M152 0l286 1434h105l-269 -1340h924l266 1340h107l-268 -1340h231l-88 -440h-98l67 346h-1263z" />
<glyph unicode="&#x427;" horiz-adv-x="1486" d="M203 852q0 51 12 106l94 476h105l-95 -473q-10 -51 -10 -89q0 -131 91.5 -201.5t258.5 -70.5q227 0 500 115l144 719h104l-287 -1434h-104l123 612q-268 -106 -490 -106q-215 0 -330.5 90t-115.5 256z" />
<glyph unicode="&#x428;" horiz-adv-x="2238" d="M152 0l286 1434h105l-267 -1340h705l266 1340h105l-267 -1340h705l266 1340h105l-287 -1434h-1722z" />
<glyph unicode="&#x429;" horiz-adv-x="2277" d="M152 0l286 1434h105l-267 -1340h705l266 1340h105l-267 -1340h705l266 1340h105l-287 -1434h-1722zM1768 0l20 94h332l-82 -422h-100l65 328h-235z" />
<glyph unicode="&#x42a;" horiz-adv-x="1777" d="M182 1339l21 95h620l-129 -646q231 176 506 177q225 0 348 -110t123 -308q0 -168 -84 -296t-235.5 -198.5t-350.5 -70.5q-231 0 -355 102t-124 289q0 59 13 127l167 839h-520zM625 387q0 -152 100 -232.5t287 -80.5q164 0 288.5 57t193.5 161.5t69 242.5 q0 164 -100.5 251.5t-286.5 87.5q-274 0 -502 -192l-37 -188q-12 -55 -12 -107z" />
<glyph unicode="&#x42b;" horiz-adv-x="1976" d="M203 375q0 57 12 125l186 934h105l-129 -646q231 176 506 177q223 0 347 -110t124 -308q0 -168 -84 -296t-236.5 -198.5t-351.5 -70.5q-231 0 -355 103t-124 290zM307 387q0 -152 99.5 -232.5t285.5 -80.5q164 0 290 57t194.5 161.5t68.5 242.5q0 164 -100.5 251.5 t-288.5 87.5q-272 0 -500 -190l-37 -190q-12 -57 -12 -107zM1507 0l287 1434h104l-286 -1434h-105z" />
<glyph unicode="&#x42c;" horiz-adv-x="1460" d="M203 375q0 57 12 125l186 934h105l-129 -646q231 176 506 177q223 0 347 -110t124 -308q0 -168 -84 -296t-236.5 -198.5t-351.5 -70.5q-231 0 -355 103t-124 290zM307 387q0 -152 99.5 -232.5t285.5 -80.5q164 0 290 57t194.5 161.5t68.5 242.5q0 164 -100.5 251.5 t-288.5 87.5q-272 0 -500 -190l-37 -190q-12 -57 -12 -107z" />
<glyph unicode="&#x42d;" horiz-adv-x="1447" d="M10 188l80 70q141 -172 424 -172q170 0 324.5 79t262 216t142.5 307h-782l16 88h778q2 18 2 53q0 150 -61 267.5t-173 184.5t-257 67q-281 0 -492 -172l-53 67q113 98 259.5 149.5t307.5 51.5q173 0 304 -77t202.5 -212t71.5 -307q0 -233 -121 -431t-320.5 -312.5 t-426.5 -114.5q-162 0 -288 50t-200 148z" />
<glyph unicode="&#x42e;" horiz-adv-x="2232" d="M152 0l286 1434h105l-133 -658h313q43 186 165 339t294 242t364 89q178 0 314.5 -77t211 -214t74.5 -317q0 -225 -116.5 -421t-311 -312.5t-418.5 -116.5q-178 0 -313 75.5t-210 213t-75 315.5q0 31 5 88h-316l-135 -680h-104zM809 598q0 -152 62.5 -268.5t175 -180 t260.5 -63.5q192 0 361 103.5t270.5 276.5t101.5 370q0 152 -62.5 267.5t-175 180t-262.5 64.5q-193 0 -360.5 -103.5t-269 -276.5t-101.5 -370z" />
<glyph unicode="&#x42f;" horiz-adv-x="1505" d="M47 0l432 479q-123 41 -189.5 138.5t-66.5 242.5q0 172 81 302t231.5 201t349.5 71h542l-286 -1434h-105l90 451h-456q-49 0 -92 6l-406 -457h-125zM332 872q0 -163 94 -247t270 -84h449l160 798h-431q-256 0 -399 -126t-143 -341z" />
<glyph unicode="&#x430;" horiz-adv-x="1458" d="M92 436q0 182 78 328.5t216 229.5t310 83q166 0 274.5 -71.5t147.5 -202.5l53 266h103l-156 -774q-6 -37 -6 -68q0 -72 38 -109.5t112 -37.5q61 0 106 20l-8 -86q-55 -23 -125 -22q-111 0 -170 60.5t-55 164.5q-78 -109 -195 -167t-262 -58q-209 0 -335 119.5t-126 324.5 zM195 442q0 -170 99 -264t279 -94q144 0 257.5 69.5t179 193.5t65.5 280q0 170 -99 264t-280 94q-143 0 -256.5 -70.5t-179 -194.5t-65.5 -278z" />
<glyph unicode="&#x431;" horiz-adv-x="1357" d="M154 510q0 221 89 416.5t247.5 329t363.5 178.5l489 106l5 -92l-471 -100q-227 -51 -384 -213t-217 -402q96 143 233.5 219t303.5 76q203 0 318.5 -113.5t115.5 -314.5q0 -172 -81 -312.5t-221 -221t-314 -80.5q-225 0 -351 137t-126 387zM254 475q0 -186 103.5 -295.5 t279.5 -109.5q139 0 255 68.5t181.5 186t65.5 261.5q0 168 -92.5 258t-260.5 90q-135 0 -257.5 -65.5t-198.5 -172t-76 -221.5z" />
<glyph unicode="&#x432;" horiz-adv-x="1232" d="M113 0l215 1069h446q164 0 249 -59.5t85 -173.5q0 -104 -67.5 -179t-184.5 -106q96 -21 142 -73t46 -144q0 -156 -122.5 -245t-341.5 -89h-467zM229 84h359q168 0 262 66.5t94 185.5q0 88 -58.5 127t-191.5 39h-381zM330 582h344q147 0 238.5 66.5t91.5 172.5 q0 84 -61.5 124t-184.5 40h-348z" />
<glyph unicode="&#x433;" horiz-adv-x="950" d="M113 0l213 1069h733l-19 -92h-632l-193 -977h-102z" />
<glyph unicode="&#x434;" horiz-adv-x="1415" d="M41 -238l65 76q66 -72 170.5 -111.5t235.5 -39.5q213 0 333.5 100t161.5 311l33 160q-80 -104 -198.5 -161.5t-264.5 -57.5q-215 0 -341 114.5t-126 311.5q0 172 78 312.5t217 220t314 79.5q168 0 280.5 -71.5t151.5 -208.5l53 272h98l-190 -954q-53 -272 -200.5 -396.5 t-408.5 -124.5q-147 0 -266 44.5t-196 123.5zM213 469q0 -160 101 -249t282 -89q145 0 259.5 66.5t180 184.5t65.5 265q0 160 -101 249t-281 89q-145 0 -260 -66.5t-180.5 -184.5t-65.5 -265z" />
<glyph unicode="&#x435;" horiz-adv-x="1216" d="M92 440q0 180 76 325.5t209 228.5t299 83q211 0 332.5 -119.5t121.5 -334.5l-2 -43l-933 -177q10 -154 110.5 -236.5t282.5 -82.5q113 0 208 38t158 105l47 -71q-72 -78 -182 -121t-239 -43q-227 0 -357.5 118.5t-130.5 329.5zM193 483l841 160q2 162 -95 254t-265 92 q-133 0 -239.5 -64.5t-170 -179t-71.5 -262.5z" />
<glyph unicode="&#x436;" horiz-adv-x="1652" d="M-63 0l509 551l-262 518h109l242 -485h249l99 485h102l-98 -485h250l432 485h119l-478 -530l289 -539h-119l-262 500h-248l-100 -500h-102l100 500h-246l-456 -500h-129z" />
<glyph unicode="&#x437;" horiz-adv-x="1060" d="M-8 135l51 70q57 -61 148.5 -93t201.5 -32q111 0 200 32.5t140 90t51 127.5q0 86 -75.5 135t-208.5 49h-166l14 82h144q152 0 245.5 58.5t93.5 152.5q0 84 -72.5 133t-199.5 49q-162 0 -346 -90l-33 86q197 96 383 96q168 0 270.5 -70.5t102.5 -191.5q0 -96 -70.5 -164.5 t-197.5 -99.5q219 -53 219 -231q0 -94 -63.5 -170t-177.5 -120t-253 -44q-125 0 -227.5 36.5t-173.5 108.5z" />
<glyph unicode="&#x438;" horiz-adv-x="1353" d="M154 334q0 55 12 117l123 618h102l-123 -618q-10 -45 -10 -103q0 -127 75 -195.5t222 -68.5q184 0 305 103.5t160 299.5l117 582h102l-213 -1069h-100l41 203q-150 -211 -439 -211q-180 0 -277 91t-97 251z" />
<glyph unicode="&#x439;" horiz-adv-x="1353" d="M154 334q0 55 12 117l123 618h102l-123 -618q-10 -45 -10 -103q0 -127 75 -195.5t222 -68.5q184 0 305 103.5t160 299.5l117 582h102l-213 -1069h-100l41 203q-150 -211 -439 -211q-180 0 -277 91t-97 251zM551 1440q0 12 4 45h76q-2 -10 -2 -33q0 -68 49 -110t133 -42 q92 0 159.5 50.5t90.5 134.5h74q-25 -117 -113 -183.5t-215 -66.5q-119 0 -187.5 55t-68.5 150z" />
<glyph unicode="&#x43a;" horiz-adv-x="1159" d="M113 0l215 1069h102l-98 -485h254l501 485h121l-546 -526l358 -543h-117l-323 496h-265l-100 -496h-102z" />
<glyph unicode="&#x43b;" horiz-adv-x="1277" d="M-94 2l24 88q41 -8 50 -8q74 0 131 65.5t107 199.5t106 358l92 364h751l-215 -1069h-102l194 979h-557l-71 -289q-63 -252 -124 -403.5t-132.5 -225t-163.5 -73.5q-41 0 -90 14z" />
<glyph unicode="&#x43c;" horiz-adv-x="1603" d="M113 0l213 1069h100l319 -809l650 809h96l-215 -1069h-94l182 905l-616 -768h-50l-309 770l-182 -907h-94z" />
<glyph unicode="&#x43d;" horiz-adv-x="1370" d="M113 0l213 1069h102l-98 -487h727l98 487h102l-215 -1069h-102l100 492h-727l-98 -492h-102z" />
<glyph unicode="&#x43e;" horiz-adv-x="1310" d="M112 436q0 182 79 327.5t218 229.5t316 84q217 0 345 -119.5t128 -324.5q0 -182 -79 -328.5t-218.5 -229.5t-315.5 -83q-217 0 -345 120.5t-128 323.5zM215 442q0 -170 99 -264t279 -94q144 0 257.5 69.5t179 193.5t65.5 280q0 170 -99 264t-280 94q-143 0 -256.5 -70.5 t-179 -194.5t-65.5 -278z" />
<glyph unicode="&#x43f;" horiz-adv-x="1372" d="M113 0l213 1069h936l-215 -1069h-103l195 977h-731l-193 -977h-102z" />
<glyph unicode="&#x440;" horiz-adv-x="1349" d="M-12 -397l184 952q47 242 209 382t399 140q219 0 342 -121.5t123 -339.5q0 -174 -80 -317t-219 -225t-309 -82q-158 0 -266.5 71.5t-151.5 196.5l-129 -657h-102zM264 461q0 -166 95.5 -271.5t275.5 -105.5q143 0 259 69.5t182.5 190.5t66.5 268q0 178 -97.5 275.5 t-271.5 97.5q-156 0 -271.5 -74.5t-177 -195.5t-61.5 -254z" />
<glyph unicode="&#x441;" d="M112 436q0 182 79 328.5t219 229.5t317 83q143 0 245.5 -50t159.5 -150l-84 -52q-96 160 -328 160q-145 0 -259.5 -70.5t-180 -193.5t-65.5 -279q0 -170 100 -264t287 -94q106 0 199 41t155 115l72 -58q-70 -90 -185.5 -140t-249.5 -50q-221 0 -351 120.5t-130 323.5z " />
<glyph unicode="&#x442;" horiz-adv-x="2162" d="M115 0l213 1069h100l-41 -201q76 106 184.5 157.5t243.5 51.5q147 0 237.5 -62.5t118.5 -176.5q80 119 199 179t266 60q180 0 276.5 -89t96.5 -249q0 -55 -12 -121l-125 -618h-103l125 618q10 47 10 105q0 125 -73.5 193.5t-214.5 68.5q-176 0 -294 -97t-155 -282 l-123 -606h-102l125 618q10 47 10 105q0 125 -73.5 193.5t-215.5 68.5q-178 0 -296.5 -103.5t-157.5 -299.5l-117 -582h-102z" />
<glyph unicode="&#x443;" horiz-adv-x="1370" d="M76 -236l63 78q61 -76 157.5 -115.5t215.5 -39.5q199 0 304.5 100t150.5 328l24 129q-147 -205 -432 -205q-180 0 -277.5 91t-97.5 251q0 55 13 117l114 571h103l-115 -571q-10 -45 -10 -103q0 -127 74.5 -195.5t222.5 -68.5q184 0 305 103.5t160 300.5l106 534h103 l-193 -960q-53 -272 -188.5 -393.5t-374.5 -121.5q-133 0 -246 44.5t-182 125.5z" />
<glyph unicode="&#x444;" horiz-adv-x="1568" d="M98 436q0 182 94.5 325.5t264.5 226.5t389 89l88 443h94l-88 -445q528 -18 528 -444q0 -182 -93 -325.5t-263 -225.5t-389 -88l-78 -389h-94l78 389q-262 10 -396.5 120.5t-134.5 323.5zM197 446q0 -178 113.5 -267t336.5 -99l180 907q-186 -8 -329.5 -78.5t-222 -190.5 t-78.5 -272zM741 80q185 8 328 79.5t222 191.5t79 272q0 350 -448 364z" />
<glyph unicode="&#x445;" horiz-adv-x="1050" d="M-67 0l538 553l-299 516h109l258 -446l432 446h121l-508 -524l317 -545h-110l-275 477l-461 -477h-122z" />
<glyph unicode="&#x446;" horiz-adv-x="1388" d="M113 0l213 1069h102l-195 -979h709l197 979h102l-197 -979h179l-74 -369h-98l57 279h-995z" />
<glyph unicode="&#x447;" horiz-adv-x="1206" d="M129 635q0 43 8 82l70 352h102l-69 -354q-6 -33 -7 -62q0 -96 69 -145t194 -49q168 0 393 90l104 520h103l-215 -1069h-103l92 457q-215 -84 -393 -84q-164 0 -256 66.5t-92 195.5z" />
<glyph unicode="&#x448;" horiz-adv-x="1878" d="M113 0l213 1069h102l-192 -979h567l192 979h103l-193 -979h563l195 979h102l-215 -1069h-1437z" />
<glyph unicode="&#x449;" horiz-adv-x="1910" d="M113 0l213 1069h102l-192 -979h567l192 979h103l-193 -979h563l195 979h102l-215 -1069h-1437zM1439 0l19 90h278l-67 -332h-98l49 242h-181z" />
<glyph unicode="&#x44a;" horiz-adv-x="1339" d="M88 977l18 92h472l-97 -473q152 158 385 158q174 0 269.5 -82t95.5 -232q0 -129 -67.5 -234.5t-187.5 -165.5t-271 -60q-178 0 -277.5 81.5t-99.5 231.5q0 39 10 96l119 588h-369zM432 303q0 -115 73 -178.5t208 -63.5q118 0 212.5 49.5t147.5 132.5t53 183 q0 121 -74.5 184.5t-211.5 63.5q-119 0 -217.5 -49.5t-163.5 -141.5l-19 -100q-8 -39 -8 -80z" />
<glyph unicode="&#x44b;" horiz-adv-x="1570" d="M152 289q0 43 10 100l135 680h102l-92 -473q145 158 373 158q170 0 262 -81t92 -231q0 -131 -66.5 -236.5t-184 -165.5t-267.5 -60q-172 0 -268 80.5t-96 228.5zM254 301q0 -113 70.5 -176.5t201.5 -63.5q117 0 209 49.5t143.5 133.5t51.5 184q0 119 -73 182.5t-204 63.5 q-115 0 -210 -49.5t-160 -141.5l-21 -100q-8 -39 -8 -82zM1141 0l215 1069h102l-215 -1069h-102z" />
<glyph unicode="&#x44c;" horiz-adv-x="1163" d="M152 289q0 57 10 100l135 680h102l-94 -473q152 158 385 158q174 0 268.5 -82t94.5 -232q0 -129 -67.5 -234.5t-187.5 -165.5t-272 -60q-176 0 -275 80.5t-99 228.5zM254 305q0 -117 73.5 -180.5t209.5 -63.5q118 0 212.5 49.5t147.5 132.5t53 183q0 121 -75.5 184.5 t-210.5 63.5q-119 0 -217.5 -49.5t-163.5 -141.5l-21 -100q-8 -39 -8 -78z" />
<glyph unicode="&#x44d;" horiz-adv-x="1167" d="M0 145l66 56q51 -59 136 -92t183 -33q133 0 251 56t201 154.5t113 217.5h-604l16 80h601q2 14 2 41q0 170 -105.5 269t-288.5 99q-102 0 -198.5 -33.5t-171.5 -97.5l-51 62q78 72 193.5 111.5t240.5 39.5q143 0 252.5 -55t170 -155.5t60.5 -235.5q0 -170 -93 -317.5 t-251 -234.5t-338 -87q-125 0 -227.5 42t-157.5 113z" />
<glyph unicode="&#x44e;" horiz-adv-x="1769" d="M115 0l213 1069h102l-96 -479h266q29 143 112 253.5t206.5 172t271.5 61.5q213 0 340 -119.5t127 -322.5q0 -182 -78 -329.5t-216 -230.5t-312 -83q-141 0 -247 54t-163 154.5t-57 233.5q0 41 2 62h-269l-100 -496h-102zM688 440q0 -170 97.5 -263t275.5 -93 q139 0 251.5 69.5t177 194.5t64.5 281q0 168 -98 262t-274 94q-141 0 -254 -70.5t-176.5 -194.5t-63.5 -280z" />
<glyph unicode="&#x44f;" horiz-adv-x="1234" d="M27 0l356 387q-106 27 -161.5 98.5t-55.5 182.5q0 186 138 293.5t378 107.5h438l-213 -1069h-94l74 371h-350q-39 0 -56 2l-338 -373h-116zM270 668q0 -219 279 -219h354l105 530h-332q-193 0 -299.5 -81t-106.5 -230z" />
<glyph unicode="&#x450;" horiz-adv-x="1216" d="M92 440q0 180 76 325.5t209 228.5t299 83q211 0 332.5 -119.5t121.5 -334.5l-2 -43l-933 -177q10 -154 110.5 -236.5t282.5 -82.5q113 0 208 38t158 105l47 -71q-72 -78 -182 -121t-239 -43q-227 0 -357.5 118.5t-130.5 329.5zM193 483l841 160q2 162 -95 254t-265 92 q-133 0 -239.5 -64.5t-170 -179t-71.5 -262.5zM469 1485h147l238 -242h-111z" />
<glyph unicode="&#x451;" horiz-adv-x="1216" d="M92 440q0 180 76 325.5t209 228.5t299 83q211 0 332.5 -119.5t121.5 -334.5l-2 -43l-933 -177q10 -154 110.5 -236.5t282.5 -82.5q113 0 208 38t158 105l47 -71q-72 -78 -182 -121t-239 -43q-227 0 -357.5 118.5t-130.5 329.5zM193 483l841 160q2 162 -95 254t-265 92 q-133 0 -239.5 -64.5t-170 -179t-71.5 -262.5zM512 1366q0 33 22.5 56.5t54.5 23.5q29 0 49.5 -19.5t20.5 -48.5q0 -33 -22.5 -56.5t-55.5 -23.5q-28 0 -48.5 19.5t-20.5 48.5zM866 1366q0 33 22.5 56.5t53.5 23.5q29 0 50 -19.5t21 -48.5q0 -33 -23.5 -56.5t-53.5 -23.5 q-29 0 -49.5 19.5t-20.5 48.5z" />
<glyph unicode="&#x452;" horiz-adv-x="1361" d="M115 0l250 1255h-232l14 78h234l37 187h102l-37 -187h523l-17 -78h-522l-80 -395q150 217 440 217q183 0 281 -90t98 -250q0 -57 -12 -119l-143 -724q-27 -137 -120 -218.5t-231 -81.5q-66 0 -121 18.5t-85 53.5l57 76q53 -59 162 -59q94 0 153.5 55t81.5 160l144 720 q10 47 10 103q0 127 -76 195.5t-223 68.5q-186 0 -309 -103.5t-162 -299.5l-115 -582h-102z" />
<glyph unicode="&#x453;" horiz-adv-x="950" d="M113 0l213 1069h733l-19 -92h-632l-193 -977h-102zM612 1241l311 242h154l-348 -242h-117z" />
<glyph unicode="&#x454;" horiz-adv-x="1169" d="M98 440q0 170 93 317.5t251 234.5t338 87q125 0 227.5 -42t157.5 -113l-66 -56q-51 59 -136 92t-183 33q-133 0 -251 -56t-201 -154.5t-113 -217.5h604l-16 -80h-601q-2 -14 -2 -41q0 -170 105.5 -269t288.5 -99q102 0 198.5 33.5t171.5 97.5l51 -62 q-78 -72 -193.5 -111.5t-240.5 -39.5q-143 0 -252.5 55t-170 155.5t-60.5 235.5z" />
<glyph unicode="&#x455;" horiz-adv-x="1062" d="M33 127l55 80q59 -57 158.5 -91t210.5 -34q166 0 257 58.5t91 162.5q0 59 -37 94t-90 52.5t-148 37.5q-111 23 -179 47.5t-115.5 77t-47.5 142.5q0 147 122 235t325 88q102 0 198.5 -27.5t153.5 -76.5l-47 -80q-59 47 -142 70.5t-171 23.5q-156 0 -247 -61.5t-91 -161.5 q0 -61 36.5 -97t93 -54.5t150.5 -39.5q111 -23 177.5 -46t113.5 -74.5t47 -139.5q0 -150 -125 -235.5t-334 -85.5q-125 0 -238.5 38t-176.5 97z" />
<glyph unicode="&#x456;" horiz-adv-x="544" d="M113 0l213 1069h102l-213 -1069h-102zM363 1405q0 37 25.5 63.5t64.5 26.5q33 0 56.5 -22.5t23.5 -53.5q0 -39 -27 -64.5t-65 -25.5q-33 0 -55.5 22.5t-22.5 53.5z" />
<glyph unicode="&#x457;" horiz-adv-x="534" d="M109 0l213 1069h102l-213 -1069h-102zM234 1366q0 33 22.5 56.5t55.5 23.5q29 0 47 -19.5t18 -48.5q0 -33 -22.5 -56.5t-53.5 -23.5q-28 0 -47.5 19.5t-19.5 48.5zM490 1366q0 35 21.5 57.5t54.5 22.5q29 0 47 -19.5t18 -48.5q0 -33 -21.5 -56.5t-54.5 -23.5 q-26 0 -45.5 19.5t-19.5 48.5z" />
<glyph unicode="&#x458;" horiz-adv-x="544" d="M-356 -336l53 78q66 -59 168 -59q94 0 150.5 53t78.5 166l234 1167h102l-235 -1175q-29 -152 -112 -226t-222 -74q-66 0 -122 18.5t-95 51.5zM363 1405q0 37 25.5 63.5t64.5 26.5q33 0 56.5 -22.5t23.5 -53.5q0 -39 -27 -64.5t-65 -25.5q-33 0 -55.5 22.5t-22.5 53.5z " />
<glyph unicode="&#x459;" horiz-adv-x="1892" d="M-90 2l18 94q27 -8 72 -8q96 0 172 153.5t152 458.5l94 369h710l-94 -473q152 158 385 158q174 0 268.5 -82t94.5 -232q0 -129 -67.5 -234.5t-187.5 -165.5t-272 -60q-176 0 -275 80.5t-99 228.5q0 57 10 100l117 588h-519l-71 -287q-88 -346 -184.5 -524t-231.5 -178 q-55 0 -92 14zM983 305q0 -117 73.5 -180.5t209.5 -63.5q118 0 212.5 49.5t147.5 132.5t53 183q0 121 -75.5 184.5t-210.5 63.5q-119 0 -217.5 -49.5t-163.5 -141.5l-21 -100q-8 -39 -8 -78z" />
<glyph unicode="&#x45a;" horiz-adv-x="1908" d="M115 0l213 1069h102l-88 -442h678l90 444l102 -4l-88 -438h334q168 0 256 -67.5t88 -199.5q0 -111 -62.5 -198.5t-175 -137t-255.5 -49.5q-170 0 -263.5 72t-93.5 205q0 37 11 88l38 195h-677l-107 -537h-102zM1057 260q0 -98 65.5 -149.5t192.5 -51.5q110 0 197 38 t136.5 105.5t49.5 153.5q0 94 -64.5 139.5t-195.5 45.5h-332l-41 -207q-8 -35 -8 -74z" />
<glyph unicode="&#x45b;" horiz-adv-x="1359" d="M84 1260l14 69h279l39 191h102l-39 -191h535l-15 -69h-532l-78 -390q152 207 438 207q183 0 281 -91t98 -251q0 -55 -12 -117l-123 -618h-102l123 618q10 47 10 103q0 127 -77 195.5t-224 68.5q-184 0 -307 -103.5t-162 -299.5l-117 -582h-102l252 1260h-281z" />
<glyph unicode="&#x45c;" horiz-adv-x="1159" d="M113 0l215 1069h102l-98 -485h254l501 485h121l-546 -526l358 -543h-117l-323 496h-265l-100 -496h-102zM618 1243l311 242h154l-348 -242h-117z" />
<glyph unicode="&#x45d;" horiz-adv-x="1353" d="M154 334q0 55 12 117l123 618h102l-123 -618q-10 -45 -10 -103q0 -127 75 -195.5t222 -68.5q184 0 305 103.5t160 299.5l117 582h102l-213 -1069h-100l41 203q-150 -211 -439 -211q-180 0 -277 91t-97 251zM531 1485h147l238 -242h-111z" />
<glyph unicode="&#x45e;" horiz-adv-x="1370" d="M76 -236l63 78q61 -76 157.5 -115.5t215.5 -39.5q199 0 304.5 100t150.5 328l24 129q-147 -205 -432 -205q-180 0 -277.5 91t-97.5 251q0 55 13 117l114 571h103l-115 -571q-10 -45 -10 -103q0 -127 74.5 -195.5t222.5 -68.5q184 0 305 103.5t160 300.5l106 534h103 l-193 -960q-53 -272 -188.5 -393.5t-374.5 -121.5q-133 0 -246 44.5t-182 125.5zM573 1440q0 12 4 45h76q-2 -10 -2 -33q0 -68 49 -110t133 -42q92 0 159.5 50.5t90.5 134.5h74q-25 -117 -113 -183.5t-215 -66.5q-119 0 -187.5 55t-68.5 150z" />
<glyph unicode="&#x45f;" horiz-adv-x="1296" d="M113 0l213 1069h102l-195 -979h654l194 979h103l-213 -1069h-379l-55 -279h-99l56 279h-381z" />
<glyph unicode="&#x462;" horiz-adv-x="1673" d="M164 1171l18 84h396l53 265h104l-51 -265h457l-19 -84h-456l-76 -385q227 178 506 179q223 0 347 -110t124 -308q0 -168 -84 -296t-236.5 -198.5t-351.5 -70.5q-231 0 -355 103t-124 290q0 57 12 125l133 671h-397zM520 387q0 -152 99.5 -232.5t285.5 -80.5q164 0 290 57 t194.5 161.5t68.5 242.5q0 164 -100.5 251.5t-288.5 87.5q-272 0 -500 -190l-37 -190q-12 -57 -12 -107z" />
<glyph unicode="&#x463;" horiz-adv-x="1251" d="M94 1028l17 80h284l82 412h103l-84 -412h409l-16 -80h-408l-88 -432q152 158 385 158q174 0 269.5 -82t95.5 -232q0 -129 -67.5 -234.5t-187.5 -165.5t-272 -60q-178 0 -277 80.5t-99 230.5q0 41 10 98l129 639h-285zM344 303q0 -115 72.5 -178.5t208.5 -63.5 q118 0 212.5 49.5t147.5 132.5t53 183q0 121 -74.5 184.5t-211.5 63.5q-119 0 -217.5 -49.5t-163.5 -141.5l-19 -100q-8 -39 -8 -80z" />
<glyph unicode="&#x46a;" horiz-adv-x="1781" d="M-55 0l227 342q135 205 286.5 305.5t325.5 100.5h35l-450 608l16 78h1370l-14 -74l-697 -612h41q170 0 285 -100.5t164 -303.5l90 -344h-111l-79 311q-90 354 -385 355h-82l-133 -666h-99l133 666h-82q-297 0 -526 -355l-203 -311h-112zM489 1348l445 -600l680 600h-1125 z" />
<glyph unicode="&#x46b;" horiz-adv-x="1351" d="M-59 0l161 252q197 309 457 309h16l-321 438l12 70h1028l-12 -70l-498 -438h21q131 0 212 -76.5t118 -232.5l63 -252h-104l-54 223q-29 131 -94 195.5t-172 64.5h-63l-97 -483h-92l96 483h-59q-106 0 -198.5 -64.5t-174.5 -195.5l-141 -223h-104zM367 993l313 -430 l485 430h-798z" />
<glyph unicode="&#x472;" horiz-adv-x="1769" d="M141 580q0 233 105.5 430.5t301 315.5t451.5 118q207 0 355.5 -74t225.5 -207t77 -309q0 -233 -106.5 -431t-302 -315.5t-451.5 -117.5q-207 0 -354.5 73.5t-224.5 206.5t-77 310zM246 584q0 -227 145 -362.5t416 -135.5q188 0 339.5 77t251 210t134.5 301h-1282 q-4 -57 -4 -90zM264 762h1282q4 57 4 88q0 229 -144.5 363.5t-414.5 134.5q-188 0 -339.5 -76t-251 -209t-136.5 -301z" />
<glyph unicode="&#x473;" horiz-adv-x="1333" d="M111 436q0 182 79.5 328.5t222 229.5t322.5 83q228 0 358 -119.5t130 -324.5q0 -182 -80 -328.5t-222.5 -229.5t-324.5 -83q-225 0 -355 120.5t-130 323.5zM213 442q0 -172 101.5 -265t291.5 -93q193 0 328 113.5t174 300.5h-893q-2 -18 -2 -56zM227 575h891q2 16 2 52 q0 172 -101 265t-292 93q-190 0 -325.5 -112.5t-174.5 -297.5z" />
<glyph unicode="&#x474;" horiz-adv-x="1507" d="M225 1434h113l272 -1282l545 968q94 172 188.5 250t210.5 78q55 0 111 -14l-27 -103q-35 10 -82 10q-92 0 -166.5 -67.5t-156.5 -216.5l-596 -1057h-105z" />
<glyph unicode="&#x475;" horiz-adv-x="1138" d="M131 1067h107l235 -948l399 717q74 131 135.5 186t141.5 55q33 0 94 -14l-31 -94q-41 10 -65 10q-53 0 -93 -43t-108 -162l-438 -774h-102z" />
<glyph unicode="&#x48a;" horiz-adv-x="1646" d="M201 430q0 80 18 172l166 832h104l-165 -834q-18 -88 -19 -162q0 -174 99.5 -263t285.5 -89q217 0 365.5 124t199.5 370l170 854h107l-268 -1340h198l-215 -422h-88l156 328h-178l24 94l33 170q-88 -137 -223 -205.5t-305 -68.5q-217 0 -341 113.5t-124 326.5zM707 1751 q0 12 4 41h75q-2 -10 -2 -27q0 -72 54.5 -114.5t146.5 -42.5q98 0 171 50t93 134h78q-25 -117 -117 -183.5t-227 -66.5q-127 0 -201.5 56.5t-74.5 152.5z" />
<glyph unicode="&#x48b;" horiz-adv-x="1353" d="M154 334q0 55 12 117l123 618h102l-123 -618q-10 -45 -10 -103q0 -127 75 -195.5t222 -68.5q184 0 305 103.5t160 299.5l117 582h102l-195 -979h181l-172 -332h-86l120 242h-161l41 203q-150 -211 -439 -211q-180 0 -277 91t-97 251zM549 1485h76q-4 -84 51 -133t149 -49 q90 0 157 50t79 132h78q-16 -115 -105.5 -182.5t-214.5 -67.5q-123 0 -200.5 68.5t-69.5 181.5z" />
<glyph unicode="&#x48c;" horiz-adv-x="1533" d="M184 1171l19 84h235l54 265h104l-51 -265h471l-17 -84h-473l-75 -385q227 178 505 179q224 0 347.5 -110t123.5 -308q0 -168 -83.5 -296t-236.5 -198.5t-351 -70.5q-231 0 -355.5 103t-124.5 290q0 57 13 125l133 671h-238zM381 387q0 -152 99.5 -232.5t285.5 -80.5 q164 0 290 57t194.5 161.5t68.5 242.5q0 164 -100.5 251.5t-288.5 87.5q-272 0 -500 -190l-37 -190q-12 -57 -12 -107z" />
<glyph unicode="&#x48d;" horiz-adv-x="1232" d="M100 840l17 82h231l29 147h102l-28 -147h407l-16 -82h-408l-59 -293q145 141 383 141q176 0 272 -75.5t96 -215.5q0 -119 -65.5 -213t-184 -148t-268.5 -54q-180 0 -280.5 76.5t-100.5 217.5q0 43 9 82l96 482h-232zM330 285q0 -106 74.5 -166t211.5 -60q117 0 210.5 44 t145.5 119t52 163q0 109 -77 168t-214 59q-119 0 -216 -44t-163 -126l-18 -92q-6 -33 -6 -65z" />
<glyph unicode="&#x48e;" horiz-adv-x="1497" d="M152 0l286 1434h500q238 0 369 -103.5t131 -292.5q0 -184 -83 -314t-237 -194l154 -270l-72 -51l-166 293q-111 -33 -256 -33h-428l-94 -469h-104zM369 563h409q109 0 209 23l-186 327l69 52l201 -353q127 54 193.5 158t66.5 260q0 150 -103.5 229.5t-295.5 79.5h-408z " />
<glyph unicode="&#x48f;" horiz-adv-x="1425" d="M35 -397l293 1466h100l-41 -207q78 102 192.5 158.5t256.5 56.5q209 0 335.5 -119.5t126.5 -324.5q0 -170 -70.5 -311.5t-193.5 -227.5l101 -172l-74 -47l-103 176q-123 -59 -266 -59q-166 0 -273.5 70.5t-148.5 203.5l-133 -663h-102zM313 442q0 -170 100.5 -264 t280.5 -94q119 0 217 49l-127 219l72 47l129 -221q98 72 153.5 188.5t55.5 260.5q0 170 -99.5 264t-279.5 94q-143 0 -257 -69.5t-179.5 -193.5t-65.5 -280z" />
<glyph unicode="&#x490;" d="M152 0l286 1434h787l59 297h98l-77 -392h-783l-266 -1339h-104z" />
<glyph unicode="&#x491;" horiz-adv-x="888" d="M113 0l213 1069h573l45 221h96l-63 -313h-567l-195 -977h-102z" />
<glyph unicode="&#x492;" horiz-adv-x="1232" d="M82 627l16 84h248l146 723h886l-20 -95h-783l-124 -628h604l-17 -84h-604l-125 -627h-104l125 627h-248z" />
<glyph unicode="&#x493;" horiz-adv-x="1005" d="M88 444l16 80h140l108 545h733l-18 -92h-633l-88 -453h492l-17 -80h-491l-88 -444h-103l88 444h-139z" />
<glyph unicode="&#x494;" horiz-adv-x="1433" d="M152 0l286 1434h928l-20 -95h-824l-129 -653q117 63 236 97t225 34q190 0 307 -104.5t117 -306.5q0 -180 -90 -338t-241.5 -252.5t-325.5 -94.5q-57 0 -117 13l24 88q43 -8 95 -8q152 0 278.5 83t200.5 217t74 283q0 164 -96.5 248t-252.5 84q-104 0 -223 -38t-231 -107 l-117 -584h-104z" />
<glyph unicode="&#x495;" horiz-adv-x="1204" d="M115 0l213 1069h723l-17 -92h-620l-105 -514q203 104 373 104q172 0 274.5 -102.5t102.5 -288.5q0 -166 -79 -299t-215 -209t-300 -76q-66 0 -133 13l26 92q61 -10 109 -10q135 0 246.5 61.5t176 171t64.5 244.5q0 150 -81.5 231.5t-221.5 81.5q-166 0 -360 -112 l-74 -365h-102z" />
<glyph unicode="&#x496;" horiz-adv-x="2131" d="M-53 0l659 739l-330 695h115l307 -660h320l131 660h102l-131 -660h316l569 660h121l-613 -699l363 -735h-121l-338 680h-317l-135 -680h-103l135 680h-313l-608 -680h-129zM1756 0l18 94h240l-82 -422h-101l64 328h-139z" />
<glyph unicode="&#x497;" horiz-adv-x="1740" d="M-63 0l509 551l-262 518h109l242 -485h249l99 485h102l-98 -485h250l432 485h119l-478 -530l289 -539h-119l-262 500h-248l-100 -500h-102l100 500h-246l-456 -500h-129zM1381 0l18 88h232l-66 -330h-94l47 242h-137z" />
<glyph unicode="&#x498;" horiz-adv-x="1292" d="M4 184l57 74q78 -88 193 -132t244 -44q133 0 252.5 46t192.5 131t73 198q0 119 -90 181t-262 62h-297l16 91h297q182 0 292.5 83.5t110.5 219.5q0 125 -98 193.5t-254 68.5q-102 0 -215 -31t-219 -92l-21 88q117 63 237 96t232 33q195 0 321 -91t126 -251 q0 -129 -86 -226.5t-234 -133.5q119 -31 183.5 -109t64.5 -193q0 -135 -89 -240.5t-233.5 -162.5t-301.5 -57q-145 0 -274.5 50t-217.5 148zM393 -328l72 359h100l-72 -359h-100z" />
<glyph unicode="&#x499;" horiz-adv-x="1060" d="M-8 135l51 70q57 -61 148.5 -93t201.5 -32q111 0 200 32.5t140 90t51 127.5q0 86 -75.5 135t-208.5 49h-166l14 82h144q152 0 245.5 58.5t93.5 152.5q0 84 -72.5 133t-199.5 49q-162 0 -346 -90l-33 86q197 96 383 96q168 0 270.5 -70.5t102.5 -191.5q0 -96 -70.5 -164.5 t-197.5 -99.5q219 -53 219 -231q0 -94 -63.5 -170t-177.5 -120t-253 -44q-125 0 -227.5 36.5t-173.5 108.5zM294 -242l54 271h98l-53 -271h-99z" />
<glyph unicode="&#x49a;" horiz-adv-x="1527" d="M152 0l286 1434h105l-131 -660h340l647 660h123l-695 -703l439 -731h-113l-410 680h-352l-135 -680h-104zM1153 0l18 94h240l-82 -422h-101l64 328h-139z" />
<glyph unicode="&#x49b;" horiz-adv-x="1259" d="M113 0l215 1069h102l-98 -485h254l501 485h121l-546 -526l358 -543h-117l-323 496h-265l-100 -496h-102zM903 0l18 88h232l-66 -330h-94l47 242h-137z" />
<glyph unicode="&#x49c;" horiz-adv-x="1466" d="M152 0l286 1434h103l-131 -660h202l66 328h86l-66 -328h138l600 660h120l-645 -701l398 -733h-123l-369 680h-137l-66 -326h-86l66 326h-205l-135 -680h-102z" />
<glyph unicode="&#x49d;" horiz-adv-x="1171" d="M113 0l215 1069h100l-96 -485h151l47 237h78l-47 -237h88l441 485h118l-483 -528l295 -541h-117l-260 498h-98l-47 -232h-78l47 232h-154l-98 -498h-102z" />
<glyph unicode="&#x49e;" horiz-adv-x="1497" d="M162 1151l16 80h295l41 203h104l-40 -203h327l-16 -80h-328l-74 -377h340l648 660h122l-694 -703l438 -731h-112l-410 680h-352l-135 -680h-105l230 1151h-295z" />
<glyph unicode="&#x49f;" horiz-adv-x="1161" d="M115 0l250 1255h-220l17 80h219l37 185h102l-37 -185l332 -2l-14 -78h-334l-133 -671h256l502 485h118l-546 -526l358 -543h-117l-325 498h-265l-98 -498h-102z" />
<glyph unicode="&#x4a0;" horiz-adv-x="1679" d="M180 1339l21 95h559l-19 -95l-112 -565h420l600 660h120l-645 -701l398 -733h-123l-369 680h-422l-135 -680h-104l268 1339h-457z" />
<glyph unicode="&#x4a1;" horiz-adv-x="1275" d="M88 979l18 90h441l-98 -485h258l501 485h117l-547 -526l361 -543h-117l-324 496h-266l-100 -496h-103l197 979h-338z" />
<glyph unicode="&#x4a2;" horiz-adv-x="1722" d="M151 0l287 1434h105l-132 -658h959l131 658h104l-286 -1434h-105l135 680h-958l-135 -680h-105zM1215 0l20 94h332l-82 -422h-100l65 328h-235z" />
<glyph unicode="&#x4a3;" horiz-adv-x="1404" d="M113 0l213 1069h102l-98 -487h727l98 487h102l-215 -1069h-102l100 492h-727l-98 -492h-102zM940 0l19 90h278l-67 -332h-98l49 242h-181z" />
<glyph unicode="&#x4a4;" horiz-adv-x="2228" d="M151 0l287 1434h105l-132 -658h959l131 658h104l-286 -1434h-105l135 680h-958l-135 -680h-105zM1215 0l286 1434h887l-20 -95h-783l-266 -1339h-104z" />
<glyph unicode="&#x4a5;" horiz-adv-x="1777" d="M113 0l213 1069h102l-98 -487h727l98 487h102l-215 -1069h-102l100 492h-727l-98 -492h-102zM940 0l213 1069h733l-19 -92h-632l-193 -977h-102z" />
<glyph unicode="&#x4a8;" horiz-adv-x="1996" d="M168 643q0 254 145.5 470t395.5 337l73 -59q-236 -109 -372 -309.5t-136 -434.5q0 -172 75 -303t210 -202.5t315 -71.5q111 0 220 28q-156 96 -244 263t-88 376q0 201 82 366t224 260t316 95q143 0 254 -66.5t171.5 -188.5t60.5 -279q0 -170 -69.5 -329t-193.5 -288 t-284 -211q92 -26 201 -26q113 0 235 30l2 -84q-125 -33 -248 -32q-170 0 -313 59q-162 -59 -340 -59q-205 0 -361.5 83t-243.5 232.5t-87 343.5zM870 737q0 -207 92.5 -363.5t251.5 -234.5q158 66 282 184.5t194.5 273.5t70.5 323q0 203 -102.5 321.5t-276.5 118.5 q-145 0 -261.5 -81t-183.5 -223.5t-67 -318.5z" />
<glyph unicode="&#x4a9;" horiz-adv-x="1642" d="M117 516q0 190 111.5 344t301.5 227l68 -59q-176 -68 -277.5 -205t-101.5 -305q0 -131 60.5 -233.5t168 -159.5t248.5 -57q74 0 156 16q-121 78 -187.5 202t-66.5 279q0 150 62.5 270.5t173 188.5t247.5 68q119 0 210 -50.5t141.5 -142.5t50.5 -211q0 -182 -113 -345 t-297 -261q92 -21 178 -21q90 0 199 23l-2 -82q-113 -23 -207 -22q-152 0 -283 51q-143 -49 -280 -49q-166 0 -293 67.5t-197.5 189t-70.5 277.5zM692 563q0 -153 73 -268t202 -174q184 74 301.5 226.5t117.5 330.5q0 150 -83.5 239t-225.5 89q-111 0 -198.5 -56.5 t-137 -158t-49.5 -228.5z" />
<glyph unicode="&#x4aa;" horiz-adv-x="1503" d="M164 580q0 233 106.5 431.5t303 315.5t459.5 117q166 0 296 -51.5t201 -145.5l-73 -67q-143 168 -433 168q-225 0 -397 -103.5t-265 -277.5t-93 -383q0 -229 145 -363.5t418 -134.5q295 0 473 172l63 -72q-94 -94 -236 -145t-308 -51q-209 0 -357.5 73.5t-225.5 206.5 t-77 310zM649 -328l72 359h100l-72 -359h-100z" />
<glyph unicode="&#x4ab;" d="M112 436q0 182 79 328.5t219 229.5t317 83q143 0 245.5 -50t159.5 -150l-84 -52q-96 160 -328 160q-145 0 -259.5 -70.5t-180 -193.5t-65.5 -279q0 -170 100 -264t287 -94q106 0 199 41t155 115l72 -58q-70 -90 -185.5 -140t-249.5 -50q-221 0 -351 120.5t-130 323.5z M499 -246l54 271h98l-53 -271h-99z" />
<glyph unicode="&#x4ac;" horiz-adv-x="1218" d="M177 1292q123 74 275.5 113t311.5 39q340 0 574 -154l-51 -84q-195 129 -469 142l-269 -1348h-104l270 1350q-139 -4 -270 -41t-234 -101zM445 0l20 94h332l-82 -422h-100l65 328h-235z" />
<glyph unicode="&#x4ad;" horiz-adv-x="933" d="M88 977l18 92h936l-18 -92h-420l-174 -887h174l-65 -332h-99l49 242h-180l193 977h-414z" />
<glyph unicode="&#x4ae;" horiz-adv-x="1308" d="M203 1434h108l351 -848l686 848h116l-770 -953l-96 -481h-104l98 494z" />
<glyph unicode="&#x4af;" horiz-adv-x="1120" d="M131 1069h105l237 -958l619 958h108l-694 -1069l-80 -397h-102l79 391z" />
<glyph unicode="&#x4b0;" horiz-adv-x="1308" d="M203 1434h108l351 -848l686 848h116l-770 -953l-96 -481h-104l98 494zM207 450l17 78h853l-16 -78h-854z" />
<glyph unicode="&#x4b1;" horiz-adv-x="1120" d="M42 -29l16 78h816l-15 -78h-817zM131 1069h105l237 -958l619 958h108l-694 -1069l-80 -397h-102l79 391z" />
<glyph unicode="&#x4b2;" horiz-adv-x="1392" d="M-53 0l680 739l-355 693h121l312 -603l557 603h124l-630 -689l381 -743h-121l-340 653l-602 -653h-127zM1016 0l18 94h240l-82 -422h-101l64 328h-139z" />
<glyph unicode="&#x4b3;" horiz-adv-x="1144" d="M-67 0l538 553l-299 516h109l258 -446l432 446h121l-508 -524l317 -545h-110l-275 477l-461 -477h-122zM791 0l18 88h232l-66 -330h-94l47 242h-137z" />
<glyph unicode="&#x4b4;" horiz-adv-x="1968" d="M182 1339l19 95h1102l-21 -95h-479l-250 -1247h924l266 1340h106l-268 -1340h231l-88 -440h-98l68 346h-1264v2l266 1339h-514z" />
<glyph unicode="&#x4b5;" horiz-adv-x="1525" d="M88 977l18 92h893l-18 -92h-373l-178 -887h653l197 979h102l-196 -979h162l-66 -332h-98l49 242h-924l197 977h-418z" />
<glyph unicode="&#x4b6;" horiz-adv-x="1525" d="M203 852q0 51 12 106l94 476h105l-95 -473q-10 -51 -10 -89q0 -131 91.5 -201.5t258.5 -70.5q227 0 500 115l144 719h104l-287 -1434h-104l123 612q-268 -106 -490 -106q-215 0 -330.5 90t-115.5 256zM1016 0l20 94h332l-82 -422h-100l65 328h-235z" />
<glyph unicode="&#x4b7;" horiz-adv-x="1241" d="M129 635q0 43 8 82l70 352h102l-69 -354q-6 -33 -7 -62q0 -96 69 -145t194 -49q168 0 393 90l104 520h103l-215 -1069h-103l92 457q-215 -84 -393 -84q-164 0 -256 66.5t-92 195.5zM778 0l19 90h278l-67 -332h-98l49 242h-181z" />
<glyph unicode="&#x4b8;" horiz-adv-x="1486" d="M203 852q0 51 12 106l94 476h105l-95 -473q-10 -51 -10 -89q0 -125 85 -196.5t243 -75.5l65 328h86l-65 -326q207 16 436 113l144 719h104l-287 -1434h-104l123 612q-227 -92 -434 -104l-66 -326h-84l63 324q-199 6 -307 97t-108 249z" />
<glyph unicode="&#x4b9;" horiz-adv-x="1206" d="M129 635q0 43 8 82l70 352h102l-69 -354q-6 -33 -7 -62q0 -96 69 -145t194 -49h18l51 250h78l-49 -244q135 18 295 84l104 520h103l-215 -1069h-103l92 457q-143 -57 -292 -78l-48 -229h-77l45 223h-21q-164 0 -256 66.5t-92 195.5z" />
<glyph unicode="&#x4ba;" horiz-adv-x="1486" d="M152 0l286 1434h105l-123 -613q129 53 256 80t235 27q215 0 331 -90t116 -256q0 -51 -12 -107l-97 -475h-104l96 473q8 41 8 86q0 133 -91 204t-259 71q-229 0 -500 -115l-143 -719h-104z" />
<glyph unicode="&#x4bb;" horiz-adv-x="1359" d="M113 0l303 1520h102l-129 -650q152 207 438 207q183 0 281 -91t98 -251q0 -55 -12 -117l-123 -618h-102l122 618q10 47 11 103q0 127 -77 195.5t-224 68.5q-184 0 -307 -103.5t-162 -299.5l-117 -582h-102z" />
<glyph unicode="&#x4bc;" horiz-adv-x="1978" d="M150 891q0 131 112 270l94 -33q-51 -57 -77.5 -114.5t-26.5 -108.5q0 -70 49 -112.5t137 -42.5h41q33 195 153 353.5t299 249.5t384 91q184 0 322.5 -75t214 -208t75.5 -305q0 -98 -26 -203l-1328 4v-34q0 -160 67 -283t189.5 -189.5t286.5 -66.5q129 0 257 46t241 134 l55 -76q-127 -98 -270.5 -148t-290.5 -50q-190 0 -335.5 77.5t-224.5 220t-79 328.5q0 27 2 41h-53q-127 0 -197.5 64.5t-70.5 169.5zM586 750h1233q8 47 8 102q0 145 -64.5 258t-182.5 176.5t-273 63.5q-174 0 -329 -80t-258.5 -217.5t-133.5 -302.5z" />
<glyph unicode="&#x4bd;" horiz-adv-x="1515" d="M86 676q0 98 82 207l84 -27q-72 -82 -72 -154q0 -49 39 -79.5t113 -30.5h26q29 143 112 252.5t207 171t271 61.5q217 0 343 -118.5t126 -327.5q0 -66 -12 -119h-956q-4 -45 -5 -68q0 -174 105.5 -267t306.5 -93q117 0 216 38t163 105l51 -71q-74 -78 -189.5 -121 t-248.5 -43q-238 0 -372 118.5t-134 329.5q0 27 4 72h-39q-109 0 -165 44t-56 120zM461 592h856q2 18 2 51q0 164 -102.5 255t-272.5 91q-182 0 -312 -108.5t-171 -288.5z" />
<glyph unicode="&#x4be;" horiz-adv-x="1978" d="M150 891q0 131 112 270l94 -33q-51 -57 -77.5 -114.5t-26.5 -108.5q0 -70 49 -112.5t137 -42.5h41q33 195 153 353.5t299 249.5t384 91q184 0 322.5 -75t214 -208t75.5 -305q0 -98 -26 -203l-1328 4v-34q0 -160 67 -283t189.5 -189.5t286.5 -66.5q129 0 257 46t241 134 l55 -76q-127 -98 -270.5 -148t-290.5 -50q-190 0 -335.5 77.5t-224.5 220t-79 328.5q0 27 2 41h-53q-127 0 -197.5 64.5t-70.5 169.5zM586 750h1233q8 47 8 102q0 145 -64.5 258t-182.5 176.5t-273 63.5q-174 0 -329 -80t-258.5 -217.5t-133.5 -302.5zM954 -328l72 359h100 l-72 -359h-100z" />
<glyph unicode="&#x4bf;" horiz-adv-x="1515" d="M86 676q0 98 82 207l84 -27q-72 -82 -72 -154q0 -49 39 -79.5t113 -30.5h26q29 143 112 252.5t207 171t271 61.5q217 0 343 -118.5t126 -327.5q0 -66 -12 -119h-956q-4 -45 -5 -68q0 -174 105.5 -267t306.5 -93q117 0 216 38t163 105l51 -71q-74 -78 -189.5 -121 t-248.5 -43q-238 0 -372 118.5t-134 329.5q0 27 4 72h-39q-109 0 -165 44t-56 120zM461 592h856q2 18 2 51q0 164 -102.5 255t-272.5 91q-182 0 -312 -108.5t-171 -288.5zM704 -242l54 271h98l-53 -271h-99z" />
<glyph unicode="&#x4c0;" horiz-adv-x="620" d="M152 0l286 1434h105l-287 -1434h-104z" />
<glyph unicode="&#x4c1;" horiz-adv-x="2039" d="M-53 0l659 739l-330 695h115l307 -660h320l131 660h102l-131 -660h316l569 660h121l-613 -699l363 -735h-121l-338 680h-317l-135 -680h-103l135 680h-313l-608 -680h-129zM953 1751q0 12 4 41h75q-2 -10 -2 -27q0 -72 54.5 -114.5t146.5 -42.5q98 0 171 50t93 134h78 q-25 -117 -117 -183.5t-227 -66.5q-127 0 -201.5 56.5t-74.5 152.5z" />
<glyph unicode="&#x4c2;" horiz-adv-x="1652" d="M-63 0l509 551l-262 518h109l242 -485h249l99 485h102l-98 -485h250l432 485h119l-478 -530l289 -539h-119l-262 500h-248l-100 -500h-102l100 500h-246l-456 -500h-129zM721 1440q0 12 4 45h76q-2 -10 -2 -33q0 -68 49 -110t133 -42q92 0 159.5 50.5t90.5 134.5h74 q-25 -117 -113 -183.5t-215 -66.5q-119 0 -187.5 55t-68.5 150z" />
<glyph unicode="&#x4c3;" horiz-adv-x="1417" d="M152 0l286 1434h105l-131 -660h340l647 660h123l-693 -701q186 -203 290 -399.5t104 -360.5q0 -170 -95.5 -274.5t-250.5 -104.5q-106 0 -211 60l45 84q82 -49 163 -49q106 0 171 76.5t65 203.5q0 150 -100.5 341.5t-270.5 369.5h-348l-135 -680h-104z" />
<glyph unicode="&#x4c4;" horiz-adv-x="1153" d="M113 0l213 1069h102l-96 -487h250l503 487h121l-544 -524q158 -158 237.5 -308.5t79.5 -285.5q0 -160 -94 -258.5t-246 -98.5q-104 0 -215 56l43 82q88 -47 172 -47q106 0 172 70.5t66 189.5q0 121 -78 263t-226 292h-258l-100 -500h-102z" />
<glyph unicode="&#x4c6;" horiz-adv-x="1312" d="M-94 2l24 88q41 -8 50 -8q74 0 131 65.5t107 199.5t106 358l92 364h751l-196 -979h178l-172 -332h-86l121 242h-162l194 979h-557l-71 -289q-63 -252 -124 -403.5t-132.5 -225t-163.5 -73.5q-41 0 -90 14z" />
<glyph unicode="&#x4c7;" horiz-adv-x="1671" d="M152 0l286 1434h105l-133 -664h946l133 664h104l-313 -1569q-27 -129 -121 -200t-213 -71q-59 0 -115.5 19.5t-97.5 56.5l49 72q66 -57 158 -57q84 0 152.5 52t87.5 146l157 791h-946l-135 -674h-104z" />
<glyph unicode="&#x4c8;" horiz-adv-x="1388" d="M113 0l213 1069h102l-96 -487h743l96 487h103l-236 -1180q-27 -135 -117 -215t-225 -80q-67 0 -122.5 18.5t-86.5 53.5l56 76q55 -59 157 -59q94 0 156 55t82 160l119 594h-744l-98 -492h-102z" />
<glyph unicode="&#x4c9;" horiz-adv-x="1716" d="M152 0l286 1434h105l-131 -658h958l131 658h105l-269 -1340h203l-215 -422h-88l156 328h-179l136 680h-959l-135 -680h-104z" />
<glyph unicode="&#x4ca;" horiz-adv-x="1406" d="M113 0l213 1069h102l-98 -487h727l98 487h102l-196 -979h178l-172 -332h-86l121 242h-162l100 492h-727l-98 -492h-102z" />
<glyph unicode="&#x4cb;" horiz-adv-x="1482" d="M203 866q0 41 10 103l92 465h105l-93 -465q-8 -39 -8 -84q0 -129 91.5 -199t258.5 -70q225 0 498 113l141 705h105l-268 -1340h2l-21 -94h-248l-65 -328h-98l83 422h242l107 535q-262 -106 -488 -107q-215 0 -330.5 90t-115.5 254z" />
<glyph unicode="&#x4cc;" horiz-adv-x="1204" d="M129 645q0 43 8 82l68 342h102l-67 -340q-6 -31 -7 -57q0 -96 71 -147.5t200 -51.5q178 0 385 86l102 510h103l-215 -1069h-191l-49 -242h-98l65 328h187l77 387q-211 -86 -397 -86q-164 0 -254 65.5t-90 192.5z" />
<glyph unicode="&#x4cd;" horiz-adv-x="2007" d="M152 0l286 1434h86l428 -1108l850 1108h92l-268 -1340h205l-215 -422h-88l155 328h-178l244 1219l-793 -1029h-51l-405 1043l-246 -1233h-102z" />
<glyph unicode="&#x4ce;" horiz-adv-x="1648" d="M113 0l213 1069h100l319 -809l650 809h96l-197 -979h187l-172 -332h-86l120 242h-161l182 905l-616 -768h-50l-309 770l-182 -907h-94z" />
<glyph unicode="&#x4cf;" horiz-adv-x="544" d="M115 0l303 1520h102l-303 -1520h-102z" />
<glyph unicode="&#x4d0;" horiz-adv-x="1642" d="M131 0l166 831q61 309 229 461t447 152q241 0 373.5 -121t132.5 -340q0 -88 -17 -164l-164 -819h-104l88 442h-958l-88 -442h-105zM344 537h956l58 284q16 88 16 154q0 182 -105.5 277.5t-303.5 95.5q-233 0 -372.5 -127t-191.5 -394zM752 1751q0 12 4 41h75 q-2 -10 -2 -27q0 -72 54.5 -114.5t146.5 -42.5q98 0 171 50t93 134h78q-25 -117 -117 -183.5t-227 -66.5q-127 0 -201.5 56.5t-74.5 152.5z" />
<glyph unicode="&#x4d1;" horiz-adv-x="1458" d="M92 436q0 182 78 328.5t216 229.5t310 83q166 0 274.5 -71.5t147.5 -202.5l53 266h103l-156 -774q-6 -37 -6 -68q0 -72 38 -109.5t112 -37.5q61 0 106 20l-8 -86q-55 -23 -125 -22q-111 0 -170 60.5t-55 164.5q-78 -109 -195 -167t-262 -58q-209 0 -335 119.5t-126 324.5 zM195 442q0 -170 99 -264t279 -94q144 0 257.5 69.5t179 193.5t65.5 280q0 170 -99 264t-280 94q-143 0 -256.5 -70.5t-179 -194.5t-65.5 -278zM557 1440q0 12 4 45h76q-2 -10 -2 -33q0 -68 49 -110t133 -42q92 0 159.5 50.5t90.5 134.5h74q-25 -117 -113 -183.5t-215 -66.5 q-119 0 -187.5 55t-68.5 150z" />
<glyph unicode="&#x4d2;" horiz-adv-x="1642" d="M131 0l166 831q61 309 229 461t447 152q241 0 373.5 -121t132.5 -340q0 -88 -17 -164l-164 -819h-104l88 442h-958l-88 -442h-105zM344 537h956l58 284q16 88 16 154q0 182 -105.5 277.5t-303.5 95.5q-233 0 -372.5 -127t-191.5 -394zM799 1673q0 33 22.5 56.5t55.5 23.5 q29 0 49.5 -19.5t20.5 -47.5q0 -33 -23 -56.5t-55 -23.5q-29 0 -49.5 19.5t-20.5 47.5zM1153 1673q0 33 22.5 56.5t53.5 23.5q29 0 50.5 -19.5t21.5 -47.5q0 -33 -23.5 -56.5t-54.5 -23.5q-29 0 -49.5 19.5t-20.5 47.5z" />
<glyph unicode="&#x4d3;" horiz-adv-x="1458" d="M92 436q0 182 78 328.5t216 229.5t310 83q166 0 274.5 -71.5t147.5 -202.5l53 266h103l-156 -774q-6 -37 -6 -68q0 -72 38 -109.5t112 -37.5q61 0 106 20l-8 -86q-55 -23 -125 -22q-111 0 -170 60.5t-55 164.5q-78 -109 -195 -167t-262 -58q-209 0 -335 119.5t-126 324.5 zM195 442q0 -170 99 -264t279 -94q144 0 257.5 69.5t179 193.5t65.5 280q0 170 -99 264t-280 94q-143 0 -256.5 -70.5t-179 -194.5t-65.5 -278zM580 1366q0 33 22.5 56.5t54.5 23.5q29 0 49.5 -19.5t20.5 -48.5q0 -33 -22.5 -56.5t-55.5 -23.5q-28 0 -48.5 19.5t-20.5 48.5z M934 1366q0 33 22.5 56.5t53.5 23.5q29 0 50 -19.5t21 -48.5q0 -33 -23.5 -56.5t-53.5 -23.5q-29 0 -49.5 19.5t-20.5 48.5z" />
<glyph unicode="&#x4d4;" horiz-adv-x="2187" d="M109 0l163 823q57 293 235.5 452t448.5 159h1291l-19 -93h-856l-112 -569h763l-18 -88h-764l-117 -592h885l-18 -92h-990l93 463h-787l-94 -463h-104zM326 555h786l158 782h-320q-225 0 -374.5 -136t-198.5 -388z" />
<glyph unicode="&#x4d5;" horiz-adv-x="2011" d="M72 264q0 154 117.5 242t330.5 88h377l16 76q10 55 11 90q0 111 -71 168t-208 57q-104 0 -205.5 -36t-175.5 -95l-39 78q84 68 200 106.5t234 38.5q156 0 245 -61.5t106 -173.5q80 111 199.5 173t258.5 62q207 0 330 -118.5t123 -331.5q0 -31 -2 -47l-938 -177 q10 -156 113.5 -237.5t287.5 -81.5q111 0 203 37t158 106l51 -71q-74 -78 -183.5 -121t-236.5 -43q-180 0 -299 75.5t-164 215.5q-68 -150 -193.5 -220.5t-279.5 -70.5q-172 0 -269 72.5t-97 199.5zM174 270q0 -94 68.5 -144t203.5 -50q154 0 267.5 88t146.5 250l21 100 h-367q-162 0 -251 -64.5t-89 -179.5zM981 483l842 160q2 160 -95.5 253t-265.5 93q-131 0 -238.5 -64.5t-172 -179t-70.5 -262.5z" />
<glyph unicode="&#x4d6;" horiz-adv-x="1282" d="M84 338q0 154 101.5 260.5t273.5 138.5q-84 35 -130 104.5t-46 164.5q0 131 72.5 230t205.5 153.5t307 54.5q133 0 250 -30t203 -87l-43 -86q-172 111 -418 111q-141 0 -248.5 -43t-166 -120t-58.5 -179q0 -113 78 -174.5t219 -61.5h350l-20 -94h-357q-215 0 -341 -89 t-126 -241q0 -129 106.5 -198.5t309.5 -69.5q160 0 298 45t222 125l43 -82q-92 -84 -245.5 -132t-331.5 -48q-238 0 -373 92t-135 256zM627 1751q0 12 4 41h75q-2 -10 -2 -27q0 -72 54.5 -114.5t146.5 -42.5q98 0 171 50t93 134h78q-25 -117 -117 -183.5t-227 -66.5 q-127 0 -201.5 56.5t-74.5 152.5z" />
<glyph unicode="&#x4d7;" horiz-adv-x="1216" d="M92 440q0 180 76 325.5t209 228.5t299 83q211 0 332.5 -119.5t121.5 -334.5l-2 -43l-933 -177q10 -154 110.5 -236.5t282.5 -82.5q113 0 208 38t158 105l47 -71q-72 -78 -182 -121t-239 -43q-227 0 -357.5 118.5t-130.5 329.5zM193 483l841 160q2 162 -95 254t-265 92 q-133 0 -239.5 -64.5t-170 -179t-71.5 -262.5zM490 1438q0 12 4 45h76q-2 -10 -2 -33q0 -68 49 -110t133 -42q92 0 159.5 50.5t90.5 134.5h74q-25 -117 -113 -183.5t-215 -66.5q-119 0 -187.5 55t-68.5 150z" />
<glyph unicode="&#x4d8;" horiz-adv-x="1671" d="M147 428l1350 516q-29 188 -167 296t-372 108q-145 0 -269 -43t-212 -123l-53 78q92 86 237.5 135t307.5 49q200 0 344.5 -74t220.5 -207t76 -309q0 -233 -104.5 -431t-295 -315.5t-438.5 -117.5q-246 0 -412.5 116.5t-212.5 321.5zM272 377q51 -137 184.5 -215 t325.5 -78q211 0 375 103.5t255 279.5t91 383z" />
<glyph unicode="&#x4d9;" horiz-adv-x="1216" d="M86 446l2 43l934 177q-10 154 -110.5 236.5t-282.5 82.5q-113 0 -208 -38t-159 -105l-47 71q72 78 182.5 121t239.5 43q227 0 357 -118.5t130 -329.5q0 -180 -75.5 -325.5t-208.5 -228.5t-299 -83q-211 0 -333 119.5t-122 334.5zM182 426q-2 -162 95.5 -254t265.5 -92 q133 0 239.5 64.5t170 179t71.5 262.5z" />
<glyph unicode="&#x4da;" horiz-adv-x="1671" d="M147 428l1350 516q-29 188 -167 296t-372 108q-145 0 -269 -43t-212 -123l-53 78q92 86 237.5 135t307.5 49q200 0 344.5 -74t220.5 -207t76 -309q0 -233 -104.5 -431t-295 -315.5t-438.5 -117.5q-246 0 -412.5 116.5t-212.5 321.5zM272 377q51 -137 184.5 -215 t325.5 -78q211 0 375 103.5t255 279.5t91 383zM813 1673q0 33 22.5 56.5t55.5 23.5q29 0 49.5 -19.5t20.5 -47.5q0 -33 -23 -56.5t-55 -23.5q-29 0 -49.5 19.5t-20.5 47.5zM1167 1673q0 33 22.5 56.5t53.5 23.5q29 0 50.5 -19.5t21.5 -47.5q0 -33 -23.5 -56.5t-54.5 -23.5 q-29 0 -49.5 19.5t-20.5 47.5z" />
<glyph unicode="&#x4db;" horiz-adv-x="1216" d="M86 446l2 43l934 177q-10 154 -110.5 236.5t-282.5 82.5q-113 0 -208 -38t-159 -105l-47 71q72 78 182.5 121t239.5 43q227 0 357 -118.5t130 -329.5q0 -180 -75.5 -325.5t-208.5 -228.5t-299 -83q-211 0 -333 119.5t-122 334.5zM182 426q-2 -162 95.5 -254t265.5 -92 q133 0 239.5 64.5t170 179t71.5 262.5zM531 1366q0 33 22.5 56.5t54.5 23.5q29 0 49.5 -19.5t20.5 -48.5q0 -33 -22.5 -56.5t-55.5 -23.5q-28 0 -48.5 19.5t-20.5 48.5zM885 1366q0 33 22.5 56.5t53.5 23.5q29 0 50 -19.5t21 -48.5q0 -33 -23.5 -56.5t-53.5 -23.5 q-29 0 -49.5 19.5t-20.5 48.5z" />
<glyph unicode="&#x4dc;" horiz-adv-x="2039" d="M-53 0l659 739l-330 695h115l307 -660h320l131 660h102l-131 -660h316l569 660h121l-613 -699l363 -735h-121l-338 680h-317l-135 -680h-103l135 680h-313l-608 -680h-129zM999 1673q0 33 22.5 56.5t55.5 23.5q29 0 49.5 -19.5t20.5 -47.5q0 -33 -23 -56.5t-55 -23.5 q-29 0 -49.5 19.5t-20.5 47.5zM1353 1673q0 33 22.5 56.5t53.5 23.5q29 0 50.5 -19.5t21.5 -47.5q0 -33 -23.5 -56.5t-54.5 -23.5q-29 0 -49.5 19.5t-20.5 47.5z" />
<glyph unicode="&#x4dd;" horiz-adv-x="1652" d="M-63 0l509 551l-262 518h109l242 -485h249l99 485h102l-98 -485h250l432 485h119l-478 -530l289 -539h-119l-262 500h-248l-100 -500h-102l100 500h-246l-456 -500h-129zM744 1366q0 33 22.5 56.5t54.5 23.5q29 0 49.5 -19.5t20.5 -48.5q0 -33 -22.5 -56.5t-55.5 -23.5 q-28 0 -48.5 19.5t-20.5 48.5zM1098 1366q0 33 22.5 56.5t53.5 23.5q29 0 50 -19.5t21 -48.5q0 -33 -23.5 -56.5t-53.5 -23.5q-29 0 -49.5 19.5t-20.5 48.5z" />
<glyph unicode="&#x4de;" horiz-adv-x="1292" d="M4 184l57 74q78 -88 193 -132t244 -44q133 0 252.5 46t192.5 131t73 198q0 119 -90 181t-262 62h-297l16 91h297q182 0 292.5 83.5t110.5 219.5q0 125 -98 193.5t-254 68.5q-102 0 -215 -31t-219 -92l-21 88q117 63 237 96t232 33q195 0 321 -91t126 -251 q0 -129 -86 -226.5t-234 -133.5q119 -31 183.5 -109t64.5 -193q0 -135 -89 -240.5t-233.5 -162.5t-301.5 -57q-145 0 -274.5 50t-217.5 148zM616 1673q0 33 22.5 56.5t55.5 23.5q29 0 49.5 -19.5t20.5 -47.5q0 -33 -23 -56.5t-55 -23.5q-29 0 -49.5 19.5t-20.5 47.5z M970 1673q0 33 22.5 56.5t53.5 23.5q29 0 50.5 -19.5t21.5 -47.5q0 -33 -23.5 -56.5t-54.5 -23.5q-29 0 -49.5 19.5t-20.5 47.5z" />
<glyph unicode="&#x4df;" horiz-adv-x="1060" d="M-8 135l51 70q57 -61 148.5 -93t201.5 -32q111 0 200 32.5t140 90t51 127.5q0 86 -75.5 135t-208.5 49h-166l14 82h144q152 0 245.5 58.5t93.5 152.5q0 84 -72.5 133t-199.5 49q-162 0 -346 -90l-33 86q197 96 383 96q168 0 270.5 -70.5t102.5 -191.5q0 -96 -70.5 -164.5 t-197.5 -99.5q219 -53 219 -231q0 -94 -63.5 -170t-177.5 -120t-253 -44q-125 0 -227.5 36.5t-173.5 108.5zM387 1366q0 33 22.5 56.5t54.5 23.5q29 0 49.5 -19.5t20.5 -48.5q0 -33 -22.5 -56.5t-55.5 -23.5q-28 0 -48.5 19.5t-20.5 48.5zM741 1366q0 33 22.5 56.5 t53.5 23.5q29 0 50 -19.5t21 -48.5q0 -33 -23.5 -56.5t-53.5 -23.5q-29 0 -49.5 19.5t-20.5 48.5z" />
<glyph unicode="&#x4e0;" horiz-adv-x="1200" d="M-2 184l63 78q53 -80 166 -128t260 -48q213 0 336 97.5t123 262.5q0 274 -373 275h-77l14 76l528 542h-759l20 95h897l-14 -74l-537 -553q197 -8 301.5 -101.5t104.5 -254.5q0 -135 -71 -240t-200 -163t-299 -58q-164 0 -293 53t-190 141z" />
<glyph unicode="&#x4e1;" horiz-adv-x="1032" d="M-195 -213l58 82q78 -90 190.5 -135t235.5 -45q125 0 231.5 44t169 129t62.5 204q0 135 -90.5 207.5t-276.5 72.5h-82l12 72l535 557h-760l19 94h897l-13 -74l-551 -567q203 -8 309.5 -102.5t106.5 -259.5q0 -145 -79 -253t-211 -164.5t-285 -56.5q-139 0 -263 48.5 t-215 146.5z" />
<glyph unicode="&#x4e2;" horiz-adv-x="1624" d="M217 430q0 80 19 172l166 832h104l-166 -834q-18 -88 -18 -162q0 -174 99.5 -263t285.5 -89q217 0 365.5 124t199.5 370l170 854h107l-287 -1434h-102l51 264q-88 -137 -223.5 -205.5t-305.5 -68.5q-217 0 -341 113.5t-124 326.5zM713 1634l14 74h602l-14 -74h-602z" />
<glyph unicode="&#x4e3;" horiz-adv-x="1353" d="M154 334q0 55 12 117l123 618h102l-123 -618q-10 -45 -10 -103q0 -127 75 -195.5t222 -68.5q184 0 305 103.5t160 299.5l117 582h102l-213 -1069h-100l41 203q-150 -211 -439 -211q-180 0 -277 91t-97 251zM514 1327l15 74h602l-15 -74h-602z" />
<glyph unicode="&#x4e4;" horiz-adv-x="1624" d="M217 430q0 80 19 172l166 832h104l-166 -834q-18 -88 -18 -162q0 -174 99.5 -263t285.5 -89q217 0 365.5 124t199.5 370l170 854h107l-287 -1434h-102l51 264q-88 -137 -223.5 -205.5t-305.5 -68.5q-217 0 -341 113.5t-124 326.5zM772 1673q0 33 22.5 56.5t55.5 23.5 q29 0 49.5 -19.5t20.5 -47.5q0 -33 -23 -56.5t-55 -23.5q-29 0 -49.5 19.5t-20.5 47.5zM1126 1673q0 33 22.5 56.5t53.5 23.5q29 0 50.5 -19.5t21.5 -47.5q0 -33 -23.5 -56.5t-54.5 -23.5q-29 0 -49.5 19.5t-20.5 47.5z" />
<glyph unicode="&#x4e5;" horiz-adv-x="1353" d="M154 334q0 55 12 117l123 618h102l-123 -618q-10 -45 -10 -103q0 -127 75 -195.5t222 -68.5q184 0 305 103.5t160 299.5l117 582h102l-213 -1069h-100l41 203q-150 -211 -439 -211q-180 0 -277 91t-97 251zM574 1366q0 33 22.5 56.5t54.5 23.5q29 0 49.5 -19.5 t20.5 -48.5q0 -33 -22.5 -56.5t-55.5 -23.5q-28 0 -48.5 19.5t-20.5 48.5zM928 1366q0 33 22.5 56.5t53.5 23.5q29 0 50 -19.5t21 -48.5q0 -33 -23.5 -56.5t-53.5 -23.5q-29 0 -49.5 19.5t-20.5 48.5z" />
<glyph unicode="&#x4e6;" horiz-adv-x="1767" d="M164 580q0 233 105.5 430.5t301 315.5t451.5 118q207 0 355.5 -74t225.5 -207t77 -309q0 -233 -106.5 -431t-302 -315.5t-451.5 -117.5q-207 0 -354.5 73.5t-224.5 206.5t-77 310zM269 584q0 -227 145 -362.5t416 -135.5q219 0 389 103.5t262 278.5t92 382 q0 229 -144.5 363.5t-414.5 134.5q-219 0 -389 -103.5t-263 -278.5t-93 -382zM860 1673q0 33 22.5 56.5t55.5 23.5q29 0 49.5 -19.5t20.5 -47.5q0 -33 -23 -56.5t-55 -23.5q-29 0 -49.5 19.5t-20.5 47.5zM1214 1673q0 33 22.5 56.5t53.5 23.5q29 0 50.5 -19.5t21.5 -47.5 q0 -33 -23.5 -56.5t-54.5 -23.5q-29 0 -49.5 19.5t-20.5 47.5z" />
<glyph unicode="&#x4e7;" horiz-adv-x="1310" d="M112 436q0 182 79 327.5t218 229.5t316 84q217 0 345 -119.5t128 -324.5q0 -182 -79 -328.5t-218.5 -229.5t-315.5 -83q-217 0 -345 120.5t-128 323.5zM215 442q0 -170 99 -264t279 -94q144 0 257.5 69.5t179 193.5t65.5 280q0 170 -99 264t-280 94q-143 0 -256.5 -70.5 t-179 -194.5t-65.5 -278zM570 1366q0 33 22.5 56.5t54.5 23.5q29 0 49.5 -19.5t20.5 -48.5q0 -33 -22.5 -56.5t-55.5 -23.5q-28 0 -48.5 19.5t-20.5 48.5zM924 1366q0 33 22.5 56.5t53.5 23.5q29 0 50 -19.5t21 -48.5q0 -33 -23.5 -56.5t-53.5 -23.5q-29 0 -49.5 19.5 t-20.5 48.5z" />
<glyph unicode="&#x4e8;" horiz-adv-x="1716" d="M137 580q0 233 105.5 430.5t301 315.5t451.5 118q207 0 355.5 -74t225.5 -207t77 -309q0 -233 -106.5 -431t-302 -315.5t-451.5 -117.5q-207 0 -354.5 73.5t-224.5 206.5t-77 310zM242 584q0 -227 145 -362.5t416 -135.5q188 0 339.5 77t251 210t134.5 301h-1282 q-4 -57 -4 -90zM260 762h1282q4 57 4 88q0 229 -144.5 363.5t-414.5 134.5q-188 0 -339.5 -76t-251 -209t-136.5 -301z" />
<glyph unicode="&#x4e9;" horiz-adv-x="1333" d="M111 436q0 182 79.5 328.5t222 229.5t322.5 83q228 0 358 -119.5t130 -324.5q0 -182 -80 -328.5t-222.5 -229.5t-324.5 -83q-225 0 -355 120.5t-130 323.5zM213 442q0 -172 101.5 -265t291.5 -93q193 0 328 113.5t174 300.5h-893q-2 -18 -2 -56zM227 575h891q2 16 2 52 q0 172 -101 265t-292 93q-190 0 -325.5 -112.5t-174.5 -297.5z" />
<glyph unicode="&#x4ea;" horiz-adv-x="1716" d="M137 580q0 233 105.5 430.5t301 315.5t451.5 118q207 0 355.5 -74t225.5 -207t77 -309q0 -233 -106.5 -431t-302 -315.5t-451.5 -117.5q-207 0 -354.5 73.5t-224.5 206.5t-77 310zM242 584q0 -227 145 -362.5t416 -135.5q188 0 339.5 77t251 210t134.5 301h-1282 q-4 -57 -4 -90zM260 762h1282q4 57 4 88q0 229 -144.5 363.5t-414.5 134.5q-188 0 -339.5 -76t-251 -209t-136.5 -301zM833 1673q0 33 22.5 56.5t55.5 23.5q29 0 49.5 -19.5t20.5 -47.5q0 -33 -23 -56.5t-55 -23.5q-29 0 -49.5 19.5t-20.5 47.5zM1187 1673q0 33 22.5 56.5 t53.5 23.5q29 0 50.5 -19.5t21.5 -47.5q0 -33 -23.5 -56.5t-54.5 -23.5q-29 0 -49.5 19.5t-20.5 47.5z" />
<glyph unicode="&#x4eb;" horiz-adv-x="1333" d="M111 436q0 182 79.5 328.5t222 229.5t322.5 83q228 0 358 -119.5t130 -324.5q0 -182 -80 -328.5t-222.5 -229.5t-324.5 -83q-225 0 -355 120.5t-130 323.5zM213 442q0 -172 101.5 -265t291.5 -93q193 0 328 113.5t174 300.5h-893q-2 -18 -2 -56zM227 575h891q2 16 2 52 q0 172 -101 265t-292 93q-190 0 -325.5 -112.5t-174.5 -297.5zM580 1366q0 33 22.5 56.5t54.5 23.5q29 0 49.5 -19.5t20.5 -48.5q0 -33 -22.5 -56.5t-55.5 -23.5q-28 0 -48.5 19.5t-20.5 48.5zM934 1366q0 33 22.5 56.5t53.5 23.5q29 0 50 -19.5t21 -48.5q0 -33 -23.5 -56.5 t-53.5 -23.5q-29 0 -49.5 19.5t-20.5 48.5z" />
<glyph unicode="&#x4ec;" horiz-adv-x="1447" d="M10 188l80 70q141 -172 424 -172q170 0 324.5 79t262 216t142.5 307h-782l16 88h778q2 18 2 53q0 150 -61 267.5t-173 184.5t-257 67q-281 0 -492 -172l-53 67q113 98 259.5 149.5t307.5 51.5q173 0 304 -77t202.5 -212t71.5 -307q0 -233 -121 -431t-320.5 -312.5 t-426.5 -114.5q-162 0 -288 50t-200 148zM623 1673q0 33 22.5 56.5t55.5 23.5q29 0 49.5 -19.5t20.5 -47.5q0 -33 -23 -56.5t-55 -23.5q-29 0 -49.5 19.5t-20.5 47.5zM977 1673q0 33 22.5 56.5t53.5 23.5q29 0 50.5 -19.5t21.5 -47.5q0 -33 -23.5 -56.5t-54.5 -23.5 q-29 0 -49.5 19.5t-20.5 47.5z" />
<glyph unicode="&#x4ed;" horiz-adv-x="1167" d="M0 145l66 56q51 -59 136 -92t183 -33q133 0 251 56t201 154.5t113 217.5h-604l16 80h601q2 14 2 41q0 170 -105.5 269t-288.5 99q-102 0 -198.5 -33.5t-171.5 -97.5l-51 62q78 72 193.5 111.5t240.5 39.5q143 0 252.5 -55t170 -155.5t60.5 -235.5q0 -170 -93 -317.5 t-251 -234.5t-338 -87q-125 0 -227.5 42t-157.5 113zM443 1364q0 33 22.5 56.5t54.5 23.5q29 0 49.5 -19.5t20.5 -48.5q0 -33 -22.5 -56.5t-55.5 -23.5q-28 0 -48.5 19.5t-20.5 48.5zM797 1364q0 33 22.5 56.5t53.5 23.5q29 0 50 -19.5t21 -48.5q0 -33 -23.5 -56.5 t-53.5 -23.5q-29 0 -49.5 19.5t-20.5 48.5z" />
<glyph unicode="&#x4ee;" horiz-adv-x="1613" d="M158 14l63 80q72 -106 182.5 -158.5t268.5 -52.5q227 0 374.5 130t198.5 393l45 225q-88 -133 -221 -199.5t-303 -66.5q-221 0 -345 114.5t-124 327.5q0 78 18 170l93 457h104l-92 -459q-16 -92 -17 -158q0 -176 99.5 -267t288.5 -91q217 0 365.5 124t199.5 371l96 480 h104l-206 -1035q-59 -303 -235.5 -457.5t-448.5 -154.5q-176 0 -305.5 58.5t-202.5 168.5zM701 1634l14 74h602l-14 -74h-602z" />
<glyph unicode="&#x4ef;" horiz-adv-x="1370" d="M76 -236l63 78q61 -76 157.5 -115.5t215.5 -39.5q199 0 304.5 100t150.5 328l24 129q-147 -205 -432 -205q-180 0 -277.5 91t-97.5 251q0 55 13 117l114 571h103l-115 -571q-10 -45 -10 -103q0 -127 74.5 -195.5t222.5 -68.5q184 0 305 103.5t160 300.5l106 534h103 l-193 -960q-53 -272 -188.5 -393.5t-374.5 -121.5q-133 0 -246 44.5t-182 125.5zM536 1327l15 74h602l-15 -74h-602z" />
<glyph unicode="&#x4f0;" horiz-adv-x="1613" d="M158 14l63 80q72 -106 182.5 -158.5t268.5 -52.5q227 0 374.5 130t198.5 393l45 225q-88 -133 -221 -199.5t-303 -66.5q-221 0 -345 114.5t-124 327.5q0 78 18 170l93 457h104l-92 -459q-16 -92 -17 -158q0 -176 99.5 -267t288.5 -91q217 0 365.5 124t199.5 371l96 480 h104l-206 -1035q-59 -303 -235.5 -457.5t-448.5 -154.5q-176 0 -305.5 58.5t-202.5 168.5zM760 1673q0 33 22.5 56.5t55.5 23.5q29 0 49.5 -19.5t20.5 -47.5q0 -33 -23 -56.5t-55 -23.5q-29 0 -49.5 19.5t-20.5 47.5zM1114 1673q0 33 22.5 56.5t53.5 23.5q29 0 50.5 -19.5 t21.5 -47.5q0 -33 -23.5 -56.5t-54.5 -23.5q-29 0 -49.5 19.5t-20.5 47.5z" />
<glyph unicode="&#x4f1;" horiz-adv-x="1370" d="M76 -236l63 78q61 -76 157.5 -115.5t215.5 -39.5q199 0 304.5 100t150.5 328l24 129q-147 -205 -432 -205q-180 0 -277.5 91t-97.5 251q0 55 13 117l114 571h103l-115 -571q-10 -45 -10 -103q0 -127 74.5 -195.5t222.5 -68.5q184 0 305 103.5t160 300.5l106 534h103 l-193 -960q-53 -272 -188.5 -393.5t-374.5 -121.5q-133 0 -246 44.5t-182 125.5zM596 1366q0 33 22.5 56.5t54.5 23.5q29 0 49.5 -19.5t20.5 -48.5q0 -33 -22.5 -56.5t-55.5 -23.5q-28 0 -48.5 19.5t-20.5 48.5zM950 1366q0 33 22.5 56.5t53.5 23.5q29 0 50 -19.5t21 -48.5 q0 -33 -23.5 -56.5t-53.5 -23.5q-29 0 -49.5 19.5t-20.5 48.5z" />
<glyph unicode="&#x4f2;" horiz-adv-x="1613" d="M158 14l63 80q72 -106 182.5 -158.5t268.5 -52.5q227 0 374.5 130t198.5 393l45 225q-88 -133 -221 -199.5t-303 -66.5q-221 0 -345 114.5t-124 327.5q0 78 18 170l93 457h104l-92 -459q-16 -92 -17 -158q0 -176 99.5 -267t288.5 -91q217 0 365.5 124t199.5 371l96 480 h104l-206 -1035q-59 -303 -235.5 -457.5t-448.5 -154.5q-176 0 -305.5 58.5t-202.5 168.5zM776 1550l236 242h129l-260 -242h-105zM1090 1550l235 242h129l-262 -242h-102z" />
<glyph unicode="&#x4f3;" horiz-adv-x="1370" d="M76 -236l63 78q61 -76 157.5 -115.5t215.5 -39.5q199 0 304.5 100t150.5 328l24 129q-147 -205 -432 -205q-180 0 -277.5 91t-97.5 251q0 55 13 117l114 571h103l-115 -571q-10 -45 -10 -103q0 -127 74.5 -195.5t222.5 -68.5q184 0 305 103.5t160 300.5l106 534h103 l-193 -960q-53 -272 -188.5 -393.5t-374.5 -121.5q-133 0 -246 44.5t-182 125.5zM612 1243l236 242h129l-261 -242h-104zM925 1243l236 242h129l-262 -242h-103z" />
<glyph unicode="&#x4f4;" horiz-adv-x="1486" d="M203 852q0 51 12 106l94 476h105l-95 -473q-10 -51 -10 -89q0 -131 91.5 -201.5t258.5 -70.5q227 0 500 115l144 719h104l-287 -1434h-104l123 612q-268 -106 -490 -106q-215 0 -330.5 90t-115.5 256zM659 1673q0 33 22.5 56.5t55.5 23.5q29 0 49.5 -19.5t20.5 -47.5 q0 -33 -23 -56.5t-55 -23.5q-29 0 -49.5 19.5t-20.5 47.5zM1013 1673q0 33 22.5 56.5t53.5 23.5q29 0 50.5 -19.5t21.5 -47.5q0 -33 -23.5 -56.5t-54.5 -23.5q-29 0 -49.5 19.5t-20.5 47.5z" />
<glyph unicode="&#x4f5;" horiz-adv-x="1206" d="M129 635q0 43 8 82l70 352h102l-69 -354q-6 -33 -7 -62q0 -96 69 -145t194 -49q168 0 393 90l104 520h103l-215 -1069h-103l92 457q-215 -84 -393 -84q-164 0 -256 66.5t-92 195.5zM455 1366q0 33 22.5 56.5t54.5 23.5q29 0 49.5 -19.5t20.5 -48.5q0 -33 -22.5 -56.5 t-55.5 -23.5q-28 0 -48.5 19.5t-20.5 48.5zM809 1366q0 33 22.5 56.5t53.5 23.5q29 0 50 -19.5t21 -48.5q0 -33 -23.5 -56.5t-53.5 -23.5q-29 0 -49.5 19.5t-20.5 48.5z" />
<glyph unicode="&#x4f6;" d="M152 0l20 94h332l-82 -422h-100l65 328h-235zM152 0l286 1434h887l-20 -95h-783l-266 -1339h-104z" />
<glyph unicode="&#x4f7;" horiz-adv-x="950" d="M112 0l19 90h278l-67 -332h-98l49 242h-181zM113 0l213 1069h733l-19 -92h-632l-193 -977h-102z" />
<glyph unicode="&#x4f8;" horiz-adv-x="1976" d="M203 375q0 57 12 125l186 934h105l-129 -646q231 176 506 177q223 0 347 -110t124 -308q0 -168 -84 -296t-236.5 -198.5t-351.5 -70.5q-231 0 -355 103t-124 290zM307 387q0 -152 99.5 -232.5t285.5 -80.5q164 0 290 57t194.5 161.5t68.5 242.5q0 164 -100.5 251.5 t-288.5 87.5q-272 0 -500 -190l-37 -190q-12 -57 -12 -107zM965 1673q0 33 22.5 56.5t55.5 23.5q29 0 49.5 -19.5t20.5 -47.5q0 -33 -23 -56.5t-55 -23.5q-29 0 -49.5 19.5t-20.5 47.5zM1319 1673q0 33 22.5 56.5t53.5 23.5q29 0 50.5 -19.5t21.5 -47.5q0 -33 -23.5 -56.5 t-54.5 -23.5q-29 0 -49.5 19.5t-20.5 47.5zM1507 0l287 1434h104l-286 -1434h-105z" />
<glyph unicode="&#x4f9;" horiz-adv-x="1570" d="M152 289q0 43 10 100l135 680h102l-92 -473q145 158 373 158q170 0 262 -81t92 -231q0 -131 -66.5 -236.5t-184 -165.5t-267.5 -60q-172 0 -268 80.5t-96 228.5zM254 301q0 -113 70.5 -176.5t201.5 -63.5q117 0 209 49.5t143.5 133.5t51.5 184q0 119 -73 182.5t-204 63.5 q-115 0 -210 -49.5t-160 -141.5l-21 -100q-8 -39 -8 -82zM703 1366q0 33 22.5 56.5t54.5 23.5q29 0 49.5 -19.5t20.5 -48.5q0 -33 -22.5 -56.5t-55.5 -23.5q-28 0 -48.5 19.5t-20.5 48.5zM1057 1366q0 33 22.5 56.5t53.5 23.5q29 0 50 -19.5t21 -48.5q0 -33 -23.5 -56.5 t-53.5 -23.5q-29 0 -49.5 19.5t-20.5 48.5zM1141 0l215 1069h102l-215 -1069h-102z" />
<glyph unicode="&#x4fa;" horiz-adv-x="1230" d="M-51 -332l57 74q59 -59 158 -59q92 0 154.5 55t82.5 160l21 102h-225l18 94l107 533h-222l17 84h221l145 723h887l-18 -95h-785l-125 -628h631l-16 -84h-631l-107 -533h226l-43 -213q-27 -133 -119 -210t-221 -77q-63 0 -119.5 18.5t-93.5 55.5z" />
<glyph unicode="&#x4fb;" horiz-adv-x="954" d="M-150 -332l56 74q55 -59 160 -59q94 0 155.5 55t81.5 162l21 100h-174l92 463h-166l16 80h166l104 526h650l-19 -92h-547l-86 -434h467l-16 -80h-467l-74 -373h174l-41 -205q-27 -133 -117.5 -212t-226.5 -79q-66 0 -122 18.5t-87 55.5z" />
<glyph unicode="&#x4fc;" horiz-adv-x="1312" d="M-53 0l704 748l-381 686h111l340 -615l582 615h120l-653 -693q152 -266 224.5 -407t100 -226t27.5 -165q0 -100 -46 -180t-126 -125.5t-180 -45.5q-109 0 -209 60l49 80q78 -49 162 -49q104 0 171 70.5t67 183.5q0 70 -27 150.5t-92.5 208.5t-198.5 361l-620 -657h-125z " />
<glyph unicode="&#x4fd;" horiz-adv-x="1048" d="M-66 0l541 553l-299 516h109l258 -446l432 446h121l-510 -526q162 -254 227.5 -396.5t65.5 -240.5q0 -88 -44 -160t-122 -113t-174 -41q-123 0 -220 64l48 80q70 -51 163 -51q106 0 176 64.5t70 160.5q0 82 -59.5 210t-198.5 353l-459 -473h-125z" />
<glyph unicode="&#x4fe;" horiz-adv-x="1341" d="M-31 0l643 696h-370l18 84h371l-334 652h121l311 -603l555 603h127l-596 -652h348l-16 -84h-342l356 -696h-123l-340 653l-602 -653h-127z" />
<glyph unicode="&#x4ff;" horiz-adv-x="1110" d="M-37 0l494 506h-264l16 78h276l-282 485h108l258 -446l432 446h121l-471 -485h271l-17 -78h-268l295 -506h-111l-274 477l-461 -477h-123z" />
<glyph unicode="&#x2000;" horiz-adv-x="994" />
<glyph unicode="&#x2001;" horiz-adv-x="1989" />
<glyph unicode="&#x2002;" horiz-adv-x="994" />
<glyph unicode="&#x2003;" horiz-adv-x="1989" />
<glyph unicode="&#x2004;" horiz-adv-x="663" />
<glyph unicode="&#x2005;" horiz-adv-x="497" />
<glyph unicode="&#x2006;" horiz-adv-x="331" />
<glyph unicode="&#x2007;" horiz-adv-x="331" />
<glyph unicode="&#x2008;" horiz-adv-x="248" />
<glyph unicode="&#x2009;" horiz-adv-x="397" />
<glyph unicode="&#x200a;" horiz-adv-x="110" />
<glyph unicode="&#x2010;" horiz-adv-x="780" d="M121 504l18 92h527l-19 -92h-526z" />
<glyph unicode="&#x2011;" horiz-adv-x="780" d="M121 504l18 92h527l-19 -92h-526z" />
<glyph unicode="&#x2012;" horiz-adv-x="780" d="M121 504l18 92h527l-19 -92h-526z" />
<glyph unicode="&#x2013;" horiz-adv-x="1024" d="M-4 512l14 76h1024l-14 -76h-1024z" />
<glyph unicode="&#x2014;" horiz-adv-x="2048" d="M-4 512l14 76h2048l-14 -76h-2048z" />
<glyph unicode="&#x2018;" horiz-adv-x="409" d="M240 1145q0 18 7 36.5t14 32t9 19.5l144 287h71l-123 -291q23 -10 37.5 -31.5t14.5 -46.5q0 -37 -27 -63.5t-63 -26.5q-35 0 -59.5 23.5t-24.5 60.5z" />
<glyph unicode="&#x2019;" horiz-adv-x="409" d="M225 1069l125 291q-23 10 -37 30.5t-14 47.5q0 39 26.5 64.5t63.5 25.5q35 0 58.5 -24.5t23.5 -59.5q0 -20 -6 -40t-23 -48l-143 -287h-74z" />
<glyph unicode="&#x201a;" horiz-adv-x="409" d="M-47 -293l125 291q-23 10 -37 31.5t-14 46.5q0 39 26.5 64.5t63.5 25.5q35 0 59.5 -24.5t24.5 -59.5q0 -18 -7.5 -36.5t-14.5 -32t-9 -19.5l-143 -287h-74z" />
<glyph unicode="&#x201c;" horiz-adv-x="722" d="M240 1145q0 18 7 36.5t14 32t9 19.5l144 287h71l-123 -291q23 -10 37.5 -31.5t14.5 -46.5q0 -37 -27 -63.5t-63 -26.5q-35 0 -59.5 23.5t-24.5 60.5zM553 1145q0 18 7 36.5t14 32t9 19.5l144 287h71l-123 -291q23 -10 37.5 -31.5t14.5 -46.5q0 -37 -27 -63.5t-63 -26.5 q-35 0 -59.5 23.5t-24.5 60.5z" />
<glyph unicode="&#x201d;" horiz-adv-x="722" d="M225 1069l125 291q-23 10 -37 30.5t-14 47.5q0 39 26.5 64.5t63.5 25.5q35 0 58.5 -24.5t23.5 -59.5q0 -20 -6 -40t-23 -48l-143 -287h-74zM538 1069l125 291q-23 10 -37 30.5t-14 47.5q0 39 26.5 64.5t63.5 25.5q35 0 58.5 -24.5t23.5 -59.5q0 -20 -6 -40t-23 -48 l-143 -287h-74z" />
<glyph unicode="&#x201e;" horiz-adv-x="722" d="M-47 -293l125 291q-23 10 -37 31.5t-14 46.5q0 39 26.5 64.5t63.5 25.5q35 0 59.5 -24.5t24.5 -59.5q0 -18 -7.5 -36.5t-14.5 -32t-9 -19.5l-143 -287h-74zM266 -293l125 291q-23 10 -37 31.5t-14 46.5q0 39 26.5 64.5t63.5 25.5q35 0 59.5 -24.5t24.5 -59.5 q0 -18 -7.5 -36.5t-14.5 -32t-9 -19.5l-143 -287h-74z" />
<glyph unicode="&#x2020;" horiz-adv-x="1097" d="M117 813l18 90h434l107 531h102l-106 -531h436l-16 -90h-439l-241 -1210h-103l242 1210h-434z" />
<glyph unicode="&#x2021;" horiz-adv-x="1097" d="M-20 133l18 90h436l119 590h-436l18 90h436l105 531h102l-104 -531h436l-18 -90h-437l-118 -590h436l-19 -90h-436l-104 -530h-103l105 530h-436z" />
<glyph unicode="&#x2022;" horiz-adv-x="573" d="M164 547q0 57 39 97t94 40q51 0 86 -35t35 -86q0 -57 -39 -97t-94 -40q-52 0 -86.5 35t-34.5 86z" />
<glyph unicode="&#x2026;" horiz-adv-x="1247" d="M27 76q0 39 26.5 64.5t63.5 25.5q35 0 59.5 -24.5t24.5 -59.5q0 -37 -27 -63.5t-63 -26.5q-35 0 -59.5 24.5t-24.5 59.5zM447 76q0 39 26.5 64.5t63.5 25.5q35 0 59.5 -24.5t24.5 -59.5q0 -37 -27 -63.5t-63 -26.5q-35 0 -59.5 24.5t-24.5 59.5zM867 76q0 39 26.5 64.5 t63.5 25.5q35 0 59.5 -24.5t24.5 -59.5q0 -37 -27 -63.5t-63 -26.5q-35 0 -59.5 24.5t-24.5 59.5z" />
<glyph unicode="&#x202f;" horiz-adv-x="397" />
<glyph unicode="&#x2030;" horiz-adv-x="2402" d="M188 971q0 123 46.5 230.5t132.5 173t198 65.5q125 0 198 -80t73 -221q0 -123 -46.5 -230.5t-132.5 -173t-198 -65.5q-125 0 -198 79.5t-73 221.5zM195 0l1259 1434h96l-1259 -1434h-96zM266 977q0 -113 52.5 -176.5t144.5 -63.5q90 0 157.5 58.5t102.5 149.5t35 188 q0 113 -52.5 176t-144.5 63q-90 0 -157.5 -58.5t-102.5 -149.5t-35 -187zM909 293q0 123 47.5 230.5t133.5 173t198 65.5q125 0 196.5 -80t71.5 -221q0 -123 -46 -230.5t-132 -173t-198 -65.5q-125 0 -198 80t-73 221zM987 299q0 -113 52.5 -176.5t146.5 -63.5 q90 0 157.5 58.5t102.5 149.5t35 188q0 113 -52.5 176t-146.5 63q-90 0 -157.5 -58t-102.5 -149.5t-35 -187.5zM1638 293q0 123 47.5 230.5t133.5 173t198 65.5q125 0 197 -80t72 -221q0 -123 -46.5 -230.5t-132.5 -173t-198 -65.5q-125 0 -198 80t-73 221zM1716 299 q0 -113 52.5 -176.5t146.5 -63.5q90 0 157.5 58.5t102.5 149.5t35 188q0 113 -52.5 176t-146.5 63q-90 0 -157.5 -58t-102.5 -149.5t-35 -187.5z" />
<glyph unicode="&#x2039;" horiz-adv-x="589" d="M109 535l374 385h105l-375 -388l215 -380h-98z" />
<glyph unicode="&#x203a;" horiz-adv-x="591" d="M4 152l373 389l-213 379h96l221 -385l-375 -383h-102z" />
<glyph unicode="&#x2044;" horiz-adv-x="337" d="M-471 0l1257 1434h97l-1258 -1434h-96z" />
<glyph unicode="&#x205f;" horiz-adv-x="497" />
<glyph unicode="&#x20ac;" horiz-adv-x="1634" d="M61 541l15 69h229q2 102 33 213h-219l14 70h225q90 248 304.5 399.5t511.5 151.5q167 0 297.5 -51.5t201.5 -145.5l-76 -67q-139 168 -432 168q-248 0 -430 -125t-264 -330h758l-15 -70h-768q-33 -104 -34 -213h759l-14 -69h-743q12 -209 157.5 -332t403.5 -123 q295 0 473 172l61 -72q-92 -94 -234 -145t-308 -51q-201 0 -346.5 68.5t-225.5 192.5t-90 290h-244z" />
<glyph unicode="&#x2122;" horiz-adv-x="2078" d="M174 1364l14 70h736l-15 -70h-325l-156 -780h-84l156 780h-326zM891 584l170 850h67l281 -641l528 641h70l-168 -850h-80l137 694l-483 -584h-41l-262 592l-141 -702h-78z" />
<glyph unicode="&#x2202;" horiz-adv-x="1433" d="M152 377q0 152 73.5 268.5t203.5 180t294 63.5q178 0 292.5 -91t127.5 -247q63 164 63 364q0 221 -118.5 336t-346.5 115q-74 0 -150.5 -12.5t-135.5 -32.5l-6 90q59 23 139 35t160 12q262 0 411.5 -138t149.5 -402q0 -227 -83 -441.5t-245 -350.5t-385 -136 q-133 0 -233.5 48t-155.5 136t-55 203zM254 385q0 -143 92 -224t258 -81q119 0 227.5 55t176 150.5t67.5 208.5q0 141 -94 223t-256 82q-137 0 -244.5 -52.5t-167 -145.5t-59.5 -216z" />
<glyph unicode="&#x2206;" horiz-adv-x="1443" d="M-96 0l946 1434h104l373 -1434h-1423zM80 94h1118l-313 1229z" />
<glyph unicode="&#x220f;" horiz-adv-x="1667" d="M63 -397l367 1831h1167l-366 -1831h-107l349 1734h-957l-346 -1734h-107z" />
<glyph unicode="&#x2211;" horiz-adv-x="1323" d="M-90 -397l14 73l879 850l-518 834l14 74h1120l-18 -95h-981l489 -782l-14 -76l-815 -784h1001l-18 -94h-1153z" />
<glyph unicode="&#x221a;" horiz-adv-x="1617" d="M174 674l19 86h335l183 -1024l985 1784h106l-1061 -1917h-104l-197 1071h-266z" />
<glyph unicode="&#x221e;" horiz-adv-x="1878" d="M133 664q0 123 56.5 221t155.5 153.5t224 55.5q119 0 198 -40t127 -103.5t91 -155.5q104 143 212 221t273 78q154 0 251.5 -89.5t97.5 -234.5q0 -123 -56.5 -221t-155 -153.5t-223.5 -55.5q-119 0 -198.5 40t-126.5 103.5t-90 155.5q-70 -94 -133.5 -156.5t-150.5 -102.5 t-202 -40q-154 0 -252 90t-98 234zM223 674q0 -113 74 -181.5t195 -68.5q102 0 180 39t134 99.5t126 156.5q-43 94 -84 153.5t-108.5 98.5t-170.5 39q-98 0 -177 -42t-124 -119t-45 -175zM1022 715q43 -94 84 -153.5t108.5 -98.5t169.5 -39q99 0 177.5 43t124 120t45.5 175 q0 113 -74 180.5t-197 67.5q-100 0 -178 -39t-134 -99.5t-126 -156.5z" />
<glyph unicode="&#x222b;" horiz-adv-x="763" d="M-246 -338l49 74q57 -57 158 -58q100 0 159.5 53.5t82.5 168.5l268 1331q29 147 116 223t228 76q63 0 118.5 -18.5t86.5 -53.5l-49 -76q-59 59 -158 60q-100 0 -159.5 -53.5t-82.5 -169.5l-268 -1330q-59 -301 -344 -301q-63 0 -118.5 19.5t-86.5 54.5z" />
<glyph unicode="&#x2248;" d="M94 348q27 137 103.5 212t181.5 75q72 0 120 -31t101 -88q47 -49 82 -72.5t82 -23.5q78 0 133 56t78 151h74q-27 -137 -104 -213t-179 -76q-72 0 -120 30.5t-103 88.5q-47 49 -82 72.5t-82 23.5q-78 0 -133.5 -55.5t-75.5 -149.5h-76zM188 807q27 137 104 213t179 76 q74 0 120 -30t103 -89q47 -49 81 -72.5t81 -23.5q78 0 133 55t78 149h74q-27 -137 -102.5 -211.5t-180.5 -74.5q-72 0 -120 30.5t-101 88.5q-47 49 -82 72.5t-82 23.5q-78 0 -133 -55.5t-78 -151.5h-74z" />
<glyph unicode="&#x2260;" d="M129 442l18 86h283l283 375h-490l17 88h538l197 260h98l-196 -260h233l-18 -88h-281l-283 -375h490l-19 -86h-536l-197 -260h-98l197 260h-236z" />
<glyph unicode="&#x2264;" d="M41 0l16 88h871l-19 -88h-868zM180 702l19 95l938 350l-21 -98l-823 -304l704 -305l-18 -88z" />
<glyph unicode="&#x2265;" d="M41 0l16 88h871l-19 -88h-868zM113 352l20 99l821 303l-700 305l16 88l801 -350l-18 -95z" />
<glyph unicode="&#x25ca;" horiz-adv-x="1028" d="M100 676l414 614l412 -614l-414 -621zM186 676l326 -488l330 488l-328 485z" />
<glyph unicode="&#x25fc;" horiz-adv-x="1064" d="M0 0v1065h1065v-1065h-1065z" />
</font>
</defs>
</svg>
